<?xml version="1.0" standalone="no"?>
<!DOCTYPE svg PUBLIC "-//W3C//DTD SVG 1.1//EN" "http://www.w3.org/Graphics/SVG/1.1/DTD/svg11.dtd" >
<svg xmlns="http://www.w3.org/2000/svg" xmlns:xlink="http://www.w3.org/1999/xlink" version="1.1">
<metadata></metadata>
<defs>
<font id="anime_ace_2.0_bbitalic" horiz-adv-x="1548" >
<font-face units-per-em="2048" ascent="1638" descent="-410" />
<missing-glyph horiz-adv-x="827" />
<glyph horiz-adv-x="0" />
<glyph horiz-adv-x="682" />
<glyph unicode=" "  horiz-adv-x="827" />
<glyph unicode="&#x09;" horiz-adv-x="827" />
<glyph unicode="&#xa0;" horiz-adv-x="827" />
<glyph unicode="!" horiz-adv-x="792" d="M-102 137q45 162 82 250q20 51 147 51q109 0 100 -35q-10 -30 -63 -139q-49 -106 -72 -137q-35 -47 -121 -47q-44 0 -62 14t-11 43zM135 682q0 28 37 92l49 94l219 482q155 332 250 450q53 62 180 62q41 0 101 -13q78 -15 69 -49q-3 -12 -204 -287l-258 -350 q-145 -207 -207 -364l-43 -111q-26 -51 -103 -51q-90 0 -90 45z" />
<glyph unicode="&#x22;" horiz-adv-x="940" d="M219 1153q0 33 19 88l30 86q27 120 41 197q27 131 45 194q13 49 65.5 82t110.5 33q78 0 78 -59q0 -15 -2 -21q-47 -172 -80 -285q-51 -159 -104 -286q-41 -90 -135 -90q-68 0 -68 61zM618 1198q0 28 17 98q11 38 27 86l43 187l43 186q13 51 66 83t108 32q77 0 77 -58 q0 -12 -2 -20q-57 -219 -79 -287q-48 -158 -103 -284q-42 -97 -129 -97q-68 0 -68 74z" />
<glyph unicode="#" horiz-adv-x="1550" d="M63 541q0 86 76 98q66 2 195 4l80 254q-72 -10 -97 -10q-56 0 -91.5 33.5t-35.5 87.5q0 18 7 43q14 50 69 59q2 0 219 6q88 273 144 438q43 117 198 117q62 0 62 -33q0 -8 -2 -14q-28 -96 -94 -250q-91 -211 -103 -248q201 12 369 48l74 286q31 116 87 160.5t173 44.5 q59 0 59 -37q0 -12 -2 -18q-14 -53 -66 -187q-52 -125 -69 -186q89 27 102 27q39 0 63.5 -40.5t24.5 -93.5q0 -71 -55 -92q-15 -6 -209 -34q-25 -80 -49 -179l-18 -61q119 29 122 29q36 0 64 -48q20 -39 20 -90q0 -68 -57 -88q-23 -10 -199 -32q-16 -133 -61 -375 q-9 -41 -82 -72q-61 -25 -104 -25q-63 0 -66 46q0 50 35 190q51 194 53 201q-167 -27 -418 -51q-33 -147 -49 -238q-2 -19 -16 -96q-12 -50 -74 -80q-52 -27 -102 -27q-76 0 -76 58q0 6 4 26q54 188 100 332q-68 -8 -94 -8q-47 0 -79 36.5t-32 88.5zM537 651q221 15 409 56 l62 262q-182 -25 -390 -49q-31 -82 -81 -269z" />
<glyph unicode="$" horiz-adv-x="1658" d="M2 223q0 11 4 31q8 33 51 92q46 64 78 64q5 0 51 -52q54 -60 117 -94q92 -51 225 -51h31q55 246 135 567q-227 14 -428 29q-58 4 -86 28.5t-26 69.5q3 73 28 119q96 168 320 346q210 167 405 242q2 9 5.5 21.5t8.5 32t9 34.5q27 99 93.5 158t160.5 59q63 0 63 -49 q0 -15 -59 -180q128 16 176 16q56 0 74 -12q29 -20 14 -76q-12 -52 -14 -115q-3 -73 -15 -114q-8 -37 -77 -84q-67 -43 -109 -43q-34 0 -43 65q0 35 -2 94q-16 2 -45 2q-33 0 -49 -2q-68 -204 -117 -379l264 -20q158 -15 250 -53q39 -14 39 -70q0 -29 -16 -88 q-6 -25 -33 -82q-237 -428 -723 -635q-4 -53 -14 -117q-15 -48 -80 -86q-61 -38 -115 -38q-64 0 -64 53q0 16 25 102q-152 -35 -229 -35q-167 0 -250 154q-33 59 -33 96zM471 1077q-6 -24 139 -24q43 0 76 2q35 2 74 2l80 303q-85 -36 -207 -123q-148 -102 -162 -160z M793 262q111 40 245 152q150 129 150 229q0 61 -115 88l-170 25q-51 -193 -110 -494z" />
<glyph unicode="%" horiz-adv-x="1781" d="M98 47q0 8 2 14q6 29 631 709q-171 -57 -328 -57q-266 0 -266 176q0 197 355 532q249 240 475 240q129 0 213 -96q75 -80 96 -215q67 75 276 284q72 66 150 66q47 0 90 -25t43 -61q0 -31 -27 -58l-172 -155q-155 -142 -350 -334q20 2 55 2q131 0 220 -108 q92 -109 92 -240q0 -247 -328 -434q-284 -166 -549 -166q-214 0 -260 123q-5 -7 -54.5 -71t-76.5 -97q-85 -101 -170 -101q-34 0 -76 17q-41 21 -41 55zM418 1063q0 -78 90 -119q70 -37 164 -37q123 0 221 58q109 63 143 180q13 50 13 92q0 193 -164 193q-126 0 -291 -119 q-176 -129 -176 -248zM778 483q0 -74 86 -121q70 -40 156 -40q116 0 225 53q136 63 162 168q10 52 10 92q0 90 -39 143q-46 64 -131 64q-115 0 -286 -119q-183 -130 -183 -240z" />
<glyph unicode="&#x26;" horiz-adv-x="1562" d="M-8 326q0 49 14 92q47 174 227 311q137 103 349 199q-103 71 -103 194q0 36 13 90q46 174 311 392q165 139 342 139q189 0 285 -152q53 -83 53 -133q0 -13 -4 -37q-10 -30 -33 -59q-27 -37 -53 -37q-11 0 -105 76t-184 76q-111 0 -227 -93q-114 -89 -144 -202 q-8 -31 -8 -64q0 -60 53 -78q32 -6 115 -14q74 -6 102 -37q37 -34 37 -88q0 -9 -4 -33q-21 -77 -133 -98q-108 -11 -233 -27q-157 -24 -252 -116q-117 -114 -117 -236q0 -109 102 -176q89 -57 217 -57q189 0 488 141l14 51q31 110 43 250q2 61 33 258q9 38 80 68 q58 24 104 24q55 0 64 -41q13 -65 -131 -594q-27 -112 -101 -366q-20 -58 -77 -94.5t-121 -36.5q-60 0 -60 41q0 18 78 215q-252 -105 -471 -105q-213 0 -371 82q-192 101 -192 275z" />
<glyph unicode="'" horiz-adv-x="655" d="M201 1257q0 38 57 113q51 71 150 225q97 150 153 224q50 59 123 59q44 0 78.5 -22t34.5 -56q0 -12 -2 -18q-10 -30 -189 -264q-183 -234 -223 -277q-46 -49 -90 -49q-92 0 -92 65z" />
<glyph unicode="(" horiz-adv-x="1157" d="M33 571q0 75 18 152q76 278 418 584q167 144 348 282q266 199 361 199q45 0 85 -29t40 -69q0 -35 -37 -62q-38 -35 -119 -78q-111 -60 -127 -67q-655 -409 -758 -795q-14 -49 -14 -102q0 -148 125 -264q109 -101 262 -150q63 -13 176 -59q46 -30 27 -97q-12 -47 -47 -94 q-45 -54 -86 -57q-57 38 -177 96q-135 69 -178 94q-142 83 -225 213q-92 142 -92 303z" />
<glyph unicode=")" horiz-adv-x="1226" d="M-109 -35q0 35 35 62q33 28 119 77q79 41 127 68q654 405 756 795q14 49 14 100q0 150 -123 264q-107 100 -262 152q-77 16 -176 59q-43 30 -25 98q11 44 47 95q45 54 86 57q49 -34 177 -98q114 -53 178 -95q317 -206 317 -518q0 -75 -18 -151q-76 -276 -418 -582 q-176 -152 -350 -282q-268 -197 -361 -197q-44 0 -83.5 29.5t-39.5 66.5z" />
<glyph unicode="*" horiz-adv-x="962" d="M274 1300q6 21 134 93l161 84l-118 59q-92 48 -107 66q-10 14 -2 38q8 28 37 74q30 43 59 43q13 0 178 -121q0 46 17 179q6 26 55 47q41 18 74 18q43 0 43 -29q0 -41 -19 -125q-24 -86 -34 -129q190 166 217 166q34 0 66 -32.5t22 -63.5q-3 -18 -250 -182l80 -62 q47 -41 47 -86q0 -8 -4 -20q-9 -28 -33 -62q-27 -34 -55 -34q-9 0 -148 145l-51 -184q-7 -37 -49 -64.5t-86 -27.5q-48 0 -39 40q14 48 63 177l-86 -60q-56 -33 -92 -33t-61.5 27t-18.5 59z" />
<glyph unicode="+" horiz-adv-x="1382" d="M123 784q0 15 4 43q15 57 61 66h86h172q92 0 129 2q16 113 68 377q15 56 82 96q58 37 115 37q65 0 53 -49l-57 -205q-38 -145 -56 -238q52 8 213 56q140 41 211 41q70 0 70 -123q0 -87 -57 -107q-80 -28 -230 -43q-83 -8 -239 -20q-3 -53 2 -119q8 -81 8 -123 q0 -35 -1.5 -52.5t-10 -43t-29 -44.5t-55.5 -36q-67 -31 -111 -31q-52 0 -55 35q-2 12 -2 43q0 43 53 350q-325 -28 -332 -28q-42 0 -67 32.5t-25 83.5z" />
<glyph unicode="," horiz-adv-x="774" d="M-127 -227q0 36 57 108q33 45 150 228q97 148 153 221q53 59 123 59q44 0 79.5 -22.5t35.5 -57.5q0 -10 -2 -14q-5 -23 -188 -262q-182 -232 -222 -275q-50 -53 -94 -53q-37 0 -64.5 19t-27.5 49z" />
<glyph unicode="-" horiz-adv-x="1298" d="M76 733q0 24 6 45q21 70 137 70q25 0 41 -2h35q241 0 426 33q56 11 235 63q170 51 205 51q76 0 76 -123q0 -26 -6 -47q-9 -37 -49 -55q-63 -29 -490 -90q-429 -60 -516 -60q-46 0 -73 33t-27 82z" />
<glyph unicode="." horiz-adv-x="624" d="M0 72q0 27 37 137q29 88 51 137q24 53 148 53q108 0 96 -41q-7 -32 -64 -143q-57 -117 -73 -141q-34 -49 -119 -49q-76 0 -76 47z" />
<glyph unicode="/" horiz-adv-x="1388" d="M-143 68q0 10 2 16q8 32 100 131q65 71 129 135q588 649 985 1063q76 82 236 242q71 59 157 59q48 0 85.5 -22t37.5 -58q0 -14 -2 -20q-10 -31 -145 -154q-705 -644 -1151 -1173l-139 -181q-94 -110 -183 -110q-36 0 -73 16q-39 20 -39 56z" />
<glyph unicode="0" horiz-adv-x="1996" d="M59 565q0 98 31 213q105 388 485 672q378 281 764 281q281 0 457 -164q174 -162 174 -422q0 -99 -31 -211q-106 -390 -485 -674q-377 -278 -766 -278q-284 0 -457 161q-172 163 -172 422zM358 659q0 -210 123 -348q131 -143 346 -143q260 0 496 211q228 197 299 463 q27 92 27 184q0 211 -125 348q-131 146 -346 146q-262 0 -498 -211q-226 -201 -297 -467q-25 -95 -25 -183z" />
<glyph unicode="1" horiz-adv-x="718" d="M172 86q-6 80 43 279l78 288q48 201 164 656q-157 -66 -172 -66q-29 0 -49.5 36t-20.5 77q0 70 102 119q46 22 199 81q143 52 193 52q45 0 45 -33q0 -10 -2 -16q-50 -148 -84 -238q-37 -112 -95 -326q-96 -345 -133 -661q0 -62 -18 -191q-12 -45 -90 -73 q-64 -25 -115 -25q-42 0 -45 41z" />
<glyph unicode="2" horiz-adv-x="1458" d="M-78 76q0 52 27 102q41 126 160 156q389 103 643 291q233 174 317 280q58 76 55 228q-3 159 -112 245q-91 76 -232 76q-227 0 -370 -174q-45 -58 -58 -68q-36 -28 -71 -28q-37 0 -13 92q30 113 119 240q90 128 178 186q64 43 160 43q255 0 434 -209q185 -212 170 -543 q-6 -147 -104 -237q-60 -53 -275 -205q-222 -159 -432 -287q450 23 623 23q43 0 28 -49q-9 -33 -45 -82q-39 -52 -59 -68q-134 -90 -1030 -90q-113 0 -113 78z" />
<glyph unicode="3" horiz-adv-x="1513" d="M-82 147q28 97 88 97q13 0 64 -23q145 -65 313 -65q191 0 383 104q223 119 270 297q11 42 11 66q0 78 -57.5 119.5t-153.5 41.5q-41 0 -142 -16t-141 -16q-70 0 -70 49q0 80 109 166q49 40 149 69q103 29 142 49q68 49 94 148q4 36 4 55q0 75 -53 124.5t-135 49.5 q-80 0 -183 -59q-26 -15 -155 -111q-77 -59 -107 -59q-33 0 -33 39q0 92 150 233q106 103 229 166q139 74 256 74q126 0 215 -111q92 -112 92 -248q0 -213 -260 -391q346 -108 346 -315q0 -42 -12 -88q-71 -272 -442 -465q-329 -170 -617 -170q-75 0 -174 18 q-113 20 -155 56q-46 34 -25 116z" />
<glyph unicode="4" d="M41 498q0 48 27 88q140 576 188 755q59 226 217 226q64 0 64 -47q0 -11 -2 -17q-59 -163 -140 -420q-52 -172 -100 -389q374 107 702 133q114 478 156 633q20 73 75 117.5t126 44.5q38 0 53 -13.5t8 -41.5q-8 -21 -19.5 -54t-28 -82t-30.5 -88q-86 -257 -141 -503 q16 0 68 2t65 2q54 0 113 -35q66 -44 51 -90q-12 -59 -156 -80q-13 0 -188 -14q-14 -64 -29 -238q-12 -144 -37 -235q-9 -42 -79 -72q-61 -25 -107 -25q-58 0 -61 41q-9 52 38 242l68 260q-225 -34 -407 -78l-220 -65q-165 -52 -192 -52q-82 0 -82 95z" />
<glyph unicode="5" horiz-adv-x="1335" d="M-92 174q0 20 6 41q18 66 59 66q9 0 70 -23q160 -65 317 -65q171 0 320 79q180 94 221 252q10 38 10 68q0 101 -77 165t-191 64q-45 0 -133 -18q-100 -17 -131 -17q-101 0 -98 156l6 449q0 19 6 65q18 72 100 109q151 65 395 110q220 41 392 41q82 0 121 -7t83 -36 q52 -34 52 -78q0 -68 -152 -86l-350 -43q-203 -31 -356 -82l-19 -352q437 -21 545 -229q47 -92 47 -191q0 -54 -12 -106q-41 -152 -189 -285q-130 -115 -301 -182q-134 -55 -303 -55q-158 0 -270 34q-168 46 -168 156z" />
<glyph unicode="6" horiz-adv-x="1699" d="M55 543q0 264 158 522q145 234 381 399q293 203 690 203q63 0 86 -10q31 -19 37 -78q11 -148 35 -272q9 -44 -58 -93t-114 -49q-48 0 -72 86l-24 131q-381 -58 -615 -270q-233 -207 -289 -422q662 215 1008 215q285 0 285 -160q0 -17 -11 -59q-47 -174 -288 -360 q-205 -160 -412 -238q-183 -70 -338 -70q-221 0 -346 158q-113 140 -113 367zM272 455q65 -179 312 -179q217 0 503 138q206 104 226 186q9 37 -29.5 55.5t-124.5 18.5q-206 0 -887 -219z" />
<glyph unicode="7" horiz-adv-x="1353" d="M178 1391q0 116 127 163q177 64 647 64q342 0 455 -43q51 -19 88 -82q24 -40 18 -61q-4 -16 -26 -41q-500 -577 -789 -1090q-55 -108 -108 -195q-36 -51 -117 -51q-37 0 -80 17q-46 21 -37 59q19 75 865 1245q-152 4 -213 4q-352 0 -582 -47q-152 -28 -172 -28 q-76 0 -76 86z" />
<glyph unicode="8" horiz-adv-x="1660" d="M-78 113q0 33 12 77q41 153 213 342q143 152 320 283q-82 14 -130 63.5t-48 122.5q0 188 350 517q250 235 487 235q126 0 217 -111q87 -110 87 -243q0 -215 -259 -391q121 -41 207 -156q92 -124 92 -256q0 -44 -12 -88q-77 -283 -489 -461q-340 -147 -662 -147 q-385 0 -385 213zM227 322q0 -97 148 -150q109 -41 237 -41q171 0 310 62q177 76 221 229q10 52 10 96q0 116 -65.5 190t-178.5 74q-163 0 -411 -145q-271 -164 -271 -315zM565 1151q0 -72 84 -113q63 -32 158 -32q120 0 223 53q120 65 154 176q12 47 12 88q0 89 -44.5 145 t-123.5 56q-126 0 -291 -121q-172 -129 -172 -252z" />
<glyph unicode="9" horiz-adv-x="1683" d="M113 778q0 45 14 88q53 203 438 533q141 121 316 200q180 82 338 82t268 -96q172 -156 172 -336q0 -79 -51 -190q-111 -267 -172 -492q-26 -100 -50 -239q-30 -174 -47 -238q-15 -46 -88 -80q-64 -28 -114 -28q-56 0 -56 49q0 8 27 110q30 112 68 301q34 166 65 299 q-369 -192 -758 -192q-370 0 -370 229zM416 975q0 -100 147 -152q107 -39 240 -39q165 0 307 60q177 75 219 229q14 46 14 96q0 118 -63 187q-68 80 -180 80q-165 0 -414 -146q-270 -159 -270 -315z" />
<glyph unicode=":" horiz-adv-x="657" d="M-31 72q0 30 37 137l51 137q24 53 150 53q54 0 77 -10.5t17 -30.5q-3 -31 -61 -143q-56 -116 -76 -141q-34 -49 -119 -49q-76 0 -76 47zM199 723q49 180 86 260q21 55 147 55q56 0 80 -9.5t18 -29.5q-7 -33 -63 -147q-59 -119 -76 -141q-34 -49 -119 -49q-44 0 -62 15 t-11 46z" />
<glyph unicode=";" horiz-adv-x="714" d="M-172 -227q0 33 57 108q40 54 152 225q93 149 153 224q47 59 121 59q44 0 79.5 -21.5t35.5 -56.5q0 -12 -2 -16q-9 -28 -191 -262q-167 -217 -221 -275q-50 -53 -92 -53q-92 0 -92 68zM223 723q48 170 86 260q24 55 148 55q54 0 78 -9.5t20 -29.5q-7 -33 -63 -147 q-56 -118 -76 -141q-34 -49 -117 -49q-45 0 -64 15.5t-12 45.5z" />
<glyph unicode="&#x3c;" horiz-adv-x="1511" d="M27 739q0 15 2 21q11 43 55 102q51 67 88 64q201 143 1053 706q54 38 219 144q51 28 82 28q40 0 86 -43q47 -41 35 -82q-9 -35 -150 -108q-639 -336 -1153 -768q236 -190 680 -563q27 -22 133 -117q33 -36 33 -72q0 -6 -4 -26q-13 -45 -51 -91q-47 -59 -80 -59 q-29 0 -99 82q-395 435 -753 643q-13 6 -35 16.5t-40 19.5l-34 17q-67 40 -67 86z" />
<glyph unicode="=" horiz-adv-x="1511" d="M158 580q0 14 4 38q16 61 104 70q45 2 133 2q238 8 404 35q51 7 237 63q183 52 203 52q39 0 60 -43q16 -43 16 -88q0 -17 -4 -41q-10 -36 -49 -54q-70 -31 -494 -92q-411 -61 -514 -61q-43 0 -71.5 35t-28.5 84zM166 1004q0 24 6 45q12 46 59 61q27 9 183 12 q55 1 104.5 2t72.5 1.5t25 0.5q177 12 435 88q193 54 200 54q72 0 72 -123q0 -33 -2 -47q-9 -34 -51 -56q-57 -28 -490 -92q-418 -61 -514 -61q-48 0 -74 32.5t-26 82.5z" />
<glyph unicode="&#x3e;" horiz-adv-x="1538" d="M-117 -16q0 75 82 139l201 117q304 178 981 563q-258 383 -660 704q-62 43 -163 131q-15 19 -9 41q12 48 72 84q62 35 109 35q36 0 69.5 -21.5t77.5 -68.5q23 -27 72 -76l340 -348q169 -180 327 -358q31 2 46.5 -28t15.5 -91q0 -21 -4 -45q-15 -56 -111 -103l-149 -59 q-455 -206 -951 -541l-149 -104q-119 -82 -143 -82q-54 0 -54 111z" />
<glyph unicode="?" horiz-adv-x="1589" d="M-29 150q0 56 68 198q24 53 154 53q103 0 94 -30q-3 -17 -56 -113q-51 -94 -65 -111q-28 -38 -117 -38q-78 0 -78 41zM199 711q70 272 112 297q13 8 221 8q425 0 605 127q135 93 163 194q9 27 9 56q0 119 -150 192q-126 66 -264 66q-115 0 -258 -64q-90 -36 -223 -110 q-107 -64 -125 -64q-35 0 -17 68q25 91 95 143q143 107 358 178q210 66 375 66q207 0 368 -103q181 -114 181 -299q0 -50 -15 -102q-37 -137 -182 -252q-325 -252 -999 -299q-43 -88 -60 -108q-37 -43 -110 -43q-99 0 -84 49z" />
<glyph unicode="@" horiz-adv-x="1992" d="M43 469q0 93 25 199q110 397 501 727q409 344 795 344q254 0 412 -158q157 -157 157 -397q0 -101 -26 -199q-105 -390 -502 -725q-407 -340 -797 -340q-257 0 -413 156q-152 152 -152 393zM315 569q0 -192 95 -319q104 -137 292 -137q161 0 353 98q439 220 553 649 q26 98 26 201q0 194 -94 319q-105 138 -297 138q-157 0 -350 -99q-433 -217 -551 -647q-27 -102 -27 -203zM487 457q0 141 222 368q183 183 397 183q56 0 139 -17q2 10 2 33q0 98 -106 98q-45 0 -152 -22q-112 -23 -149 -23q-101 0 -101 82q0 11 4 31q14 53 201 88 q138 25 248 25q147 0 182 -35q37 -34 37 -125q0 -54 -49 -318l-27 -112q-53 -205 -227 -318q-162 -104 -369 -104q-102 0 -172 37q-80 47 -80 129zM670 575q0 -47 59 -77q55 -25 107 -25q106 0 204 64q111 71 111 170q0 51 -30 90t-72 39q-75 0 -226 -91q-153 -95 -153 -170 z" />
<glyph unicode="A" d="M-162 121q0 20 6 35q8 31 82 114l105 113q203 244 436 596l393 612q68 105 182 105q55 0 70 -54q12 -46 18 -129q6 -124 9 -133q59 -561 186 -954l41 -115q25 -72 25 -100q0 -7 -2 -12q-14 -50 -80 -97q-62 -45 -117 -45q-54 0 -78 109q-15 93 -22 156 q-441 -99 -977 -193q-114 -164 -166 -164q-48 0 -79.5 47t-31.5 109zM301 395q412 66 752 178l-123 766q-117 -165 -629 -944z" />
<glyph unicode="B" horiz-adv-x="1611" d="M18 66q-1 4 -1 12q0 102 198 899q-6 -2 -16 -2q-58 0 -58 86q0 26 6 53q25 98 224 266q163 134 301 205q192 98 401 98q199 0 320 -86q125 -91 125 -262q0 -65 -21 -139q-64 -237 -424 -424q121 -39 201 -113q102 -95 102 -200q0 -37 -8 -64q-52 -198 -438 -319 q-239 -72 -676 -72q-95 0 -135 4q-86 13 -101 58zM268 250q240 -17 371 -17q305 0 422 60q113 58 113 121q0 87 -193 145q-145 45 -274 45q-210 0 -406 -123q-21 -123 -33 -231zM367 782q562 15 768 179q172 138 172 264q0 99 -115 161q-98 48 -215 48q-218 0 -496 -224 q-58 -197 -114 -428z" />
<glyph unicode="C" horiz-adv-x="1572" d="M-29 383q0 85 29 195q126 468 578 794q437 314 911 314q104 0 104 -52l-22 -110q-5 -20 -5 -60q0 -17 1 -39q1 -21 1 -38q0 -40 -5 -60q-15 -51 -90 -96q-74 -47 -127 -47q-43 0 -43 98q0 19 3 66.5t3 52.5q-474 -71 -779 -338q-134 -116 -225 -244q-119 -168 -119 -297 q0 -117 97 -186q91 -66 223 -66q140 0 364 82q136 49 353 152q171 82 188 82q29 0 29 -39q0 -19 -1.5 -28.5t-8.5 -31.5t-27.5 -44.5t-54.5 -45.5l-111 -63q-542 -322 -889 -322q-189 0 -287 107q-90 96 -90 264z" />
<glyph unicode="D" horiz-adv-x="1671" d="M-33 47q0 67 228 987q-15 26 -15 61q0 22 6 46q14 54 72 112q15 15 111 90q432 330 809 330q229 0 370 -141q142 -142 142 -361q0 -86 -25 -178q-99 -366 -528 -626q-344 -210 -783 -293q-90 -15 -225 -39l-121 -29q-41 0 -41 41zM236 270q375 34 667 166 q401 182 483 492q17 73 17 125q0 162 -113 266t-286 104q-262 0 -562 -227q-157 -485 -206 -926z" />
<glyph unicode="E" horiz-adv-x="1503" d="M-31 43q-1 4 -1 11q0 84 132 632q-53 21 -53 86q0 49 31.5 93t79.5 63h2q44 200 102 420q7 38 37 122q22 43 61 66q29 18 111 41l274 80q147 39 273 39h82q21 1 39 1q68 0 106 -9q69 -15 105 -76q26 -41 26 -78q0 -15 -4 -29q-18 -66 -139 -75q-300 -24 -383 -39 q-153 -25 -389 -115q-39 -114 -86 -287q497 137 872 137q73 0 113 -6q52 -6 96 -45q45 -35 45 -72q0 -8 -2 -16q-12 -52 -149 -67q-660 -73 -1039 -189q-60 -254 -86 -479q182 0 437 47l442 90q36 8 61 8q68 0 68 -45q0 -50 -55 -108q-46 -52 -95 -76q-181 -91 -487 -145 q-249 -43 -485 -43q-121 0 -142 63z" />
<glyph unicode="F" horiz-adv-x="1386" d="M-53 45q-6 49 137 635q-51 15 -51 86q0 53 31 100.5t79 57.5l101 411l28 107q23 57 72 88q29 18 113 41q71 20 150.5 42.5t115 32.5t47.5 13q149 31 313 31q107 0 148 -9q65 -17 102 -73q27 -41 27 -79q0 -14 -4 -28q-18 -69 -142 -78q-263 -19 -383 -39 q-157 -26 -389 -114q-52 -161 -82 -281q454 131 801 131q65 0 105 -6q37 -6 82 -41q45 -33 45 -76q0 -24 -19 -43q-32 -32 -125 -41q-588 -64 -954 -182q-33 -152 -53 -309q-12 -133 -41 -305q-15 -52 -80 -82q-55 -27 -111 -27q-54 0 -63 37z" />
<glyph unicode="G" horiz-adv-x="1787" d="M-43 375q0 89 31 207q125 461 577 784q434 309 905 309q87 0 103 -28q2 -4 2 -13q0 -27 -19 -100q-9 -38 -9 -88q0 -14 1 -29q1 -14 1 -27q0 -49 -9 -87q-8 -35 -88 -84q-74 -45 -123 -45q-38 0 -41 92v11q0 27 2 116q-416 -65 -708 -285q-153 -120 -269 -262 q-147 -188 -147 -334q0 -111 82 -178.5t209 -67.5q177 0 454 96q288 104 437 224l43 37q20 20 26 41q2 7 2 13q0 25 -31 40q-39 18 -126 18q-174 0 -570 -76q-25 -6 -72 -15.5t-63 -12.5q-90 -19 -131 -19q-45 0 -45 37q0 54 76 127q68 64 123 90q81 38 329 66 q206 22 330 22q438 0 438 -161q0 -155 -366 -404q-585 -389 -967 -389q-194 0 -295 104q-92 100 -92 271z" />
<glyph unicode="H" horiz-adv-x="1523" d="M16 37v9q0 31 15 95q14 70 26 113l117 592q70 367 131 594q22 73 88 119q64 40 137 40q74 0 74 -49q0 -11 -59 -188q-65 -187 -123 -404q396 117 768 138l88 346q21 81 33 104q21 63 67 92q70 48 166 48q62 0 62 -39q0 -13 -2 -19v-2l-7 -10l-12 -35l-49 -131 q-59 -160 -119 -352q42 -12 76 -39q45 -33 45 -74q0 -86 -178 -86q-92 -355 -117 -524q-3 -54 -22 -187q-12 -48 -78 -79q-59 -27 -109 -27q-62 0 -65 45v12q0 53 22 142l45 159q23 110 101 434q-438 -60 -779 -176q-54 -235 -71 -409q-3 -74 -23 -197q-9 -41 -82 -69 q-58 -27 -106 -27q-57 0 -60 41z" />
<glyph unicode="I" horiz-adv-x="1216" d="M-102 82q0 26 8 47q27 104 160 104q14 0 57.5 -3t54.5 -3q76 0 135 6q74 379 267 1123q-247 -96 -277 -96q-63 0 -63 98q0 154 120 215q284 139 650 139q140 0 196 -20q102 -30 111 -127q2 -24 -4.5 -48t-18.5 -34q-26 -33 -123 -39q-249 -19 -356 -29 q-213 -619 -268 -1147l194 51q118 33 195 33q47 0 47 -35q0 -34 -47 -90q-47 -53 -86 -73q-135 -70 -393 -117q-222 -43 -396 -43q-163 0 -163 88z" />
<glyph unicode="J" horiz-adv-x="1734" d="M80 604q0 104 29 223q27 111 151 111q59 0 59 -92q0 -16 -2 -35q-10 -92 -10 -135q0 -166 82 -260q121 -142 324 -142q166 0 315 88q158 93 238 250q55 107 106 301q84 316 84 451q0 40 -8 53q-14 33 -84 33q-65 0 -211 -31q-141 -30 -190 -30q-33 0 -33 32q0 11 4 25 q40 143 147 186q155 58 459 58q161 0 205 -41q27 -30 27 -97q-3 -111 -58 -321q-93 -356 -280 -676q-134 -236 -361 -381q-223 -143 -467 -143q-249 0 -393 170q-133 157 -133 403z" />
<glyph unicode="K" horiz-adv-x="1536" d="M-12 87q0 48 139 626q131 546 172 698q8 34 33 107q27 62 94 96q56 33 127 33q43 0 60 -14.5t10 -43.5q-21 -51 -95 -254q-82 -228 -153 -495v-4l4 -2q976 731 1081 757q42 11 78 11q107 0 107 -52q0 -7 -3 -16q-11 -32 -114 -102q-17 -11 -524 -390q-372 -280 -484 -368 q276 -267 588 -416l80 -37q30 -13 44 -26.5t11 -24.5q-9 -42 -102 -76q-79 -33 -129 -33q-38 0 -400 140q-212 83 -336 207q-11 -100 -38 -258q-12 -48 -76 -82q-58 -25 -109 -25q-65 0 -65 44z" />
<glyph unicode="L" horiz-adv-x="1372" d="M-20 98q-1 4 -1 10q0 80 121 592q121 505 162 662q35 128 66 182q55 88 168 88q63 0 63 -39q0 -11 -76 -227q-195 -578 -245 -1061q218 0 397 33q55 9 283 63q207 52 258 52q67 0 67 -50q0 -45 -53 -104q-43 -52 -94 -78q-153 -81 -461 -139q-285 -53 -465 -53 q-172 0 -190 69z" />
<glyph unicode="M" horiz-adv-x="1906" d="M-158 133q0 13 4 33q11 32 60 104q40 52 78 105q169 242 350 573q59 109 311 582q58 104 137 104q47 0 47 -121q0 -9 -4 -67q-2 -27 -2 -45q-1 -40 -1 -83q0 -321 59 -810q196 320 430 768q70 143 190 375q59 102 135 102q47 0 47 -137q0 -21 -4 -107q-6 -71 -6 -73 q-5 -164 -5 -311q0 -400 36 -676q27 -228 27 -238q0 -37 -82 -109q-66 -57 -115 -57q-25 0 -37 21q-12 30 -24 516l-13 589q-320 -576 -346 -622q-288 -517 -313 -543q-37 -37 -66 -37q-36 0 -57 49q-19 43 -19 99q0 49 15 84l-37 907l-551 -940q-18 -33 -102 -162 q-29 -39 -58 -39q-36 0 -61 60q-23 57 -23 106z" />
<glyph unicode="N" horiz-adv-x="1628" d="M-74 1q0 36 135 605q133 552 156 643q49 172 74 215q59 92 205 92q51 0 65 -26l594 -1002l168 531q61 208 176 536q49 119 203 119q53 0 53 -47q0 -27 -51 -141q-191 -418 -315 -887q-53 -201 -70 -299q-4 -32 -25 -160q-34 -129 -207 -129q-59 0 -59 31l4 12l-616 1000 q-64 -190 -111 -363q-80 -301 -108 -514q-2 -36 -19 -158q-11 -41 -78 -77q-58 -27 -108 -27q-66 0 -66 46z" />
<glyph unicode="O" horiz-adv-x="1976" d="M39 565q0 94 29 213q106 389 487 672q375 281 764 281q279 0 455 -164q174 -162 174 -422q0 -95 -29 -211q-106 -391 -487 -674q-374 -278 -766 -278q-285 0 -455 161q-172 163 -172 422zM336 659q0 -211 125 -348q128 -143 346 -143q260 0 496 211q225 197 296 463 q27 92 27 184q0 211 -125 348q-131 146 -346 146q-262 0 -498 -211q-226 -201 -297 -467q-24 -92 -24 -183z" />
<glyph unicode="P" horiz-adv-x="1472" d="M-63 31q-1 2 -1 7q0 81 228 984q-12 27 -12 58q0 26 8 55q27 103 264 278q372 275 684 275q189 0 315 -111q129 -108 129 -281q0 -54 -16 -120q-88 -330 -551 -537q-324 -148 -754 -203q-5 -104 -41 -336q-12 -46 -81 -75q-63 -29 -107 -29q-47 0 -65 35zM274 662 q593 18 809 204q193 163 193 310q0 114 -121 188q-104 66 -233 66q-218 0 -504 -226q-92 -295 -144 -542z" />
<glyph unicode="Q" horiz-adv-x="1937" d="M4 553q0 109 33 221q101 388 481 674q375 281 764 281q283 0 457 -162q176 -159 176 -418q0 -93 -29 -209q-100 -370 -450 -649q89 -44 96 -49q56 -35 56 -67q0 -5 -1 -9q-7 -28 -48.5 -51t-74.5 -23q-44 0 -209 76q-302 -180 -616 -180q-287 0 -463 153 q-172 153 -172 412zM299 655q0 -207 123 -342q132 -141 346 -141q152 0 315 82q-389 214 -389 448q0 33 8 60q11 40 48 96q45 66 77 66q15 0 41 -29l197 -262q115 -148 225 -236q303 275 303 625q0 211 -116 348q-127 148 -338 148q-269 0 -508 -205q-235 -200 -305 -471 q-27 -94 -27 -187z" />
<glyph unicode="R" horiz-adv-x="1517" d="M8 41q-1 3 -1 9q0 97 218 956q-69 21 -69 110q0 61 86 144q451 421 864 421q201 0 336 -102q143 -110 143 -289q0 -63 -14 -123q-76 -271 -420 -465q-257 -145 -598 -215q240 -165 434 -215q13 -2 68 -16q39 -18 30 -49q-10 -34 -52 -62t-79 -28q-136 0 -352 73 q-187 60 -319 138q-3 -67 -25 -230q-15 -46 -76 -73q-55 -25 -102 -25q-63 0 -72 41zM342 670q579 15 799 202q192 162 192 314q0 114 -114 188q-101 64 -232 64q-216 0 -502 -226q-89 -285 -143 -542z" />
<glyph unicode="S" horiz-adv-x="1759" d="M-10 373q0 49 12 96q24 92 74 92q53 0 76 -57l36 -96q82 -175 392 -175q190 0 364 76q197 85 307 246q52 76 52 117q0 36 -48 55q-142 64 -469 82q-332 12 -503 20q-127 12 -127 101q0 30 12 76q27 107 252 301q487 422 1046 422q72 -1 90 -19q13 -13 13 -42 q0 -13 -2 -28q-3 -85 -23 -227q-12 -41 -96 -88q-77 -41 -123 -41q-39 0 -39 160q-23 2 -65 2q-366 0 -666 -283q-26 -22 -55 -65q-2 -8 8.5 -13.5t34 -8.5t59.5 -3l123 4h-2q165 0 471 -22q348 -27 438 -66q39 -14 39 -76q0 -81 -45 -161q-185 -327 -575 -541 q-373 -209 -725 -209q-132 0 -191 41q-65 47 -105 139t-40 191z" />
<glyph unicode="T" horiz-adv-x="1241" d="M150 1352q0 141 133 200q336 140 796 140q143 0 213 -21q111 -35 129 -127q3 -14 3 -26q0 -34 -27 -58q-37 -30 -142 -37q-214 -9 -403 -24q-214 -632 -268 -1114q-3 -61 -21 -181q-9 -42 -82 -69q-59 -27 -104 -27q-62 0 -62 44q0 103 308 1302l-201 -66 q-143 -49 -184 -49q-88 0 -88 113z" />
<glyph unicode="U" horiz-adv-x="1550" d="M-29 109q0 25 15 71q24 76 24 80l6 25q88 410 250 1071q43 161 78 207q63 84 199 84q67 0 67 -41q0 -24 -35 -111q-1 -3 -47 -115q-91 -243 -206 -673q-70 -253 -70 -332q0 -37 41 -37q89 0 393 111q256 94 408 163q104 462 178 752q43 147 78 195q66 90 188 90 q45 0 64.5 -15.5t11.5 -44.5q-57 -147 -101 -270q-189 -515 -251 -961q-5 -58 -31 -208q-12 -45 -80 -80q-55 -27 -107 -27q-65 0 -65 45q0 27 57 260q-199 -97 -497 -194q-338 -109 -484 -109q-84 0 -84 64z" />
<glyph unicode="V" horiz-adv-x="1253" d="M219 1405q0 135 6 156q27 98 168 98q64 0 64 -105q0 -46 -8 -98q-3 -21 -5.5 -40t-4 -27t-1.5 -9q-16 -187 -16 -358q0 -307 43 -614l317 510l170 282q115 183 185 268q70 88 172 88q33 0 63 -12q37 -18 31 -49q-7 -24 -82 -121l-102 -131q-320 -431 -553 -936 q-24 -69 -99 -215q-41 -59 -159 -59q-111 0 -138 61q-14 32 -32 535q-19 510 -19 776z" />
<glyph unicode="W" horiz-adv-x="1949" d="M213 1473q12 48 82 106q71 59 117 59q23 0 34 -20q20 -41 23 -238v1v1v1v1v1v1v1v1v1v1v1v1v1v1v1v1v1v1v1v1v1v1v1v1v1v1v1v1v1v1v1v1v1v1v-1v-1v-1v-1v-1v-1v-1v-1v-1v-1v-1v-1v-1v-1v-1v-1v-1v-1v-1v-1v-1v-1v-1v-1v-1v-1v-1v-1v-1v-1v-1v-1v-1v-1v-1v-1v-1v-1v-1v-1 v-1v-1v-1v-1v-1v-1v-1v-1v-1v-1v-1v-1v-1v-1v-1v-1v-1v-1v-1v-1v-1v-1v-1v-1v-1v-1v-1v-1v-1v-1v-1v-1v-1v-1v-1v-1v-1v-1v-1v-1v-1v-1v-1v-1v-1v-1v-1v-1v-1v-1v-1v-1v-1v-1v-1v-1v-1v-1v-1v-1v-1v-1v-1v-1v-1v-1v-1v-1v-1v-1v-1v-1v-1v-1v-1v-1v-1v-1v-1v-1v-1v-1v-1v-1 v-1v-1v-1v-1v-1v-1v-1v-1v-1v-1v-1v-1v-1v-1v-1v-1v-1v-1v-1v-1v-1v-1v-1v-1v-1v-1v-1v-1v-1v-1v-1v-1v-1v-1v-1v-1v-1v-1v-1v-1v-1v-1v-1v-1v-1v-1v-1v-1v-1v-1v-1v-1v-1v-1v-1v-1v-1v-1v-1v-1v-1v-1v-1v-1v-1v-1v-1v-1v-1v-1v-1v-1v-1v-1v-1v-1v-1v-1v-1v-1v-1v-1v-1v-1 v-1v-1v-1v-1v-1v-1v-1v-1v-1v-1v-1v-1v-1v-1v-1v-1v-1v-1v-1v-1v-1v-1v-1v-1v-1v-1v-1v-1v-1v-1v-1v-1v-1v-1v-1v-1v-1v-1v-1v-1v-1v-1v-1v-1v-1v-1v-1v-1v-1v-1v-1v-1v-1v-1v-1v-1v-1v-1v-1v-1v-1v-1v-1v-1v-1v-1v-1v-1v-1v-1v-1v-1v-1v-1v-1v-1v-1v-1v-10q0 -258 14 -608 q154 276 498 805q129 196 213 196q36 0 45 -59q1 -3 4 -94q0 -34 31 -336q25 -264 35 -447q100 179 569 973q25 49 82 129q33 39 57 39q36 0 61 -53t25 -113q0 -17 -4 -37q-3 -14 -141 -208q-165 -238 -348 -572q-1 0 -312 -581q-58 -105 -135 -105q-32 0 -41 57 q-5 20 -8 271q-3 131 -31 342l-43 336q-321 -515 -598 -1020q-59 -103 -137 -103q-30 0 -38 48q-5 29 -5 74q0 28 2 63l6 131q2 123 2 235q0 508 -34 768l-19 115q-7 66 -7 94q0 10 1 15z" />
<glyph unicode="X" horiz-adv-x="1417" d="M-33 84q0 10 2 16q10 30 598 729l-157 299q-96 182 -136 314q-8 25 -8 52q0 23 6 48q14 45 56 100q51 60 94 60q28 0 43 -27q24 -34 41 -96l33 -106q86 -239 190 -451l260 309q159 185 275 301q58 58 131 58q48 0 90 -25q47 -27 47 -72q0 -23 -23 -53q0 -3 -123 -123 q-262 -256 -561 -588l93 -172q57 -96 104 -161q45 -48 111 -148q9 -23 0 -57q-11 -49 -66 -113q-55 -67 -102 -67q-17 0 -29 12q-36 31 -76 115l-57 129q-39 70 -141 272q-229 -271 -330 -410q-27 -43 -133 -182q-39 -45 -107 -45q-43 0 -80 21q-45 20 -45 61z" />
<glyph unicode="Y" horiz-adv-x="1466" d="M131 88q0 12 2 18q4 13 442 545l-176 363q-38 78 -96 188q-55 111 -86 195q-9 31 -9 58q0 20 5 38q8 37 66 104q55 64 96 64q19 0 35 -31l51 -143q112 -331 276 -643l484 563q65 80 202 229q64 58 136 58q50 0 93.5 -28t43.5 -69q0 -12 -2 -18q-9 -27 -129 -147 q-23 -23 -49 -48t-58.5 -56t-50.5 -48q-532 -538 -875 -999q-53 -74 -120 -175q-81 -100 -168 -100q-40 0 -76.5 24.5t-36.5 57.5z" />
<glyph unicode="Z" horiz-adv-x="1540" d="M-111 158q0 49 45 100q20 30 89 92q61 53 96 86q276 264 1024 961q-35 2 -99 2q-281 0 -600 -68q-28 -4 -38 -4q-99 0 -99 96q0 56 33 103q52 79 328 123q182 24 348 24q182 0 315 -26q230 -46 230 -150q0 -52 -68 -117q-39 -39 -117 -98l-123 -90q-557 -444 -1013 -928 q88 -8 209 -8q205 0 743 51q62 4 65 4q89 0 89 -45q0 -47 -62 -94q-49 -40 -102 -55q-287 -90 -830 -90q-222 0 -274 8q-189 24 -189 123z" />
<glyph unicode="[" horiz-adv-x="1130" d="M-121 -129q0 64 29 111l155 690q76 326 173 692l73 258q65 204 94 246q52 67 121 67q88 0 160 2h160q396 0 422 -20q31 -19 16 -72q-14 -48 -45 -98q-41 -66 -82 -66q-53 0 -168 31q-112 31 -178 31q-57 0 -207 -17q-161 -460 -262 -835q-37 -141 -98 -457 q-54 -291 -97 -452q130 -13 187 -13q61 0 196 29t185 29q47 0 47 -90q0 -42 -8 -66q-15 -57 -52 -78q-44 -20 -436 -20h-158q-72 2 -157 2q-70 0 -70 96z" />
<glyph unicode="\" horiz-adv-x="1413" d="M262 1595q0 56 66 91q58 30 116 30q77 0 117 -61q36 -53 60 -117q6 -18 21.5 -60t23.5 -65q145 -339 415 -1063q10 -25 30 -71t28 -66q41 -109 32 -135q-9 -35 -71 -62q-50 -20 -94 -20q-66 0 -93 49q-20 46 -34 107q-6 29 -12.5 54.5t-10 40t-4.5 17.5 q-174 572 -530 1194q-60 111 -60 137z" />
<glyph unicode="]" horiz-adv-x="1187" d="M-133 -129q11 44 43 94q41 62 78 62q46 0 168 -29t184 -29q60 0 190 13q32 117 144 446q91 260 143 451q116 425 193 847q-139 17 -199 17q-69 0 -199 -31t-180 -31q-49 0 -49 86q0 37 10 70q15 62 53 80q39 20 441 20h155q72 -2 158 -2q69 0 84 -65q14 -68 -88 -453 q-64 -238 -281 -946l-143 -477q-3 -9 -9 -42t-9 -42q-11 -41 -47 -86q-43 -49 -84 -49h-154q-70 -2 -156 -2q-410 0 -436 20q-25 19 -10 78z" />
<glyph unicode="^" horiz-adv-x="876" d="M213 1407q3 21 49 61q226 201 318 336q47 68 88 68q21 0 45.5 -15.5t25.5 -33.5q26 -43 160 -293q45 -80 39 -109q-7 -24 -37 -53t-57 -29q-31 0 -49 58q-54 157 -156 293l-268 -283q-58 -61 -95 -61q-23 0 -45 16q-27 21 -18 45z" />
<glyph unicode="_" horiz-adv-x="1626" d="M-172 -125q0 22 10 64q15 63 82 63q85 0 352 -27q202 -18 383 -18q103 0 383 29q156 18 174 18q97 0 97 -117q0 -21 -6 -45q-14 -55 -76 -71q-32 -6 -150 -9q-200 -8 -391 -8h-252q-314 0 -477 15q-129 9 -129 106z" />
<glyph unicode="`" horiz-adv-x="774" d="M270 1663q0 25 15 59q20 45 63 82q50 44 88 35q26 -3 191 -168q152 -152 186 -198q34 -42 12 -84q-15 -40 -51 -68q-42 -36 -76 -27q-30 5 -75 47t-166 129q-101 75 -162 136q-25 28 -25 57z" />
<glyph unicode="a" d="M-162 121q0 20 6 35q8 31 82 114l105 113q203 244 436 596l393 612q68 105 182 105q55 0 70 -54q12 -46 18 -129q6 -124 9 -133q59 -561 186 -954l41 -115q25 -72 25 -100q0 -7 -2 -12q-14 -50 -80 -97q-62 -45 -117 -45q-54 0 -78 109q-15 93 -22 156 q-441 -99 -977 -193q-114 -164 -166 -164q-48 0 -79.5 47t-31.5 109zM301 395q412 66 752 178l-123 766q-117 -165 -629 -944z" />
<glyph unicode="b" horiz-adv-x="1611" d="M18 66q-1 4 -1 12q0 102 198 899q-6 -2 -16 -2q-58 0 -58 86q0 26 6 53q25 98 224 266q163 134 301 205q192 98 401 98q199 0 320 -86q125 -91 125 -262q0 -65 -21 -139q-64 -237 -424 -424q121 -39 201 -113q102 -95 102 -200q0 -37 -8 -64q-52 -198 -438 -319 q-239 -72 -676 -72q-95 0 -135 4q-86 13 -101 58zM268 250q240 -17 371 -17q305 0 422 60q113 58 113 121q0 87 -193 145q-145 45 -274 45q-210 0 -406 -123q-21 -123 -33 -231zM367 782q562 15 768 179q172 138 172 264q0 99 -115 161q-98 48 -215 48q-218 0 -496 -224 q-58 -197 -114 -428z" />
<glyph unicode="c" horiz-adv-x="1572" d="M-29 383q0 85 29 195q126 468 578 794q437 314 911 314q104 0 104 -52l-22 -110q-5 -20 -5 -60q0 -17 1 -39q1 -21 1 -38q0 -40 -5 -60q-15 -51 -90 -96q-74 -47 -127 -47q-43 0 -43 98q0 19 3 66.5t3 52.5q-474 -71 -779 -338q-134 -116 -225 -244q-119 -168 -119 -297 q0 -117 97 -186q91 -66 223 -66q140 0 364 82q136 49 353 152q171 82 188 82q29 0 29 -39q0 -19 -1.5 -28.5t-8.5 -31.5t-27.5 -44.5t-54.5 -45.5l-111 -63q-542 -322 -889 -322q-189 0 -287 107q-90 96 -90 264z" />
<glyph unicode="d" horiz-adv-x="1671" d="M-33 47q0 67 228 987q-15 26 -15 61q0 22 6 46q14 54 72 112q15 15 111 90q432 330 809 330q229 0 370 -141q142 -142 142 -361q0 -86 -25 -178q-99 -366 -528 -626q-344 -210 -783 -293q-90 -15 -225 -39l-121 -29q-41 0 -41 41zM236 270q375 34 667 166 q401 182 483 492q17 73 17 125q0 162 -113 266t-286 104q-262 0 -562 -227q-157 -485 -206 -926z" />
<glyph unicode="e" horiz-adv-x="1503" d="M-31 43q-1 4 -1 11q0 84 132 632q-53 21 -53 86q0 49 31.5 93t79.5 63h2q44 200 102 420q7 38 37 122q22 43 61 66q29 18 111 41l274 80q147 39 273 39h82q21 1 39 1q68 0 106 -9q69 -15 105 -76q26 -41 26 -78q0 -15 -4 -29q-18 -66 -139 -75q-300 -24 -383 -39 q-153 -25 -389 -115q-39 -114 -86 -287q497 137 872 137q73 0 113 -6q52 -6 96 -45q45 -35 45 -72q0 -8 -2 -16q-12 -52 -149 -67q-660 -73 -1039 -189q-60 -254 -86 -479q182 0 437 47l442 90q36 8 61 8q68 0 68 -45q0 -50 -55 -108q-46 -52 -95 -76q-181 -91 -487 -145 q-249 -43 -485 -43q-121 0 -142 63z" />
<glyph unicode="f" horiz-adv-x="1386" d="M-53 45q-6 49 137 635q-51 15 -51 86q0 53 31 100.5t79 57.5l101 411l28 107q23 57 72 88q29 18 113 41q71 20 150.5 42.5t115 32.5t47.5 13q149 31 313 31q107 0 148 -9q65 -17 102 -73q27 -41 27 -79q0 -14 -4 -28q-18 -69 -142 -78q-263 -19 -383 -39 q-157 -26 -389 -114q-52 -161 -82 -281q454 131 801 131q65 0 105 -6q37 -6 82 -41q45 -33 45 -76q0 -24 -19 -43q-32 -32 -125 -41q-588 -64 -954 -182q-33 -152 -53 -309q-12 -133 -41 -305q-15 -52 -80 -82q-55 -27 -111 -27q-54 0 -63 37z" />
<glyph unicode="g" horiz-adv-x="1787" d="M-43 375q0 89 31 207q125 461 577 784q434 309 905 309q87 0 103 -28q2 -4 2 -13q0 -27 -19 -100q-9 -38 -9 -88q0 -14 1 -29q1 -14 1 -27q0 -49 -9 -87q-8 -35 -88 -84q-74 -45 -123 -45q-38 0 -41 92v11q0 27 2 116q-416 -65 -708 -285q-153 -120 -269 -262 q-147 -188 -147 -334q0 -111 82 -178.5t209 -67.5q177 0 454 96q288 104 437 224l43 37q20 20 26 41q2 7 2 13q0 25 -31 40q-39 18 -126 18q-174 0 -570 -76q-25 -6 -72 -15.5t-63 -12.5q-90 -19 -131 -19q-45 0 -45 37q0 54 76 127q68 64 123 90q81 38 329 66 q206 22 330 22q438 0 438 -161q0 -155 -366 -404q-585 -389 -967 -389q-194 0 -295 104q-92 100 -92 271z" />
<glyph unicode="h" horiz-adv-x="1523" d="M16 37v9q0 31 15 95q14 70 26 113l117 592q70 367 131 594q22 73 88 119q64 40 137 40q74 0 74 -49q0 -11 -59 -188q-65 -187 -123 -404q396 117 768 138l88 346q21 81 33 104q21 63 67 92q70 48 166 48q62 0 62 -39q0 -13 -2 -19v-2l-7 -10l-12 -35l-49 -131 q-59 -160 -119 -352q42 -12 76 -39q45 -33 45 -74q0 -86 -178 -86q-92 -355 -117 -524q-3 -54 -22 -187q-12 -48 -78 -79q-59 -27 -109 -27q-62 0 -65 45v12q0 53 22 142l45 159q23 110 101 434q-438 -60 -779 -176q-54 -235 -71 -409q-3 -74 -23 -197q-9 -41 -82 -69 q-58 -27 -106 -27q-57 0 -60 41z" />
<glyph unicode="i" horiz-adv-x="579" d="M-4 104q0 16 39 160l8 35q80 353 283 1174q46 172 243 172q68 0 68 -41q0 -23 -47 -138l-58 -147q-94 -266 -149 -469q-83 -314 -111 -516q-2 -47 -26 -197q-12 -41 -80 -71q-64 -23 -107 -23q-63 0 -63 61z" />
<glyph unicode="j" horiz-adv-x="1734" d="M80 604q0 104 29 223q27 111 151 111q59 0 59 -92q0 -16 -2 -35q-10 -92 -10 -135q0 -166 82 -260q121 -142 324 -142q166 0 315 88q158 93 238 250q55 107 106 301q84 316 84 451q0 40 -8 53q-14 33 -84 33q-65 0 -211 -31q-141 -30 -190 -30q-33 0 -33 32q0 11 4 25 q40 143 147 186q155 58 459 58q161 0 205 -41q27 -30 27 -97q-3 -111 -58 -321q-93 -356 -280 -676q-134 -236 -361 -381q-223 -143 -467 -143q-249 0 -393 170q-133 157 -133 403z" />
<glyph unicode="k" horiz-adv-x="1536" d="M-12 87q0 48 139 626q131 546 172 698q8 34 33 107q27 62 94 96q56 33 127 33q43 0 60 -14.5t10 -43.5q-21 -51 -95 -254q-82 -228 -153 -495v-4l4 -2q976 731 1081 757q42 11 78 11q107 0 107 -52q0 -7 -3 -16q-11 -32 -114 -102q-17 -11 -524 -390q-372 -280 -484 -368 q276 -267 588 -416l80 -37q30 -13 44 -26.5t11 -24.5q-9 -42 -102 -76q-79 -33 -129 -33q-38 0 -400 140q-212 83 -336 207q-11 -100 -38 -258q-12 -48 -76 -82q-58 -25 -109 -25q-65 0 -65 44z" />
<glyph unicode="l" horiz-adv-x="1372" d="M-20 98q-1 4 -1 10q0 80 121 592q121 505 162 662q35 128 66 182q55 88 168 88q63 0 63 -39q0 -11 -76 -227q-195 -578 -245 -1061q218 0 397 33q55 9 283 63q207 52 258 52q67 0 67 -50q0 -45 -53 -104q-43 -52 -94 -78q-153 -81 -461 -139q-285 -53 -465 -53 q-172 0 -190 69z" />
<glyph unicode="m" horiz-adv-x="1906" d="M-158 133q0 13 4 33q11 32 60 104q40 52 78 105q169 242 350 573q59 109 311 582q58 104 137 104q47 0 47 -121q0 -9 -4 -67q-2 -27 -2 -45q-1 -40 -1 -83q0 -321 59 -810q196 320 430 768q70 143 190 375q59 102 135 102q47 0 47 -137q0 -21 -4 -107q-6 -71 -6 -73 q-5 -164 -5 -311q0 -400 36 -676q27 -228 27 -238q0 -37 -82 -109q-66 -57 -115 -57q-25 0 -37 21q-12 30 -24 516l-13 589q-320 -576 -346 -622q-288 -517 -313 -543q-37 -37 -66 -37q-36 0 -57 49q-19 43 -19 99q0 49 15 84l-37 907l-551 -940q-18 -33 -102 -162 q-29 -39 -58 -39q-36 0 -61 60q-23 57 -23 106z" />
<glyph unicode="n" horiz-adv-x="1628" d="M-74 1q0 36 135 605q133 552 156 643q49 172 74 215q59 92 205 92q51 0 65 -26l594 -1002l168 531q61 208 176 536q49 119 203 119q53 0 53 -47q0 -27 -51 -141q-191 -418 -315 -887q-53 -201 -70 -299q-4 -32 -25 -160q-34 -129 -207 -129q-59 0 -59 31l4 12l-616 1000 q-64 -190 -111 -363q-80 -301 -108 -514q-2 -36 -19 -158q-11 -41 -78 -77q-58 -27 -108 -27q-66 0 -66 46z" />
<glyph unicode="o" horiz-adv-x="1976" d="M39 565q0 94 29 213q106 389 487 672q375 281 764 281q279 0 455 -164q174 -162 174 -422q0 -95 -29 -211q-106 -391 -487 -674q-374 -278 -766 -278q-285 0 -455 161q-172 163 -172 422zM336 659q0 -211 125 -348q128 -143 346 -143q260 0 496 211q225 197 296 463 q27 92 27 184q0 211 -125 348q-131 146 -346 146q-262 0 -498 -211q-226 -201 -297 -467q-24 -92 -24 -183z" />
<glyph unicode="p" horiz-adv-x="1472" d="M-63 31q-1 2 -1 7q0 81 228 984q-12 27 -12 58q0 26 8 55q27 103 264 278q372 275 684 275q189 0 315 -111q129 -108 129 -281q0 -54 -16 -120q-88 -330 -551 -537q-324 -148 -754 -203q-5 -104 -41 -336q-12 -46 -81 -75q-63 -29 -107 -29q-47 0 -65 35zM274 662 q593 18 809 204q193 163 193 310q0 114 -121 188q-104 66 -233 66q-218 0 -504 -226q-92 -295 -144 -542z" />
<glyph unicode="q" horiz-adv-x="1937" d="M4 553q0 109 33 221q101 388 481 674q375 281 764 281q283 0 457 -162q176 -159 176 -418q0 -93 -29 -209q-100 -370 -450 -649q89 -44 96 -49q56 -35 56 -67q0 -5 -1 -9q-7 -28 -48.5 -51t-74.5 -23q-44 0 -209 76q-302 -180 -616 -180q-287 0 -463 153 q-172 153 -172 412zM299 655q0 -207 123 -342q132 -141 346 -141q152 0 315 82q-389 214 -389 448q0 33 8 60q11 40 48 96q45 66 77 66q15 0 41 -29l197 -262q115 -148 225 -236q303 275 303 625q0 211 -116 348q-127 148 -338 148q-269 0 -508 -205q-235 -200 -305 -471 q-27 -94 -27 -187z" />
<glyph unicode="r" horiz-adv-x="1517" d="M8 41q-1 3 -1 9q0 97 218 956q-69 21 -69 110q0 61 86 144q451 421 864 421q201 0 336 -102q143 -110 143 -289q0 -63 -14 -123q-76 -271 -420 -465q-257 -145 -598 -215q240 -165 434 -215q13 -2 68 -16q39 -18 30 -49q-10 -34 -52 -62t-79 -28q-136 0 -352 73 q-187 60 -319 138q-3 -67 -25 -230q-15 -46 -76 -73q-55 -25 -102 -25q-63 0 -72 41zM342 670q579 15 799 202q192 162 192 314q0 114 -114 188q-101 64 -232 64q-216 0 -502 -226q-89 -285 -143 -542z" />
<glyph unicode="s" horiz-adv-x="1759" d="M-10 373q0 49 12 96q24 92 74 92q53 0 76 -57l36 -96q82 -175 392 -175q190 0 364 76q197 85 307 246q52 76 52 117q0 36 -48 55q-142 64 -469 82q-332 12 -503 20q-127 12 -127 101q0 30 12 76q27 107 252 301q487 422 1046 422q72 -1 90 -19q13 -13 13 -42 q0 -13 -2 -28q-3 -85 -23 -227q-12 -41 -96 -88q-77 -41 -123 -41q-39 0 -39 160q-23 2 -65 2q-366 0 -666 -283q-26 -22 -55 -65q-2 -8 8.5 -13.5t34 -8.5t59.5 -3l123 4h-2q165 0 471 -22q348 -27 438 -66q39 -14 39 -76q0 -81 -45 -161q-185 -327 -575 -541 q-373 -209 -725 -209q-132 0 -191 41q-65 47 -105 139t-40 191z" />
<glyph unicode="t" horiz-adv-x="1241" d="M150 1352q0 141 133 200q336 140 796 140q143 0 213 -21q111 -35 129 -127q3 -14 3 -26q0 -34 -27 -58q-37 -30 -142 -37q-214 -9 -403 -24q-214 -632 -268 -1114q-3 -61 -21 -181q-9 -42 -82 -69q-59 -27 -104 -27q-62 0 -62 44q0 103 308 1302l-201 -66 q-143 -49 -184 -49q-88 0 -88 113z" />
<glyph unicode="u" horiz-adv-x="1550" d="M-29 109q0 25 15 71q24 76 24 80l6 25q88 410 250 1071q43 161 78 207q63 84 199 84q67 0 67 -41q0 -24 -35 -111q-1 -3 -47 -115q-91 -243 -206 -673q-70 -253 -70 -332q0 -37 41 -37q89 0 393 111q256 94 408 163q104 462 178 752q43 147 78 195q66 90 188 90 q45 0 64.5 -15.5t11.5 -44.5q-57 -147 -101 -270q-189 -515 -251 -961q-5 -58 -31 -208q-12 -45 -80 -80q-55 -27 -107 -27q-65 0 -65 45q0 27 57 260q-199 -97 -497 -194q-338 -109 -484 -109q-84 0 -84 64z" />
<glyph unicode="v" horiz-adv-x="1253" d="M219 1405q0 135 6 156q27 98 168 98q64 0 64 -105q0 -46 -8 -98q-3 -21 -5.5 -40t-4 -27t-1.5 -9q-16 -187 -16 -358q0 -307 43 -614l317 510l170 282q115 183 185 268q70 88 172 88q33 0 63 -12q37 -18 31 -49q-7 -24 -82 -121l-102 -131q-320 -431 -553 -936 q-24 -69 -99 -215q-41 -59 -159 -59q-111 0 -138 61q-14 32 -32 535q-19 510 -19 776z" />
<glyph unicode="w" horiz-adv-x="1949" d="M213 1473q12 48 82 106q71 59 117 59q23 0 34 -20q20 -41 23 -238v1v1v1v1v1v1v1v1v1v1v1v1v1v1v1v1v1v1v1v1v1v1v1v1v1v1v1v1v1v1v1v1v1v1v-1v-1v-1v-1v-1v-1v-1v-1v-1v-1v-1v-1v-1v-1v-1v-1v-1v-1v-1v-1v-1v-1v-1v-1v-1v-1v-1v-1v-1v-1v-1v-1v-1v-1v-1v-1v-1v-1v-1v-1 v-1v-1v-1v-1v-1v-1v-1v-1v-1v-1v-1v-1v-1v-1v-1v-1v-1v-1v-1v-1v-1v-1v-1v-1v-1v-1v-1v-1v-1v-1v-1v-1v-1v-1v-1v-1v-1v-1v-1v-1v-1v-1v-1v-1v-1v-1v-1v-1v-1v-1v-1v-1v-1v-1v-1v-1v-1v-1v-1v-1v-1v-1v-1v-1v-1v-1v-1v-1v-1v-1v-1v-1v-1v-1v-1v-1v-1v-1v-1v-1v-1v-1v-1v-1 v-1v-1v-1v-1v-1v-1v-1v-1v-1v-1v-1v-1v-1v-1v-1v-1v-1v-1v-1v-1v-1v-1v-1v-1v-1v-1v-1v-1v-1v-1v-1v-1v-1v-1v-1v-1v-1v-1v-1v-1v-1v-1v-1v-1v-1v-1v-1v-1v-1v-1v-1v-1v-1v-1v-1v-1v-1v-1v-1v-1v-1v-1v-1v-1v-1v-1v-1v-1v-1v-1v-1v-1v-1v-1v-1v-1v-1v-1v-1v-1v-1v-1v-1v-1 v-1v-1v-1v-1v-1v-1v-1v-1v-1v-1v-1v-1v-1v-1v-1v-1v-1v-1v-1v-1v-1v-1v-1v-1v-1v-1v-1v-1v-1v-1v-1v-1v-1v-1v-1v-1v-1v-1v-1v-1v-1v-1v-1v-1v-1v-1v-1v-1v-1v-1v-1v-1v-1v-1v-1v-1v-1v-1v-1v-1v-1v-1v-1v-1v-1v-1v-1v-1v-1v-1v-1v-1v-1v-1v-1v-1v-1v-1v-10q0 -258 14 -608 q154 276 498 805q129 196 213 196q36 0 45 -59q1 -3 4 -94q0 -34 31 -336q25 -264 35 -447q100 179 569 973q25 49 82 129q33 39 57 39q36 0 61 -53t25 -113q0 -17 -4 -37q-3 -14 -141 -208q-165 -238 -348 -572q-1 0 -312 -581q-58 -105 -135 -105q-32 0 -41 57 q-5 20 -8 271q-3 131 -31 342l-43 336q-321 -515 -598 -1020q-59 -103 -137 -103q-30 0 -38 48q-5 29 -5 74q0 28 2 63l6 131q2 123 2 235q0 508 -34 768l-19 115q-7 66 -7 94q0 10 1 15z" />
<glyph unicode="x" horiz-adv-x="1417" d="M-33 84q0 10 2 16q10 30 598 729l-157 299q-96 182 -136 314q-8 25 -8 52q0 23 6 48q14 45 56 100q51 60 94 60q28 0 43 -27q24 -34 41 -96l33 -106q86 -239 190 -451l260 309q159 185 275 301q58 58 131 58q48 0 90 -25q47 -27 47 -72q0 -23 -23 -53q0 -3 -123 -123 q-262 -256 -561 -588l93 -172q57 -96 104 -161q45 -48 111 -148q9 -23 0 -57q-11 -49 -66 -113q-55 -67 -102 -67q-17 0 -29 12q-36 31 -76 115l-57 129q-39 70 -141 272q-229 -271 -330 -410q-27 -43 -133 -182q-39 -45 -107 -45q-43 0 -80 21q-45 20 -45 61z" />
<glyph unicode="y" horiz-adv-x="1466" d="M131 88q0 12 2 18q4 13 442 545l-176 363q-38 78 -96 188q-55 111 -86 195q-9 31 -9 58q0 20 5 38q8 37 66 104q55 64 96 64q19 0 35 -31l51 -143q112 -331 276 -643l484 563q65 80 202 229q64 58 136 58q50 0 93.5 -28t43.5 -69q0 -12 -2 -18q-9 -27 -129 -147 q-23 -23 -49 -48t-58.5 -56t-50.5 -48q-532 -538 -875 -999q-53 -74 -120 -175q-81 -100 -168 -100q-40 0 -76.5 24.5t-36.5 57.5z" />
<glyph unicode="z" horiz-adv-x="1540" d="M-111 158q0 49 45 100q20 30 89 92q61 53 96 86q276 264 1024 961q-35 2 -99 2q-281 0 -600 -68q-28 -4 -38 -4q-99 0 -99 96q0 56 33 103q52 79 328 123q182 24 348 24q182 0 315 -26q230 -46 230 -150q0 -52 -68 -117q-39 -39 -117 -98l-123 -90q-557 -444 -1013 -928 q88 -8 209 -8q205 0 743 51q62 4 65 4q89 0 89 -45q0 -47 -62 -94q-49 -40 -102 -55q-287 -90 -830 -90q-222 0 -274 8q-189 24 -189 123z" />
<glyph unicode="{" horiz-adv-x="1777" d="M41 784q0 11 4 31q17 66 67 110t113 52q62 5 271 10q332 12 565 12q199 0 229 -10q44 -15 29 -76q-18 -61 -57 -106q-47 -53 -107 -53q-1 0 -13.5 1.5t-44 6t-65.5 8.5q-194 27 -307 27q-143 0 -432 -37q-195 -23 -205 -23q-47 0 -47 47zM543 -47q0 64 49 104 q56 47 379 246q329 203 354 203q34 0 51 -51q19 -46 19 -95q0 -51 -33 -71l-92 -39q-261 -112 -441 -256q-204 -162 -219 -162q-33 0 -53 39q-14 32 -14 82zM885 1671q8 43 76 98q64 52 110 52q41 0 295 -172q259 -172 287 -213q7 -10 4 -25q-12 -43 -82 -104 q-68 -62 -111 -62q-6 0 -102 96l-115 117q-57 49 -243 127q-48 18 -109 49q-16 16 -10 37z" />
<glyph unicode="|" horiz-adv-x="608" d="M-53 -141q0 41 18 112l33 117l10 37q147 612 371 1507q64 242 260 242q66 0 66 -49l-5 -25l-122 -350q-111 -329 -185 -606q-97 -364 -149 -645q-12 -116 -41 -267q-14 -48 -80 -90q-65 -41 -117 -41q-59 0 -59 58z" />
<glyph unicode="}" horiz-adv-x="1933" d="M180 240q12 43 80 102q70 61 113 61q9 0 102 -96l111 -114q70 -65 258 -138l67 -24q49 -21 43 -47q-16 -49 -80 -101q-65 -53 -112 -53q-37 0 -293 170q-255 170 -285 213q-7 10 -4 27zM442 1278q0 56 31 84q121 51 328 149q28 17 229 168q186 142 199 142q29 0 49 -45 q16 -37 16 -84q0 -59 -51 -101q-57 -48 -377 -248q-329 -200 -358 -200q-34 0 -49 47q-17 46 -17 88zM516 733q15 58 53 105q45 57 101 57q24 0 133 -14q214 -29 307 -29q153 0 430 35q203 22 209 22q49 0 49 -45q0 -15 -6 -33q-38 -136 -180 -157q-69 -9 -287 -17 q-317 -10 -518 -10q-233 0 -260 12q-46 15 -31 74z" />
<glyph unicode="~" horiz-adv-x="1284" d="M78 795q0 42 10 84q21 79 121 147q91 61 174 61q82 0 225 -73q147 -72 238 -72q68 0 162 64q113 87 151 114q45 -3 45 -106q0 -42 -8 -66q-21 -86 -154 -166q-125 -73 -215 -73q-84 0 -221 73q-137 76 -209 76q-59 0 -159 -74q-98 -73 -119 -73q-41 0 -41 84z" />
<glyph unicode="&#xa8;" horiz-adv-x="827" />
<glyph unicode="&#xa9;" horiz-adv-x="1972" d="M39 475q0 99 24 201q109 394 502 729q409 344 795 344q256 0 414 -158q157 -157 157 -397q0 -101 -26 -199q-105 -391 -504 -725q-410 -342 -795 -342q-254 0 -411 154q-156 153 -156 393zM313 578q0 -192 93 -320q104 -137 294 -137q160 0 355 98q436 223 551 647 q26 98 26 201q0 197 -94 322q-106 139 -295 139q-160 0 -352 -98q-433 -217 -551 -648q-27 -102 -27 -204zM461 553q0 34 8 70q47 166 307 432q218 225 420 225q96 0 162 -78q90 -113 76 -166q-9 -34 -64 -59q-51 -23 -82 -23q-22 0 -76 54q-52 55 -106 55q-90 0 -227 -107 q-142 -111 -162 -194q-8 -24 -8 -51q0 -146 209 -146q92 0 229 82t188 82q28 0 25 -20q-65 -136 -293 -238q-207 -92 -373 -92q-104 0 -166 41q-67 46 -67 133z" />
<glyph unicode="&#xad;" horiz-adv-x="1298" d="M76 733q0 24 6 45q21 70 137 70q25 0 41 -2h35q241 0 426 33q56 11 235 63q170 51 205 51q76 0 76 -123q0 -26 -6 -47q-9 -37 -49 -55q-63 -29 -490 -90q-429 -60 -516 -60q-46 0 -73 33t-27 82z" />
<glyph unicode="&#xae;" horiz-adv-x="1980" d="M45 481q0 279 219 586q206 291 512 483q316 199 592 199q256 0 414 -158q157 -157 157 -397q0 -101 -26 -199q-105 -394 -508 -729q-416 -342 -803 -342q-250 0 -405 162q-152 158 -152 395zM322 582q0 -197 94 -322q106 -139 295 -139q160 0 352 98q437 224 551 649 q28 106 28 201q0 198 -98 320q-108 135 -303 135q-282 0 -553 -232q-264 -227 -340 -512q-26 -95 -26 -198zM524 342q-12 56 144 637q-63 -66 -86 -66t-34.5 30.5t-4.5 57.5q8 33 106 119q244 203 445 203q144 0 239 -59q111 -65 111 -187q0 -33 -10 -78q-44 -163 -207 -258 q-115 -65 -318 -114l252 -158q56 -33 47 -72q-6 -20 -55 -20q-24 0 -57 10l-402 166q-2 -49 -22 -180q-7 -25 -41 -41.5t-66 -16.5q-38 0 -41 27zM729 737l21 -12q477 18 538 254q6 18 6 39q0 75 -73 121q-62 39 -150 39q-105 0 -244 -80q-54 -169 -98 -361z" />
<glyph unicode="&#xc0;" d="M-209 121q0 15 4 35q7 28 84 114l105 113q206 244 436 596q200 305 393 612q10 18 35 47q-90 65 -209 170q-23 26 -23 56q0 27 15 57q22 49 63 84q47 44 88 35q30 -7 191 -168q146 -143 186 -197q33 -44 12 -88q-27 -68 -88 -90q27 -547 197 -1071l41 -115 q28 -91 20 -112q-14 -50 -79 -97q-62 -45 -115 -45q-56 0 -80 109l-20 156q-449 -100 -979 -193q-111 -164 -166 -164q-46 0 -78.5 47.5t-32.5 108.5zM256 395q407 66 748 178q-25 186 -119 766q-124 -172 -629 -944z" />
<glyph unicode="&#xc1;" d="M-203 121q0 15 4 35q7 28 84 114l105 113q208 244 418 567l376 588v8q3 41 60 86q33 26 61 43q458 313 510 324q44 6 69.5 -33t20.5 -86q-6 -72 -69 -117q-48 -32 -353 -194l13 -189q58 -552 188 -954q39 -110 41 -115q28 -92 23 -112q-14 -50 -80 -97q-62 -45 -117 -45 q-53 0 -80 109l-18 156q-449 -100 -979 -193q-114 -164 -166 -164q-46 0 -78.5 47.5t-32.5 108.5zM260 395q408 65 750 178q-25 186 -119 766q-113 -156 -631 -944z" />
<glyph unicode="&#xc2;" d="M-215 121q0 25 2 35q7 28 84 114l104 113q211 249 437 596q159 243 395 612q67 105 180 105q57 0 72 -54q11 -55 16 -129q6 -126 6 -133q61 -552 191 -954l41 -115q28 -91 20 -112q-11 -49 -78 -97q-62 -45 -116 -45q-57 0 -78 109q-19 118 -23 156q-449 -100 -979 -193 q-111 -164 -165 -164q-46 0 -77.5 47t-31.5 109zM248 395q405 65 747 178q-30 223 -118 766q-124 -172 -629 -944zM584 1636q3 18 51 60q225 203 317 338q47 65 88 65q23 0 45.5 -13.5t26.5 -35.5q29 -47 160 -293q46 -78 39 -104q-5 -21 -35 -51q-36 -31 -62 -31 q-28 0 -49 53q-58 169 -153 295q-44 -44 -271 -285q-54 -57 -94 -57q-23 0 -43 14q-29 22 -20 45z" />
<glyph unicode="&#xc3;" d="M-190 121q0 15 4 35q7 28 84 114l104 113q206 244 436 596l393 612q64 102 177 105q-103 53 -142 53t-96 -45t-74 -45q-21 0 -24 43q0 35 6 59q15 48 72 88q59 41 110 41q49 0 135 -45t146 -45q42 0 98 39l92 70q21 0 27 -43q3 -40 -4 -62q-15 -53 -92 -100 q-74 -45 -132 -45q-32 0 -59 8q23 -38 29 -139l8 -148q58 -552 188 -954q39 -110 41 -115q28 -92 23 -112q-14 -50 -80 -97q-62 -45 -117 -45q-53 0 -80 109l-18 156q-449 -100 -979 -193q-114 -164 -166 -164q-48 0 -79 47t-31 109zM272 395q408 65 750 178 q-29 198 -121 766q-117 -165 -629 -944z" />
<glyph unicode="&#xc4;" d="M-197 121q0 15 4 35q7 28 84 114l105 113q206 244 436 596l393 612q67 105 183 105q55 0 67 -54q16 -50 19 -129q8 -112 8 -133q58 -552 188 -954q39 -110 41 -115q28 -92 23 -112q-14 -50 -80 -97q-62 -45 -117 -45q-53 0 -80 109l-18 156q-449 -100 -979 -193 q-114 -164 -166 -164q-46 0 -78.5 47.5t-32.5 108.5zM266 395q408 65 750 178q-31 229 -121 766q-117 -165 -629 -944zM653 1702q38 133 72 209q15 43 117 43q89 0 80 -35q-7 -24 -52 -113q-55 -109 -59 -114q-26 -39 -96 -39q-74 0 -62 49zM1178 1688q37 143 67 208 q21 43 119 43q45 0 64.5 -7.5t15.5 -24.5q-10 -33 -51 -115q-50 -98 -62 -115q-26 -39 -94 -39q-74 0 -59 50z" />
<glyph unicode="&#xc5;" d="M-199 121q0 15 4 35q8 31 82 114q16 17 34 36t39.5 42t33.5 35q206 244 436 596q237 367 391 612q28 42 56 64q-52 30 -52 94q0 85 78 154t166 69q58 0 91.5 -30t33.5 -84q0 -115 -131 -191q20 -33 29 -137l8 -150q59 -565 188 -954l41 -115q28 -92 23 -112 q-14 -50 -80 -97q-62 -45 -119 -45q-54 0 -78 109q-13 114 -20 156q-441 -99 -977 -193q-114 -164 -166 -164q-46 0 -78.5 47.5t-32.5 108.5zM264 395q408 65 750 178q-49 334 -119 766q-113 -156 -631 -944zM909 1774q0 -76 72 -76q47 0 86 42.5t39 90.5q0 76 -72 76 q-47 0 -86 -42.5t-39 -90.5z" />
<glyph unicode="&#xc8;" horiz-adv-x="1503" d="M-76 43q-15 44 129 643q-51 20 -51 86q0 50 31 93.5t80 62.5h2q37 183 100 420q7 38 37 122q22 43 61 66q34 19 113 41q170 49 223 65q-75 52 -198 164q-25 25 -25 56q0 29 14 57q19 43 64 84q50 44 88 35q23 -3 162 -142q116 -114 196 -200h23h82q97 3 145 -8 q67 -15 103 -76q37 -58 22 -107q-15 -66 -139 -75q-298 -24 -381 -39q-154 -25 -391 -115q-39 -114 -86 -287q497 137 876 137q57 0 83.5 -2t60 -13.5t61.5 -35.5q57 -42 45 -88q-15 -52 -149 -67q-660 -73 -1039 -189q-60 -254 -86 -479q181 0 436 47q81 17 233.5 47.5 t209.5 42.5q33 8 61 8q66 0 66 -45q0 -49 -53 -108q-44 -50 -95 -76q-181 -91 -487 -145q-249 -43 -488 -43q-118 0 -139 63z" />
<glyph unicode="&#xc9;" horiz-adv-x="1503" d="M-70 43q-14 40 131 643q-53 21 -53 86q0 49 31.5 93t79.5 63h2q37 183 100 420q5 25 39 122q23 45 59 66q34 19 113 41q22 5 150 43l6 6q52 43 295 199q248 163 276 166q42 7 67 -30.5t23 -86.5q-6 -70 -71 -117l-99 -61q88 3 135 -10q62 -18 97 -72q35 -59 20 -109 q-15 -66 -139 -75q-298 -24 -381 -39q-151 -24 -389 -115q-49 -141 -88 -287q497 137 876 137q57 0 83 -2t60 -13.5t64 -35.5q55 -43 43 -88q-15 -52 -149 -67q-663 -73 -1039 -189q-60 -254 -86 -479q185 0 437 47l442 90q33 8 61 8q66 0 66 -45q0 -49 -53 -108 q-44 -50 -95 -76q-181 -91 -487 -145q-249 -43 -487 -43q-119 0 -140 63z" />
<glyph unicode="&#xca;" horiz-adv-x="1503" d="M-82 43q-15 44 129 643q-51 20 -51 86q0 50 30.5 93.5t79.5 62.5h3q41 200 102 420q5 36 35 122q22 43 61 66q34 19 113 41q23 3 49 12q-8 13 -4 33q3 19 49 59q228 207 317 336q46 70 91 70q20 0 44 -16t25 -35q33 -52 162 -291l31 -55q73 -15 110 -76q40 -57 27 -109 q-18 -66 -141 -75q-298 -24 -381 -39q-151 -25 -391 -115q-39 -114 -86 -287q497 137 874 137q72 0 113 -6q49 -6 96 -45q55 -43 43 -88q-15 -52 -150 -67q-661 -73 -1040 -189q-56 -237 -84 -479q181 0 436 47q81 17 233.5 47.5t209.5 42.5q33 8 61 8q66 0 66 -45 q0 -48 -54 -108q-45 -51 -94 -76q-181 -91 -487 -145q-249 -43 -488 -43q-118 0 -139 63zM645 1642q193 54 322 54h47q-51 121 -119 209q-5 -5 -88 -92t-162 -171z" />
<glyph unicode="&#xcb;" horiz-adv-x="1503" d="M-78 43q-14 40 131 643q-53 21 -53 86q0 50 31 93.5t80 62.5h2q37 183 100 420q5 25 39 122q23 45 59 66q34 19 113 41l274 80q150 39 273 39h82q97 3 145 -8q66 -15 102 -76q38 -59 23 -107q-15 -66 -139 -75q-300 -24 -379 -39q-154 -25 -391 -115q-49 -141 -88 -287 q497 137 876 137q57 0 83 -2t60 -13.5t64 -35.5q55 -43 43 -88q-15 -52 -149 -67q-660 -73 -1039 -189q-60 -254 -86 -479q184 0 436 47l443 90q33 8 61 8q66 0 66 -45q0 -48 -54 -108q-45 -51 -94 -76q-182 -92 -485 -145q-249 -43 -490 -43q-118 0 -139 63zM555 1800 q39 136 72 207q15 45 116 45q44 0 63.5 -9t14.5 -26q-8 -27 -51 -112l-57 -115q-30 -41 -97 -41q-37 0 -52 12.5t-9 38.5zM1077 1786q38 133 72 209q15 43 117 43q44 0 62.5 -8t14.5 -25q-10 -33 -51 -115l-57 -114q-26 -39 -96 -39q-71 0 -62 49z" />
<glyph unicode="&#xcc;" horiz-adv-x="1216" d="M-139 82q0 23 6 47q27 104 162 104q13 0 57.5 -3t52.5 -3q77 0 135 6q68 347 269 1123q-247 -96 -277 -96q-65 0 -65 98q0 153 121 215q91 47 227 84q-92 69 -135 115q-25 25 -25 57q0 23 17 57q20 45 63 82q49 43 88 37q43 -9 315 -297q66 4 99 4q138 0 194 -20 q101 -30 113 -127q1 -23 -5.5 -47t-17.5 -35q-26 -33 -122 -39q-254 -19 -355 -29q-216 -611 -272 -1147l196 51q115 33 193 33q49 0 49 -35t-49 -90q-46 -52 -84 -73q-139 -71 -395 -117q-222 -43 -393 -43q-162 0 -162 88z" />
<glyph unicode="&#xcd;" horiz-adv-x="1216" d="M-147 82q0 26 8 47q24 104 159 104q15 0 59 -3t52 -3q79 0 137 6q74 379 267 1123q-247 -96 -277 -96q-63 0 -63 98q0 155 118 215q76 39 172 67q18 29 52 56q55 44 294 198q247 162 279 166q41 7 67 -31t21 -85q-3 -75 -104 -142q-16 -11 -164 -90h35q135 0 194 -20 q99 -30 111 -127q2 -24 -4.5 -48t-18.5 -34q-26 -33 -121 -39q-246 -18 -356 -29q-213 -610 -272 -1147l198 51q115 33 193 33q47 0 47 -35q0 -34 -47 -90q-46 -52 -84 -73q-137 -70 -395 -117q-222 -43 -396 -43q-161 0 -161 88z" />
<glyph unicode="&#xce;" horiz-adv-x="1216" d="M-152 82q0 23 9 47q27 104 159 104q15 0 59 -3t52 -3q79 0 137 6q77 395 266 1123q-247 -96 -276 -96q-64 0 -64 98q0 154 119 215l84 37q-3 25 53 73q227 206 318 338q47 68 90 68q22 0 45.5 -15t24.5 -36q43 -70 161 -291l25 -43q144 -27 156 -139q2 -24 -4.5 -48 t-18.5 -34q-26 -33 -121 -39q-246 -18 -356 -29q-214 -623 -272 -1147l198 51q115 33 195 33q45 0 45 -35q0 -34 -47 -90q-46 -52 -84 -73q-139 -71 -395 -117q-222 -43 -396 -43q-162 0 -162 88zM604 1671q153 38 336 41q-48 111 -117 195q-104 -115 -219 -236z" />
<glyph unicode="&#xcf;" horiz-adv-x="1216" d="M-150 82q0 23 9 47q27 104 159 104q15 0 59 -3t52 -3q79 0 137 6q77 395 266 1123q-247 -96 -276 -96q-63 0 -63 98q0 155 118 215q287 139 652 139q135 0 194 -20q102 -30 111 -127q2 -24 -4.5 -48t-18.5 -34q-26 -33 -121 -39q-246 -18 -356 -29q-214 -623 -272 -1147 l198 51q115 33 195 33q45 0 45 -35q0 -34 -47 -90q-46 -52 -84 -73q-137 -70 -395 -117q-222 -43 -396 -43q-162 0 -162 88zM434 1823q36 138 68 209q20 45 121 45q44 0 63 -9t14 -26q-8 -33 -51 -117q-54 -104 -59 -110q-30 -41 -96 -41q-37 0 -52 12t-8 37zM956 1808 q33 128 70 209q17 45 119 45q44 0 63.5 -8.5t14.5 -25.5q-8 -29 -52 -115q-54 -105 -59 -113q-30 -41 -96 -41q-37 0 -52 12t-8 37z" />
<glyph unicode="&#xd1;" horiz-adv-x="1628" d="M-88 0q-4 30 133 606q125 521 160 643q48 180 71 215q59 92 203 92q56 0 70 -26l592 -1002q18 63 166 531q51 172 178 536q49 119 201 119q55 0 55 -47q0 -23 -53 -141q-188 -413 -314 -887q-51 -179 -71 -299q-3 -45 -25 -160q-34 -129 -207 -129q-57 0 -57 31q0 6 2 12 l-617 1000q-49 -153 -106 -363q-86 -324 -111 -514q-3 -48 -18 -158q-13 -41 -80 -77q-58 -27 -109 -27q-60 0 -63 45zM702 1620q-3 33 7 59q12 48 69 88q59 41 111 41q49 0 135 -45t143 -45q45 0 101 39l92 70q20 0 26 -43q3 -40 -4 -62q-15 -53 -92 -100q-74 -45 -133 -45 q-52 0 -135 45t-127 45q-38 0 -98 -45q-57 -45 -72 -45q-20 0 -23 43z" />
<glyph unicode="&#xd2;" horiz-adv-x="1976" d="M-10 565q0 102 30 213q82 312 363 572q267 246 600 338q-105 78 -201 163q-22 25 -22 58q0 25 14 57q20 44 64 82q49 43 88 37q21 -3 174 -156q138 -135 194 -200q274 -6 439 -168q168 -162 168 -416q0 -95 -29 -211q-106 -390 -488 -674q-374 -278 -766 -278 q-283 0 -456 161q-172 163 -172 422zM289 659q0 -210 123 -348q131 -143 346 -143q261 0 497 211q226 198 297 463q27 92 27 184q0 211 -125 348q-131 146 -346 146q-262 0 -498 -211q-228 -203 -299 -467q-22 -96 -22 -183z" />
<glyph unicode="&#xd3;" horiz-adv-x="1976" d="M-12 565q0 98 28 213q81 304 357 561q262 244 585 342q12 28 50 58q57 42 295 196q251 163 278 166q42 7 67.5 -30.5t20.5 -83.5q-6 -71 -70 -117q-86 -58 -251 -144q248 -24 399 -184q151 -157 151 -397q0 -103 -30 -211q-106 -390 -486 -674q-377 -278 -766 -278 q-283 0 -456 161q-172 163 -172 422zM287 659q0 -209 121 -348q131 -143 348 -143q259 0 495 211q228 197 299 463q27 92 27 184q0 211 -125 348q-131 146 -346 146q-262 0 -498 -211q-228 -203 -299 -467q-22 -96 -22 -183z" />
<glyph unicode="&#xd4;" horiz-adv-x="1976" d="M-8 565q0 98 28 213q70 258 277 484q195 213 461 340q0 22 53 69q225 203 317 338q47 68 91 68q21 0 44.5 -15t24.5 -37q54 -87 162 -290q1 -2 16 -29q202 -51 319.5 -201.5t117.5 -359.5q0 -99 -31 -211q-106 -390 -486 -674q-377 -278 -768 -278q-281 0 -454 161 q-172 163 -172 422zM291 659q0 -209 121 -348q131 -143 348 -143q259 0 495 211q228 197 299 463q25 95 25 184q0 210 -123 348q-134 146 -346 146q-262 0 -498 -211q-228 -199 -299 -467q-22 -96 -22 -183zM995 1692q144 39 277 39l18 -2q-49 97 -100 167z" />
<glyph unicode="&#xd5;" horiz-adv-x="1976" d="M8 565q0 98 31 213q100 378 465 656q355 277 737 295q-115 59 -151 59q-37 0 -99 -47q-57 -45 -71 -45q-22 0 -25 45q0 32 6 59q11 44 72 86q59 41 108 41q52 0 138 -45t145 -45q39 0 98 41l92 68q22 0 25 -41q3 -37 0 -64q-22 -73 -143 -125q219 -40 352 -194 q131 -152 131 -377q0 -95 -29 -211q-106 -391 -487 -674q-374 -278 -766 -278q-284 0 -457 161q-172 163 -172 422zM305 659q0 -211 125 -348q128 -143 348 -143q260 0 496 211q226 200 299 463q22 96 22 184q0 210 -120 348q-134 146 -349 146q-258 0 -497 -211 q-226 -201 -297 -467q-27 -92 -27 -183z" />
<glyph unicode="&#xd6;" horiz-adv-x="1976" d="M-10 565q0 102 30 213q105 387 486 672q378 281 764 281q280 0 456 -164q175 -163 175 -422q0 -95 -29 -211q-106 -390 -488 -674q-374 -278 -766 -278q-283 0 -456 161q-172 163 -172 422zM289 659q0 -210 123 -348q131 -143 346 -143q261 0 497 211q226 198 297 463 q27 92 27 184q0 211 -125 348q-131 146 -346 146q-262 0 -498 -211q-228 -203 -299 -467q-22 -96 -22 -183zM897 1833q39 136 72 207q15 45 116 45q44 0 63.5 -9t14.5 -26q-10 -33 -51 -115l-57 -112q-30 -41 -97 -41q-37 0 -52 12.5t-9 38.5zM1419 1819q38 133 72 206 q15 46 117 46q44 0 63.5 -9t14.5 -26q-8 -29 -52 -115l-57 -113q-30 -41 -96 -41q-74 0 -62 52z" />
<glyph unicode="&#xd9;" horiz-adv-x="1550" d="M-74 109q0 25 15 71q5 20 11.5 41.5t8.5 29.5t2 9l6 25q66 306 250 1071q42 157 80 207q63 84 197 84q67 0 67 -41q0 -29 -33 -111l-49 -115q-97 -260 -205 -673q-69 -250 -69 -332q0 -37 39 -37q92 0 393 111q253 92 410 163q109 484 180 752q35 138 76 195 q66 90 188 90q44 0 63.5 -15.5t12.5 -44.5q-57 -147 -101 -270q-186 -515 -251 -961q-6 -70 -33 -208q-11 -44 -78 -80q-56 -27 -109 -27q-59 0 -65 43q-2 10 57 262q-199 -97 -497 -194q-338 -109 -482 -109q-84 0 -84 64zM625 1810q0 26 14 58q23 50 63 82q49 46 89 37 q25 -6 190 -168q147 -150 186 -199q34 -43 13 -86q-19 -42 -52 -68q-41 -35 -75 -26q-30 5 -72 47q-44 38 -170 129q-113 84 -164 135q-22 28 -22 59z" />
<glyph unicode="&#xda;" horiz-adv-x="1550" d="M-74 109q0 25 15 71q5 20 11.5 41.5t8.5 29.5t2 9l6 25q82 381 248 1071q45 159 82 207q63 84 197 84q67 0 67 -41q0 -24 -35 -111q-1 -3 -47 -115q-94 -253 -207 -673q-67 -253 -67 -332q0 -37 39 -37q88 0 393 111q253 92 410 163q100 459 178 752q38 140 78 195 q66 90 186 90q44 0 64 -15.5t14 -44.5l-103 -270q-188 -519 -249 -961q-6 -70 -33 -208q-11 -44 -78 -80q-58 -27 -109 -27q-58 0 -67 43q-2 10 57 262q-193 -96 -495 -194q-338 -109 -484 -109q-82 0 -82 64zM719 1540q3 42 59 86q45 38 293 201q251 163 279 166 q41 7 66.5 -31.5t23.5 -85.5q-6 -69 -72 -117q-82 -54 -235 -135q-162 -85 -236 -131q-61 -38 -100 -45q-36 -7 -58 22t-20 70z" />
<glyph unicode="&#xdb;" horiz-adv-x="1550" d="M-92 109q0 28 14 71l25 80l6 25q82 381 248 1071q42 157 80 207q63 84 196 84q70 0 70 -41q0 -27 -37 -111l-45 -115q-91 -243 -209 -673q-68 -257 -68 -332q0 -37 39 -37q89 0 394 111q248 90 409 163q100 459 178 752q38 140 78 195q63 90 187 90q92 0 77 -60 l-102 -270q-189 -524 -250 -961q-9 -69 -33 -208q-16 -49 -75 -78q-63 -29 -109 -29q-64 0 -70 43q-2 11 60 262q-197 -96 -498 -194q-338 -109 -483 -109q-82 0 -82 64zM614 1665q3 20 50 61q216 189 317 336q47 68 90 68q20 0 45.5 -15.5t26.5 -33.5q26 -44 160 -293 q42 -80 36 -109q-7 -24 -37 -53t-57 -29q-28 0 -49 58q-56 162 -154 293q-6 -6 -38 -40.5t-96 -102.5t-134 -142q-59 -59 -96 -59q-21 0 -43 16q-29 23 -21 45z" />
<glyph unicode="&#xdc;" horiz-adv-x="1550" d="M-68 109q0 25 15 71l22 80l6 25q82 381 248 1071q44 156 78 207q66 84 201 84q67 0 67 -41q0 -27 -34 -111l-50 -115q-94 -252 -204 -673q-68 -257 -68 -332q0 -37 37 -37q92 0 393 111q253 92 410 163q104 475 180 752q39 145 76 195q66 90 186 90q46 0 66 -15.5 t12 -44.5q-46 -118 -100 -270q-188 -519 -252 -961q-5 -58 -31 -208q-15 -45 -80 -80q-56 -27 -109 -27q-59 0 -65 43q-2 10 57 262q-203 -99 -495 -194q-338 -109 -484 -109q-82 0 -82 64zM705 1702q35 133 69 209q18 43 119 43q44 0 63.5 -9t14.5 -26q-8 -29 -51 -113 q-43 -90 -60 -114q-26 -39 -96 -39q-71 0 -59 49zM1165 1688q37 134 72 208q15 43 117 43q45 0 64.5 -7.5t15.5 -24.5q-8 -29 -52 -115q-57 -112 -59 -115q-26 -39 -96 -39q-74 0 -62 50z" />
<glyph unicode="&#xdd;" horiz-adv-x="1466" d="M90 88q0 12 2 18q2 7 445 545l-179 363q-58 110 -96 188q-58 117 -84 195q-20 50 -8 96q11 38 68 104q55 64 94 64q22 0 37 -31q1 -2 51 -143q117 -337 278 -643l482 563q71 88 204 229q58 58 132 58q52 0 95.5 -28t43.5 -69q0 -12 -2 -18q-9 -28 -131 -147l-156 -152 q-530 -533 -877 -999q-68 -100 -118 -175q-81 -100 -168 -100q-36 0 -74 23q-39 23 -39 59zM645 1548q3 41 60 86q55 44 294 201q247 162 279 166q41 6 66.5 -32t23.5 -85q-6 -69 -72 -117q-82 -54 -235 -135q-162 -85 -236 -131q-61 -38 -100 -45q-36 -7 -59 22t-21 70z " />
<glyph unicode="&#xe0;" d="M-209 121q0 15 4 35q7 28 84 114l105 113q206 244 436 596q200 305 393 612q10 18 35 47q-90 65 -209 170q-23 26 -23 56q0 27 15 57q22 49 63 84q47 44 88 35q30 -7 191 -168q146 -143 186 -197q33 -44 12 -88q-27 -68 -88 -90q27 -547 197 -1071l41 -115 q28 -91 20 -112q-14 -50 -79 -97q-62 -45 -115 -45q-56 0 -80 109l-20 156q-449 -100 -979 -193q-111 -164 -166 -164q-46 0 -78.5 47.5t-32.5 108.5zM256 395q407 66 748 178q-25 186 -119 766q-124 -172 -629 -944z" />
<glyph unicode="&#xe1;" d="M-203 121q0 15 4 35q7 28 84 114l105 113q208 244 418 567l376 588v8q3 41 60 86q33 26 61 43q458 313 510 324q44 6 69.5 -33t20.5 -86q-6 -72 -69 -117q-48 -32 -353 -194l13 -189q58 -552 188 -954q39 -110 41 -115q28 -92 23 -112q-14 -50 -80 -97q-62 -45 -117 -45 q-53 0 -80 109l-18 156q-449 -100 -979 -193q-114 -164 -166 -164q-46 0 -78.5 47.5t-32.5 108.5zM260 395q408 65 750 178q-25 186 -119 766q-113 -156 -631 -944z" />
<glyph unicode="&#xe2;" d="M-215 121q0 25 2 35q7 28 84 114l104 113q211 249 437 596q159 243 395 612q67 105 180 105q57 0 72 -54q11 -55 16 -129q6 -126 6 -133q61 -552 191 -954l41 -115q28 -91 20 -112q-11 -49 -78 -97q-62 -45 -116 -45q-57 0 -78 109q-19 118 -23 156q-449 -100 -979 -193 q-111 -164 -165 -164q-46 0 -77.5 47t-31.5 109zM248 395q405 65 747 178q-30 223 -118 766q-124 -172 -629 -944zM584 1636q3 18 51 60q225 203 317 338q47 65 88 65q23 0 45.5 -13.5t26.5 -35.5q29 -47 160 -293q46 -78 39 -104q-5 -21 -35 -51q-36 -31 -62 -31 q-28 0 -49 53q-58 169 -153 295q-44 -44 -271 -285q-54 -57 -94 -57q-23 0 -43 14q-29 22 -20 45z" />
<glyph unicode="&#xe3;" d="M-190 121q0 15 4 35q7 28 84 114l104 113q206 244 436 596l393 612q64 102 177 105q-103 53 -142 53t-96 -45t-74 -45q-21 0 -24 43q0 35 6 59q15 48 72 88q59 41 110 41q49 0 135 -45t146 -45q42 0 98 39l92 70q21 0 27 -43q3 -40 -4 -62q-15 -53 -92 -100 q-74 -45 -132 -45q-32 0 -59 8q23 -38 29 -139l8 -148q58 -552 188 -954q39 -110 41 -115q28 -92 23 -112q-14 -50 -80 -97q-62 -45 -117 -45q-53 0 -80 109l-18 156q-449 -100 -979 -193q-114 -164 -166 -164q-48 0 -79 47t-31 109zM272 395q408 65 750 178 q-29 198 -121 766q-117 -165 -629 -944z" />
<glyph unicode="&#xe4;" d="M-197 121q0 15 4 35q7 28 84 114l105 113q206 244 436 596l393 612q67 105 183 105q55 0 67 -54q16 -50 19 -129q8 -112 8 -133q58 -552 188 -954q39 -110 41 -115q28 -92 23 -112q-14 -50 -80 -97q-62 -45 -117 -45q-53 0 -80 109l-18 156q-449 -100 -979 -193 q-114 -164 -166 -164q-46 0 -78.5 47.5t-32.5 108.5zM266 395q408 65 750 178q-31 229 -121 766q-117 -165 -629 -944zM653 1702q38 133 72 209q15 43 117 43q89 0 80 -35q-7 -24 -52 -113q-55 -109 -59 -114q-26 -39 -96 -39q-74 0 -62 49zM1178 1688q37 143 67 208 q21 43 119 43q45 0 64.5 -7.5t15.5 -24.5q-10 -33 -51 -115q-50 -98 -62 -115q-26 -39 -94 -39q-74 0 -59 50z" />
<glyph unicode="&#xe5;" d="M-199 121q0 15 4 35q8 31 82 114q16 17 34 36t39.5 42t33.5 35q206 244 436 596q237 367 391 612q28 42 56 64q-52 30 -52 94q0 85 78 154t166 69q58 0 91.5 -30t33.5 -84q0 -115 -131 -191q20 -33 29 -137l8 -150q59 -565 188 -954l41 -115q28 -92 23 -112 q-14 -50 -80 -97q-62 -45 -119 -45q-54 0 -78 109q-13 114 -20 156q-441 -99 -977 -193q-114 -164 -166 -164q-46 0 -78.5 47.5t-32.5 108.5zM264 395q408 65 750 178q-49 334 -119 766q-113 -156 -631 -944zM909 1774q0 -76 72 -76q47 0 86 42.5t39 90.5q0 76 -72 76 q-47 0 -86 -42.5t-39 -90.5z" />
<glyph unicode="&#xe8;" horiz-adv-x="1503" d="M-76 43q-15 44 129 643q-51 20 -51 86q0 50 31 93.5t80 62.5h2q37 183 100 420q7 38 37 122q22 43 61 66q34 19 113 41q170 49 223 65q-75 52 -198 164q-25 25 -25 56q0 29 14 57q19 43 64 84q50 44 88 35q23 -3 162 -142q116 -114 196 -200h23h82q97 3 145 -8 q67 -15 103 -76q37 -58 22 -107q-15 -66 -139 -75q-298 -24 -381 -39q-154 -25 -391 -115q-39 -114 -86 -287q497 137 876 137q57 0 83.5 -2t60 -13.5t61.5 -35.5q57 -42 45 -88q-15 -52 -149 -67q-660 -73 -1039 -189q-60 -254 -86 -479q181 0 436 47q81 17 233.5 47.5 t209.5 42.5q33 8 61 8q66 0 66 -45q0 -49 -53 -108q-44 -50 -95 -76q-181 -91 -487 -145q-249 -43 -488 -43q-118 0 -139 63z" />
<glyph unicode="&#xe9;" horiz-adv-x="1503" d="M-70 43q-14 40 131 643q-53 21 -53 86q0 49 31.5 93t79.5 63h2q37 183 100 420q5 25 39 122q23 45 59 66q34 19 113 41q22 5 150 43l6 6q52 43 295 199q248 163 276 166q42 7 67 -30.5t23 -86.5q-6 -70 -71 -117l-99 -61q88 3 135 -10q62 -18 97 -72q35 -59 20 -109 q-15 -66 -139 -75q-298 -24 -381 -39q-151 -24 -389 -115q-49 -141 -88 -287q497 137 876 137q57 0 83 -2t60 -13.5t64 -35.5q55 -43 43 -88q-15 -52 -149 -67q-663 -73 -1039 -189q-60 -254 -86 -479q185 0 437 47l442 90q33 8 61 8q66 0 66 -45q0 -49 -53 -108 q-44 -50 -95 -76q-181 -91 -487 -145q-249 -43 -487 -43q-119 0 -140 63z" />
<glyph unicode="&#xea;" horiz-adv-x="1503" d="M-82 43q-15 44 129 643q-51 20 -51 86q0 50 30.5 93.5t79.5 62.5h3q41 200 102 420q5 36 35 122q22 43 61 66q34 19 113 41q23 3 49 12q-8 13 -4 33q3 19 49 59q228 207 317 336q46 70 91 70q20 0 44 -16t25 -35q33 -52 162 -291l31 -55q73 -15 110 -76q40 -57 27 -109 q-18 -66 -141 -75q-298 -24 -381 -39q-151 -25 -391 -115q-39 -114 -86 -287q497 137 874 137q72 0 113 -6q49 -6 96 -45q55 -43 43 -88q-15 -52 -150 -67q-661 -73 -1040 -189q-56 -237 -84 -479q181 0 436 47q81 17 233.5 47.5t209.5 42.5q33 8 61 8q66 0 66 -45 q0 -48 -54 -108q-45 -51 -94 -76q-181 -91 -487 -145q-249 -43 -488 -43q-118 0 -139 63zM645 1642q193 54 322 54h47q-51 121 -119 209q-5 -5 -88 -92t-162 -171z" />
<glyph unicode="&#xeb;" horiz-adv-x="1503" d="M-78 43q-14 40 131 643q-53 21 -53 86q0 50 31 93.5t80 62.5h2q37 183 100 420q5 25 39 122q23 45 59 66q34 19 113 41l274 80q150 39 273 39h82q97 3 145 -8q66 -15 102 -76q38 -59 23 -107q-15 -66 -139 -75q-300 -24 -379 -39q-154 -25 -391 -115q-49 -141 -88 -287 q497 137 876 137q57 0 83 -2t60 -13.5t64 -35.5q55 -43 43 -88q-15 -52 -149 -67q-660 -73 -1039 -189q-60 -254 -86 -479q184 0 436 47l443 90q33 8 61 8q66 0 66 -45q0 -48 -54 -108q-45 -51 -94 -76q-182 -92 -485 -145q-249 -43 -490 -43q-118 0 -139 63zM555 1800 q39 136 72 207q15 45 116 45q44 0 63.5 -9t14.5 -26q-8 -27 -51 -112l-57 -115q-30 -41 -97 -41q-37 0 -52 12.5t-9 38.5zM1077 1786q38 133 72 209q15 43 117 43q44 0 62.5 -8t14.5 -25q-10 -33 -51 -115l-57 -114q-26 -39 -96 -39q-71 0 -62 49z" />
<glyph unicode="&#xec;" horiz-adv-x="579" d="M-57 104q0 12 37 160l8 35q69 303 284 1174q20 73 74 118q-87 62 -276 224q-25 22 -25 55q0 25 16 57q22 49 64 82q49 46 88 37q27 -7 188 -168q157 -154 189 -197q34 -46 14 -88q-18 -31 -41 -55q-28 -76 -86 -219q-85 -241 -147 -469q-77 -292 -113 -516 q-3 -65 -24 -197q-12 -41 -80 -71q-64 -23 -107 -23q-63 0 -63 61z" />
<glyph unicode="&#xed;" horiz-adv-x="579" d="M-51 104q0 12 37 160l8 35q58 254 285 1174q7 34 32 75q-3 49 62 99q50 39 293 196q248 163 278 166q40 7 66 -30.5t24 -84.5q-6 -69 -71 -116q-63 -42 -191 -113l-197 -102l-94 -244q-88 -250 -145 -469q-84 -305 -113 -516q-8 -81 -26 -197q-9 -41 -80 -71 q-64 -23 -107 -23q-61 0 -61 61z" />
<glyph unicode="&#xee;" horiz-adv-x="579" d="M-55 104q0 12 37 160l8 35q69 303 284 1174q46 172 242 172q66 0 66 -41q0 -25 -43 -138q-7 -16 -19.5 -46t-22.5 -54.5t-18 -46.5q-85 -241 -147 -469q-77 -292 -113 -516q-3 -65 -24 -197q-12 -41 -82 -71q-64 -23 -105 -23q-63 0 -63 61zM74 1575q3 17 51 59 q228 207 317 336q47 68 88 68q21 0 44.5 -15.5t27.5 -33.5q26 -44 160 -293q45 -80 39 -109q-7 -23 -38 -52.5t-58 -29.5q-29 0 -50 58q-56 163 -153 292l-271 -282q-56 -62 -94 -62q-19 0 -43 17q-28 22 -20 47z" />
<glyph unicode="&#xef;" horiz-adv-x="579" d="M-53 104q0 12 37 160l8 35q69 303 284 1174q46 172 242 172q66 0 66 -41q0 -25 -43 -138q-8 -22 -18 -46.5t-22.5 -54.5t-19.5 -46q-85 -241 -147 -469q-77 -292 -113 -516q-3 -65 -24 -197q-12 -41 -82 -71q-64 -23 -105 -23q-63 0 -63 61zM287 1767q37 145 67 209 q21 43 119 43q86 0 80 -32q-10 -33 -51 -115q-50 -98 -62 -115q-26 -39 -96 -39q-36 0 -50 12t-7 37zM567 1753q41 147 70 209q18 43 119 43q45 0 63.5 -8t14.5 -25q-8 -27 -52 -114l-57 -113q-30 -41 -98 -41q-36 0 -51 12t-9 37z" />
<glyph unicode="&#xf1;" horiz-adv-x="1628" d="M-88 0q-4 30 133 606q125 521 160 643q48 180 71 215q59 92 203 92q56 0 70 -26l592 -1002q18 63 166 531q51 172 178 536q49 119 201 119q55 0 55 -47q0 -23 -53 -141q-188 -413 -314 -887q-51 -179 -71 -299q-3 -45 -25 -160q-34 -129 -207 -129q-57 0 -57 31q0 6 2 12 l-617 1000q-49 -153 -106 -363q-86 -324 -111 -514q-3 -48 -18 -158q-13 -41 -80 -77q-58 -27 -109 -27q-60 0 -63 45zM702 1620q-3 33 7 59q12 48 69 88q59 41 111 41q49 0 135 -45t143 -45q45 0 101 39l92 70q20 0 26 -43q3 -40 -4 -62q-15 -53 -92 -100q-74 -45 -133 -45 q-52 0 -135 45t-127 45q-38 0 -98 -45q-57 -45 -72 -45q-20 0 -23 43z" />
<glyph unicode="&#xf2;" horiz-adv-x="1976" d="M-10 565q0 102 30 213q82 312 363 572q267 246 600 338q-105 78 -201 163q-22 25 -22 58q0 25 14 57q20 44 64 82q49 43 88 37q21 -3 174 -156q138 -135 194 -200q274 -6 439 -168q168 -162 168 -416q0 -95 -29 -211q-106 -390 -488 -674q-374 -278 -766 -278 q-283 0 -456 161q-172 163 -172 422zM289 659q0 -210 123 -348q131 -143 346 -143q261 0 497 211q226 198 297 463q27 92 27 184q0 211 -125 348q-131 146 -346 146q-262 0 -498 -211q-228 -203 -299 -467q-22 -96 -22 -183z" />
<glyph unicode="&#xf3;" horiz-adv-x="1976" d="M-12 565q0 98 28 213q81 304 357 561q262 244 585 342q12 28 50 58q57 42 295 196q251 163 278 166q42 7 67.5 -30.5t20.5 -83.5q-6 -71 -70 -117q-86 -58 -251 -144q248 -24 399 -184q151 -157 151 -397q0 -103 -30 -211q-106 -390 -486 -674q-377 -278 -766 -278 q-283 0 -456 161q-172 163 -172 422zM287 659q0 -209 121 -348q131 -143 348 -143q259 0 495 211q228 197 299 463q27 92 27 184q0 211 -125 348q-131 146 -346 146q-262 0 -498 -211q-228 -203 -299 -467q-22 -96 -22 -183z" />
<glyph unicode="&#xf4;" horiz-adv-x="1976" d="M-8 565q0 98 28 213q70 258 277 484q195 213 461 340q0 22 53 69q225 203 317 338q47 68 91 68q21 0 44.5 -15t24.5 -37q54 -87 162 -290q1 -2 16 -29q202 -51 319.5 -201.5t117.5 -359.5q0 -99 -31 -211q-106 -390 -486 -674q-377 -278 -768 -278q-281 0 -454 161 q-172 163 -172 422zM291 659q0 -209 121 -348q131 -143 348 -143q259 0 495 211q228 197 299 463q25 95 25 184q0 210 -123 348q-134 146 -346 146q-262 0 -498 -211q-228 -199 -299 -467q-22 -96 -22 -183zM995 1692q144 39 277 39l18 -2q-49 97 -100 167z" />
<glyph unicode="&#xf5;" horiz-adv-x="1976" d="M8 565q0 98 31 213q100 378 465 656q355 277 737 295q-115 59 -151 59q-37 0 -99 -47q-57 -45 -71 -45q-22 0 -25 45q0 32 6 59q11 44 72 86q59 41 108 41q52 0 138 -45t145 -45q39 0 98 41l92 68q22 0 25 -41q3 -37 0 -64q-22 -73 -143 -125q219 -40 352 -194 q131 -152 131 -377q0 -95 -29 -211q-106 -391 -487 -674q-374 -278 -766 -278q-284 0 -457 161q-172 163 -172 422zM305 659q0 -211 125 -348q128 -143 348 -143q260 0 496 211q226 200 299 463q22 96 22 184q0 210 -120 348q-134 146 -349 146q-258 0 -497 -211 q-226 -201 -297 -467q-27 -92 -27 -183z" />
<glyph unicode="&#xf6;" horiz-adv-x="1976" d="M-10 565q0 102 30 213q105 387 486 672q378 281 764 281q280 0 456 -164q175 -163 175 -422q0 -95 -29 -211q-106 -390 -488 -674q-374 -278 -766 -278q-283 0 -456 161q-172 163 -172 422zM289 659q0 -210 123 -348q131 -143 346 -143q261 0 497 211q226 198 297 463 q27 92 27 184q0 211 -125 348q-131 146 -346 146q-262 0 -498 -211q-228 -203 -299 -467q-22 -96 -22 -183zM897 1833q39 136 72 207q15 45 116 45q44 0 63.5 -9t14.5 -26q-10 -33 -51 -115l-57 -112q-30 -41 -97 -41q-37 0 -52 12.5t-9 38.5zM1419 1819q38 133 72 206 q15 46 117 46q44 0 63.5 -9t14.5 -26q-8 -29 -52 -115l-57 -113q-30 -41 -96 -41q-74 0 -62 52z" />
<glyph unicode="&#xf9;" horiz-adv-x="1550" d="M-74 109q0 25 15 71q5 20 11.5 41.5t8.5 29.5t2 9l6 25q66 306 250 1071q42 157 80 207q63 84 197 84q67 0 67 -41q0 -29 -33 -111l-49 -115q-97 -260 -205 -673q-69 -250 -69 -332q0 -37 39 -37q92 0 393 111q253 92 410 163q109 484 180 752q35 138 76 195 q66 90 188 90q44 0 63.5 -15.5t12.5 -44.5q-57 -147 -101 -270q-186 -515 -251 -961q-6 -70 -33 -208q-11 -44 -78 -80q-56 -27 -109 -27q-59 0 -65 43q-2 10 57 262q-199 -97 -497 -194q-338 -109 -482 -109q-84 0 -84 64zM625 1810q0 26 14 58q23 50 63 82q49 46 89 37 q25 -6 190 -168q147 -150 186 -199q34 -43 13 -86q-19 -42 -52 -68q-41 -35 -75 -26q-30 5 -72 47q-44 38 -170 129q-113 84 -164 135q-22 28 -22 59z" />
<glyph unicode="&#xfa;" horiz-adv-x="1550" d="M-74 109q0 25 15 71q5 20 11.5 41.5t8.5 29.5t2 9l6 25q82 381 248 1071q45 159 82 207q63 84 197 84q67 0 67 -41q0 -24 -35 -111q-1 -3 -47 -115q-94 -253 -207 -673q-67 -253 -67 -332q0 -37 39 -37q88 0 393 111q253 92 410 163q100 459 178 752q38 140 78 195 q66 90 186 90q44 0 64 -15.5t14 -44.5l-103 -270q-188 -519 -249 -961q-6 -70 -33 -208q-11 -44 -78 -80q-58 -27 -109 -27q-58 0 -67 43q-2 10 57 262q-193 -96 -495 -194q-338 -109 -484 -109q-82 0 -82 64zM719 1540q3 42 59 86q45 38 293 201q251 163 279 166 q41 7 66.5 -31.5t23.5 -85.5q-6 -69 -72 -117q-82 -54 -235 -135q-162 -85 -236 -131q-61 -38 -100 -45q-36 -7 -58 22t-20 70z" />
<glyph unicode="&#xfb;" horiz-adv-x="1550" d="M-92 109q0 28 14 71l25 80l6 25q82 381 248 1071q42 157 80 207q63 84 196 84q70 0 70 -41q0 -27 -37 -111l-45 -115q-91 -243 -209 -673q-68 -257 -68 -332q0 -37 39 -37q89 0 394 111q248 90 409 163q100 459 178 752q38 140 78 195q63 90 187 90q92 0 77 -60 l-102 -270q-189 -524 -250 -961q-9 -69 -33 -208q-16 -49 -75 -78q-63 -29 -109 -29q-64 0 -70 43q-2 11 60 262q-197 -96 -498 -194q-338 -109 -483 -109q-82 0 -82 64zM614 1665q3 20 50 61q216 189 317 336q47 68 90 68q20 0 45.5 -15.5t26.5 -33.5q26 -44 160 -293 q42 -80 36 -109q-7 -24 -37 -53t-57 -29q-28 0 -49 58q-56 162 -154 293q-6 -6 -38 -40.5t-96 -102.5t-134 -142q-59 -59 -96 -59q-21 0 -43 16q-29 23 -21 45z" />
<glyph unicode="&#xfc;" horiz-adv-x="1550" d="M-68 109q0 25 15 71l22 80l6 25q82 381 248 1071q44 156 78 207q66 84 201 84q67 0 67 -41q0 -27 -34 -111l-50 -115q-94 -252 -204 -673q-68 -257 -68 -332q0 -37 37 -37q92 0 393 111q253 92 410 163q104 475 180 752q39 145 76 195q66 90 186 90q46 0 66 -15.5 t12 -44.5q-46 -118 -100 -270q-188 -519 -252 -961q-5 -58 -31 -208q-15 -45 -80 -80q-56 -27 -109 -27q-59 0 -65 43q-2 10 57 262q-203 -99 -495 -194q-338 -109 -484 -109q-82 0 -82 64zM705 1702q35 133 69 209q18 43 119 43q44 0 63.5 -9t14.5 -26q-8 -29 -51 -113 q-43 -90 -60 -114q-26 -39 -96 -39q-71 0 -59 49zM1165 1688q37 134 72 208q15 43 117 43q45 0 64.5 -7.5t15.5 -24.5q-8 -29 -52 -115q-57 -112 -59 -115q-26 -39 -96 -39q-74 0 -62 50z" />
<glyph unicode="&#xfd;" horiz-adv-x="1466" d="M88 88q0 12 2 18q2 7 445 545l-179 363q-58 110 -96 188q-55 111 -86 195q-18 51 -6 96q11 38 68 104q55 64 94 64q22 0 37 -31q1 -2 51 -143q112 -331 276 -643l484 563q71 88 204 229q58 58 131 58q52 0 96 -28t44 -69q0 -12 -2 -18q-9 -28 -131 -147l-156 -152 q-530 -533 -877 -999q-69 -100 -118 -175q-81 -100 -168 -100q-36 0 -74 23q-39 23 -39 59zM649 1565q3 41 60 86q51 40 295 198q248 163 278 166q40 7 66 -30t24 -84q-6 -69 -72 -117q-82 -54 -235 -135q-162 -85 -236 -131q-61 -38 -102 -45q-35 -7 -57.5 22t-20.5 70z " />
<glyph unicode="&#xff;" horiz-adv-x="1466" d="M98 88q0 12 2 18q4 11 443 545l-176 363q-57 102 -99 188q-58 117 -84 195q-18 51 -6 96q8 37 66 104q55 64 94 64q22 0 37 -31q1 -2 51 -143q115 -331 279 -643l481 563q42 52 205 229q58 58 133 58q50 0 93.5 -28t43.5 -69q0 -12 -2 -18q-6 -27 -129 -147 q-18 -17 -50.5 -48t-58.5 -56t-49 -48q-526 -529 -876 -999q-98 -143 -119 -175q-81 -100 -168 -100q-40 0 -75.5 24t-35.5 58zM590 1702q39 138 67 209q21 43 121 43q87 0 78 -35q-8 -29 -51 -113q-48 -94 -62 -114q-26 -39 -96 -39q-36 0 -50 12t-7 37zM1112 1688 q36 130 68 208q21 43 120 43q45 0 63.5 -7.5t14.5 -24.5q-10 -33 -51 -115q-57 -112 -59 -115q-29 -39 -99 -39q-35 0 -49.5 12.5t-7.5 37.5z" />
<glyph unicode="&#x178;" horiz-adv-x="1466" d="M98 88q0 12 2 18q4 11 443 545l-176 363q-57 102 -99 188q-58 117 -84 195q-18 51 -6 96q8 37 66 104q55 64 94 64q22 0 37 -31q1 -2 51 -143q115 -331 279 -643l481 563q42 52 205 229q58 58 133 58q50 0 93.5 -28t43.5 -69q0 -12 -2 -18q-6 -27 -129 -147 q-18 -17 -50.5 -48t-58.5 -56t-49 -48q-526 -529 -876 -999q-98 -143 -119 -175q-81 -100 -168 -100q-40 0 -75.5 24t-35.5 58zM590 1702q39 138 67 209q21 43 121 43q87 0 78 -35q-8 -29 -51 -113q-48 -94 -62 -114q-26 -39 -96 -39q-36 0 -50 12t-7 37zM1112 1688 q36 130 68 208q21 43 120 43q45 0 63.5 -7.5t14.5 -24.5q-10 -33 -51 -115q-57 -112 -59 -115q-29 -39 -99 -39q-35 0 -49.5 12.5t-7.5 37.5z" />
<glyph unicode="&#x2000;" horiz-adv-x="1065" />
<glyph unicode="&#x2001;" horiz-adv-x="2130" />
<glyph unicode="&#x2002;" horiz-adv-x="1065" />
<glyph unicode="&#x2003;" horiz-adv-x="2130" />
<glyph unicode="&#x2004;" horiz-adv-x="710" />
<glyph unicode="&#x2005;" horiz-adv-x="532" />
<glyph unicode="&#x2006;" horiz-adv-x="355" />
<glyph unicode="&#x2007;" horiz-adv-x="355" />
<glyph unicode="&#x2008;" horiz-adv-x="266" />
<glyph unicode="&#x2009;" horiz-adv-x="426" />
<glyph unicode="&#x200a;" horiz-adv-x="118" />
<glyph unicode="&#x2010;" horiz-adv-x="1298" d="M76 733q0 24 6 45q21 70 137 70q25 0 41 -2h35q241 0 426 33q56 11 235 63q170 51 205 51q76 0 76 -123q0 -26 -6 -47q-9 -37 -49 -55q-63 -29 -490 -90q-429 -60 -516 -60q-46 0 -73 33t-27 82z" />
<glyph unicode="&#x2011;" horiz-adv-x="1298" d="M76 733q0 24 6 45q21 70 137 70q25 0 41 -2h35q241 0 426 33q56 11 235 63q170 51 205 51q76 0 76 -123q0 -26 -6 -47q-9 -37 -49 -55q-63 -29 -490 -90q-429 -60 -516 -60q-46 0 -73 33t-27 82z" />
<glyph unicode="&#x2012;" horiz-adv-x="1298" d="M76 733q0 24 6 45q21 70 137 70q25 0 41 -2h35q241 0 426 33q56 11 235 63q170 51 205 51q76 0 76 -123q0 -26 -6 -47q-9 -37 -49 -55q-63 -29 -490 -90q-429 -60 -516 -60q-46 0 -73 33t-27 82z" />
<glyph unicode="&#x2013;" horiz-adv-x="1161" d="M76 733q0 24 5 45q19 70 121 70q22 0 36 -2h31q213 0 376 33q49 11 207 63q150 51 181 51q67 0 67 -123q0 -26 -5 -47q-8 -37 -44 -55q-55 -29 -432 -90q-378 -60 -455 -60q-40 0 -64 33t-24 82z" />
<glyph unicode="&#x2014;" horiz-adv-x="2185" d="M76 733q0 24 11 45q37 70 241 70q44 0 73 -2h61q425 0 752 33q99 11 414 63q300 51 362 51q134 0 134 -123q0 -26 -11 -47q-15 -37 -86 -55q-111 -29 -864 -90q-757 -60 -911 -60q-81 0 -128.5 33t-47.5 82z" />
<glyph unicode="&#x2018;" horiz-adv-x="802" d="M367 1784q12 43 69 69q48 25 94 25q74 0 86 -57q17 -77 41 -283q34 -241 31 -260q-10 -37 -49.5 -61.5t-79.5 -24.5q-51 0 -72 49q-21 52 -73 279q-53 238 -47 264z" />
<glyph unicode="&#x2019;" horiz-adv-x="794" d="M305 1257q0 35 60 113q42 59 149 225q91 142 154 224q50 59 123 59q41 0 75.5 -22.5t34.5 -55.5q0 -12 -2 -18q-7 -30 -186 -264q-178 -228 -224 -277t-92 -49q-92 0 -92 65z" />
<glyph unicode="&#x201c;" horiz-adv-x="1105" d="M319 1671q13 45 70 72q52 22 94 22q71 0 86 -59q4 -15 41 -285q34 -240 29 -258q-7 -37 -47.5 -60.5t-85.5 -23.5t-66 49q-16 40 -71 279q-56 238 -50 264zM719 1794q10 44 67 70q49 24 97 24q74 0 86 -59q15 -77 41 -283q34 -241 30 -260q-10 -36 -49.5 -61t-79.5 -25 q-49 0 -73 53q-22 52 -74 275q-53 239 -45 266z" />
<glyph unicode="&#x201d;" horiz-adv-x="1017" d="M219 1268q0 32 60 110q36 51 149 226q92 148 154 225q50 59 123 59q41 0 75.5 -22.5t34.5 -55.5q0 -12 -2 -18q-7 -30 -186 -264q-183 -234 -221 -275q-53 -53 -105 -53q-32 0 -57 19t-25 49zM553 1147q0 33 57 108q40 52 150 228q89 144 151 221q52 61 125 61 q45 0 80 -21t35 -56q0 -13 -2 -19q-9 -28 -191 -262q-171 -227 -221 -277q-48 -51 -94 -51q-90 0 -90 68z" />
<glyph unicode="&#x2026;" horiz-adv-x="1599" d="M-14 72q0 27 37 137q29 88 51 137q24 53 147 53q108 0 96 -41q-7 -33 -61 -143q-56 -116 -76 -141q-34 -49 -121 -49q-73 0 -73 47zM473 74q0 30 39 137l49 137q24 53 150 53q54 0 78.5 -10.5t19.5 -30.5q-14 -41 -66 -143q-57 -117 -73 -141q-34 -49 -119 -49 q-78 0 -78 47zM965 76q0 28 34 137l52 137q21 53 147 53q55 0 79.5 -10.5t18.5 -30.5q-16 -47 -65 -143q-54 -111 -74 -141q-34 -49 -119 -49q-73 0 -73 47z" />
<glyph unicode="&#x202f;" horiz-adv-x="426" />
<glyph unicode="&#x205f;" horiz-adv-x="532" />
<glyph unicode="&#x2122;" horiz-adv-x="1982" d="M336 1556q-7 25 2 52q24 87 197 131q124 28 260 28q56 0 108 -18q76 -21 76 -70q0 -10 -2 -16q-9 -26 -121 -41l-139 -8q-118 -333 -158 -649l-12 -115q-7 -25 -43.5 -45.5t-67.5 -20.5q-33 0 -39 25q-9 48 181 774q-194 -57 -207 -57q-26 0 -35 30zM729 907q0 17 2 23 q15 23 80 106q164 218 289 428l104 185q35 59 76 59q26 0 35 -37q0 -61 2 -108q4 -117 22 -238l37 -229q110 176 193 327q152 271 182 330q34 57 80 57q30 0 33 -71q0 -33 -2 -99q-6 -211 2 -315q1 -3 3 -19.5t7.5 -57.5t11.5 -81q19 -133 19 -172q0 -16 -2 -22 q-6 -27 -50 -62q-40 -32 -69 -32q-17 0 -23 16q-11 16 -20 268q-2 104 -10 307l-201 -358q-169 -291 -221 -291q-77 0 -107 578q-301 -489 -379 -570q-18 -18 -35 -18q-29 0 -43 33q-16 29 -16 63z" />
<glyph unicode="&#x25fc;" horiz-adv-x="1699" d="M0 0v1700h1700v-1700h-1700z" />
</font>
</defs>
</svg>
