<?xml version="1.0" standalone="no"?>
<!DOCTYPE svg PUBLIC "-//W3C//DTD SVG 1.1//EN" "http://www.w3.org/Graphics/SVG/1.1/DTD/svg11.dtd" >
<svg xmlns="http://www.w3.org/2000/svg" xmlns:xlink="http://www.w3.org/1999/xlink" version="1.1">
<metadata></metadata>
<defs>
<font id="anime_ace_2.0_bbbold" horiz-adv-x="1837" >
<font-face units-per-em="2048" ascent="1638" descent="-410" />
<missing-glyph horiz-adv-x="907" />
<glyph horiz-adv-x="0" />
<glyph horiz-adv-x="682" />
<glyph unicode=" "  horiz-adv-x="907" />
<glyph unicode="&#x09;" horiz-adv-x="907" />
<glyph unicode="&#xa0;" horiz-adv-x="907" />
<glyph unicode="!" horiz-adv-x="1138" d="M-109 39q0 84 95 303q34 76 190 76q150 0 150 -70q0 -23 -68 -162q-60 -123 -88 -163q-48 -66 -162 -66q-117 0 -117 82zM156 643q0 45 51 137l289 619l122 262q74 145 154 244q67 82 236 82q70 0 131 -21q82 -27 82 -82q0 -26 -234 -336l-278 -377q-157 -215 -230 -403 q-53 -133 -57 -139q-41 -62 -131 -62q-135 0 -135 76z" />
<glyph unicode="&#x22;" horiz-adv-x="1185" d="M209 1114q0 45 16 107q32 92 35 102q17 54 43 215q19 110 53 211q25 68 88.5 111t137.5 43q120 0 120 -99q0 -66 -84 -329q-67 -210 -120 -334q-52 -123 -185 -123q-104 0 -104 96zM702 1159q0 -1 5 20.5t17 72t26 114.5q23 117 98 426q25 67 88 109.5t137 42.5 q121 0 121 -99q0 -61 -84 -327q-67 -211 -121 -336q-53 -123 -180 -123q-107 0 -107 100z" />
<glyph unicode="#" horiz-adv-x="1730" d="M68 512q0 116 108 137q26 5 199 8q20 77 63 203q-16 -2 -45 -2q-81 0 -131 41q-55 46 -55 125q0 151 188 154h146q51 176 149 458q53 154 254 154q98 0 98 -72q0 -56 -84 -256l-116 -270q184 15 325 45q40 167 62 242q38 134 88 231q15 34 104 55q78 19 144 19 q98 0 98 -78q0 -47 -53 -186q-37 -94 -78 -191q46 12 61 12q62 0 99 -61q32 -49 32 -119q0 -106 -104 -143l-197 -31q-15 -68 -49 -180q75 16 90 16q55 0 92 -63q29 -56 29 -117q0 -104 -96 -139q-24 -9 -191 -33q-17 -164 -22 -195q-15 -115 -39 -194q-21 -56 -100 -96 q-72 -35 -140 -35q-104 0 -104 88q0 62 33 188l51 197q-204 -30 -387 -47q-15 -65 -64 -348q-15 -59 -94 -101q-68 -39 -135 -39q-119 0 -119 97q0 43 101 356q-54 -4 -56 -4q-68 0 -111.5 50.5t-43.5 123.5zM670 672q211 16 374 51l50 217q-132 -18 -357 -45 q-26 -77 -67 -223z" />
<glyph unicode="$" horiz-adv-x="1918" d="M74 160q0 63 63 149q64 88 121 88q34 0 74 -55q54 -72 112 -106q95 -56 252 -56q53 236 129 555q-82 4 -430 31q-153 15 -153 139q0 206 317 479q262 224 516 328q12 40 23 76.5t16 53.5t6 20q77 194 295 194q96 0 96 -82q0 -46 -45 -162q108 15 142 15q137 0 137 -101 q0 -39 -14 -151q-12 -117 -21 -141q-17 -56 -100 -115q-82 -55 -144 -55q-82 0 -82 178h-45q-47 -146 -106 -355q155 -11 268 -20q158 -15 262 -57q64 -27 64 -113q0 -98 -58 -199q-261 -472 -790 -708q-9 -95 -25 -133q-28 -64 -102 -103q-76 -43 -143 -43q-95 0 -95 96 q0 24 11 66q-141 -25 -211 -25q-200 0 -299 187q-41 77 -41 125zM659 1087q16 19 31 19q155 0 225 2q33 111 64 233q-101 -57 -178 -112q-133 -95 -142 -142zM1024 258q111 51 221 152q137 125 137 219q0 35 -256 76q-37 -138 -102 -447z" />
<glyph unicode="%" horiz-adv-x="2064" d="M104 -6q9 35 621 702q-122 -32 -250 -32q-136 0 -219 47q-109 59 -109 182q0 233 400 612q287 275 555 275q130 0 225 -92q89 -83 127 -213q126 135 258 264q87 84 189 84q66 0 116 -33q66 -41 66 -98q0 -65 -127 -174l-92 -78q-150 -135 -330 -312q144 -9 250 -145 q100 -124 100 -274q0 -204 -201 -381q-155 -137 -387 -226q-230 -88 -413 -88q-215 0 -291 107l-135 -172q-91 -94 -187 -94q-166 0 -166 118v21zM526 1090q0 -74 88 -111q69 -29 152 -29q157 0 264 82q119 91 119 246q0 176 -150 176q-114 0 -290 -123q-183 -130 -183 -241 zM922 451q0 -73 88 -113q73 -31 153 -31q160 0 267 76q126 83 126 231q0 85 -38 134q-40 63 -117 63q-108 0 -291 -127q-188 -132 -188 -233z" />
<glyph unicode="&#x26;" horiz-adv-x="1859" d="M57 281q0 375 621 671q-84 84 -84 201q0 257 369 561q193 158 407 158q220 0 336 -180q61 -94 61 -168q0 -59 -36 -115q-42 -63 -97 -63q-19 0 -123 79q-104 82 -186 82q-132 0 -258 -108q-133 -115 -133 -248q0 -57 113 -66q138 -12 178 -49q49 -49 49 -121 q0 -158 -180 -182q-256 -26 -273 -28q-140 -21 -241 -119q-121 -118 -121 -232q0 -108 108 -170q92 -53 209 -53q195 0 508 148q43 149 57 307l11 145q9 97 24 143q22 55 101 95q65 32 137 32q104 0 104 -79q0 -121 -104 -525q-79 -308 -152 -540q-24 -74 -96.5 -122 t-155.5 -48q-100 0 -100 82q0 34 57 174q-242 -88 -454 -88q-232 0 -422 96q-234 117 -234 330z" />
<glyph unicode="'" horiz-adv-x="884" d="M238 1233q0 49 69 141q56 71 166 246q105 163 168 244q64 82 166 82q55 0 102 -29q54 -35 54 -92q0 -19 -2 -27q-7 -32 -211 -299l-166 -219q-134 -158 -211 -158q-58 0 -96.5 29.5t-38.5 81.5z" />
<glyph unicode="(" horiz-adv-x="1437" d="M88 551q0 389 490 829q187 169 391 318q299 221 413 221q64 0 117 -41.5t53 -99.5q0 -93 -184 -187l-141 -73q-299 -181 -525 -404q-309 -303 -309 -551q0 -283 402 -424q81 -15 202 -67q52 -37 52 -99q0 -70 -60 -155q-59 -83 -127 -86q-144 74 -393 211 q-170 99 -274 252q-107 162 -107 356z" />
<glyph unicode=")" horiz-adv-x="1574" d="M27 -121q0 85 182 180l141 76q305 189 524 404q306 303 306 548q0 152 -127 273q-106 100 -271 153l-104 29q-68 18 -98 39q-50 38 -50 96q0 76 58 158q60 85 131 88q137 -65 409 -217q365 -224 365 -598q0 -394 -496 -834q-196 -174 -389 -317q-302 -221 -411 -221 q-65 0 -117.5 42.5t-52.5 100.5z" />
<glyph unicode="*" horiz-adv-x="1091" d="M242 1266q0 60 118 123q33 19 170 86q-70 37 -196 112q-15 21 -15 51q0 55 46 119t98 64q17 0 164 -105q0 48 12 139q16 46 76 72q56 29 102 29q80 0 80 -72q0 -22 -35 -180q144 123 182 123q50 0 91 -39.5t41 -89.5q0 -15 -2 -21q-10 -32 -250 -194q118 -87 118 -160 q0 -52 -45 -109q-42 -57 -92 -57q-19 0 -145 129q-35 -133 -60 -182q-52 -88 -159 -88q-80 0 -80 61q0 35 33 123q-76 -49 -123 -49q-48 0 -88.5 35.5t-40.5 79.5z" />
<glyph unicode="+" horiz-adv-x="1574" d="M119 778q0 58 24 101q30 52 82 55q144 -4 195 -4q104 0 203 6l26 197q17 117 37 176q34 89 104.5 137.5t151.5 48.5q94 0 94 -72q0 -46 -51 -219l-65 -237q7 1 210 57q127 39 211 39q59 0 86 -59q27 -46 27 -109q0 -121 -113 -164q-57 -18 -219 -35l-248 -24v-8 q0 -38 3 -117q4 -102 4 -115q0 -81 -9 -108q-18 -60 -102 -107q-77 -41 -145 -41q-97 0 -97 103q0 71 47 364l-319 -27q-63 0 -104 50q-33 44 -33 112z" />
<glyph unicode="," horiz-adv-x="923" d="M-96 -254q0 51 67 139q47 63 166 248q131 198 137 205q100 121 197 121q62 0 107 -31q53 -35 53 -94q0 -19 -2 -25q-9 -35 -211 -295l-168 -219q-136 -160 -209 -160q-56 0 -96.5 31.5t-40.5 79.5z" />
<glyph unicode="-" horiz-adv-x="1521" d="M88 727q0 118 90 145q41 13 184 13q248 0 463 35q54 8 267 69q205 60 227 60q53 0 88 -60q27 -47 27 -106q0 -107 -127 -166q-88 -45 -267 -66l-231 -20q-464 -68 -576 -68q-65 0 -105 47.5t-40 116.5z" />
<glyph unicode="." horiz-adv-x="727" d="M6 55q0 83 98 318q34 82 191 82q147 0 147 -76q0 -31 -67 -168q-73 -142 -90 -168q-50 -74 -164 -74q-115 0 -115 86z" />
<glyph unicode="/" horiz-adv-x="1638" d="M-156 -14q0 56 111 176l156 162q650 707 1087 1169q94 102 258 266q76 76 199 76q62 0 112 -29q58 -34 58 -96q0 -23 -2 -31q-11 -36 -164 -180q-85 -70 -201 -176q-625 -576 -1073 -1116q-53 -69 -215 -264q-63 -72 -141 -72q-65 0 -117 27q-68 35 -68 88z" />
<glyph unicode="0" horiz-adv-x="2291" d="M72 528q0 349 233 664q214 289 539 471q337 184 667 184q315 0 519 -174q217 -181 217 -491q0 -346 -236 -664q-210 -288 -538 -469q-334 -184 -666 -184q-315 0 -516 174q-219 183 -219 489zM469 631q0 -220 131 -357t350 -137q340 0 609 291q264 285 264 625 q0 217 -131 354q-130 139 -349 139q-339 0 -606 -289q-268 -286 -268 -626z" />
<glyph unicode="1" horiz-adv-x="878" d="M186 14q0 132 47 318q37 128 86 311l162 655q-110 -49 -137 -49q-48 0 -82 58q-29 50 -29 100q0 15 7 39q21 72 147 133q41 21 197 82q165 61 213 61q98 0 98 -75q0 -30 -47 -160q-230 -621 -295 -1206q-6 -64 -16 -189q-21 -84 -129 -131q-82 -29 -138 -29q-84 0 -84 82 z" />
<glyph unicode="2" horiz-adv-x="1726" d="M-49 -12q0 63 31 127q51 153 204 194q418 108 695 314q254 191 342 301q52 67 49 227q-3 165 -115 254q-96 78 -239 78q-231 0 -375 -176q-53 -65 -74 -82q-45 -39 -100 -39q-45 0 -45 69q0 35 8 62q39 138 137 276q103 145 207 215q79 54 196 54q297 0 496 -236 q210 -244 195 -614q-9 -171 -131 -287q-167 -153 -691 -487q394 20 588 20q60 0 60 -53q0 -50 -52 -123q-51 -70 -88 -96q-113 -78 -561 -99q-159 -6 -590 -6q-147 0 -147 107z" />
<glyph unicode="3" horiz-adv-x="1757" d="M-68 31q0 69 39 125q40 61 101 61q24 0 86 -27q149 -67 327 -67q212 0 437 129q256 148 256 344q0 147 -187 147q-47 0 -149 -18q-106 -16 -148 -16q-131 0 -131 88q0 100 131 207q51 45 156 71q114 37 154 62q75 46 100 143q6 24 6 49q0 73 -49.5 116.5t-126.5 43.5 q-85 0 -191 -68l-165 -121q-84 -63 -132 -63q-67 0 -67 78q0 115 174 280q113 113 258 187q164 86 299 86q157 0 268 -135q107 -128 107 -289q0 -229 -248 -422q342 -127 342 -358q0 -244 -248 -455q-186 -162 -467 -268q-276 -107 -499 -107q-95 0 -203 21q-107 18 -154 45 q-76 46 -76 131z" />
<glyph unicode="4" horiz-adv-x="1835" d="M72 463q0 12 28 110l37 129l27 127l129 512q27 123 43 152q74 176 256 176q94 0 94 -78q0 -53 -65 -239q-19 -46 -91 -254q-39 -114 -98 -371q348 97 698 133q50 214 150 610q25 96 39 121q26 65 92 104.5t141 39.5q101 0 101 -78q0 -39 -43 -152q-116 -302 -189 -628 q98 4 103 4q74 0 139 -45q78 -47 78 -117q0 -88 -158 -123q-57 -12 -229 -27q-11 -56 -25 -250q-9 -149 -41 -245q-20 -57 -102 -97q-69 -34 -137 -34q-105 0 -105 94q0 108 37 250q6 24 16 59.5t26 90t28 95.5q-241 -39 -394 -77q-91 -29 -241 -74q-177 -55 -221 -55 q-123 0 -123 137z" />
<glyph unicode="5" horiz-adv-x="1587" d="M-68 109q0 50 25 98q29 51 82 51q24 0 88 -27q172 -69 352 -69q192 0 361 106q196 120 196 297q0 101 -82 162q-72 57 -178 57q-57 0 -147 -20q-94 -21 -146 -21q-141 0 -141 199q0 88 6 502q3 165 139 223q375 168 934 168q92 0 166 -39q94 -46 94 -131q0 -67 -67 -94 q-50 -21 -129 -29q-230 -25 -377 -47q-195 -26 -371 -84l-14 -328q647 -40 647 -493q0 -251 -233 -459q-306 -268 -688 -268q-183 0 -320 41q-197 62 -197 205z" />
<glyph unicode="6" horiz-adv-x="1949" d="M86 508q0 310 172 594q159 264 430 452q336 232 780 232q145 0 166 -96l17 -215q7 -33 16 -64q10 -45 10 -61q0 -67 -78 -127t-149 -60q-66 0 -100 88q-10 31 -31 146q-383 -67 -627 -283q-213 -192 -286 -387q687 221 1050 221q352 0 352 -211q0 -212 -305 -461 q-458 -376 -882 -376q-260 0 -404 178q-131 162 -131 430zM401 393q71 -141 291 -141q113 0 256 41q112 31 291 113q229 107 229 176q0 41 -137 41q-224 0 -930 -230z" />
<glyph unicode="7" horiz-adv-x="1556" d="M178 1444q0 210 375 266q126 21 522 21q381 0 502 -50q70 -26 119 -106q26 -45 26 -74q0 -26 -45 -80q-258 -316 -454 -575q-237 -312 -408 -615q-37 -81 -119 -217q-56 -71 -166 -71q-60 0 -104 24q-49 30 -49 88q0 73 917 1344q-57 2 -166 2q-340 0 -636 -51 q-2 -1 -12 -3.5t-36 -8.5t-49 -11q-62 -10 -96 -10q-121 0 -121 127z" />
<glyph unicode="8" horiz-adv-x="1904" d="M-63 37q0 176 202 424q142 172 353 340q-152 62 -152 221q0 219 395 590q297 274 555 274q156 0 269 -137q108 -126 108 -285q0 -233 -250 -430q131 -66 209 -192q82 -128 82 -273q0 -260 -274 -463q-196 -147 -510 -243q-297 -90 -529 -90q-458 0 -458 264zM344 279 q0 -93 154 -146q113 -35 231 -35q199 0 365 84q200 105 200 287q0 272 -241 272q-251 0 -545 -239q-164 -132 -164 -223zM715 1186q0 -68 86 -103q65 -24 145 -24q150 0 266 78q125 88 125 235q0 76 -30 129q-40 64 -111 64q-123 0 -297 -131q-184 -135 -184 -248z" />
<glyph unicode="9" horiz-adv-x="1853" d="M57 774q0 276 510 709q161 137 346 221q210 100 398 100q190 0 317 -118q199 -181 199 -394q0 -94 -58 -225q-179 -424 -241 -795l-21 -135q-12 -78 -30 -131q-20 -55 -107 -104q-77 -41 -145 -41q-103 0 -103 84l7 23q3 15 14 63q8 33 12 53q10 48 27.5 128t46.5 213.5 t53 242.5q-385 -185 -782 -185q-443 0 -443 291zM461 995q0 -96 155 -145q110 -37 234 -37q202 0 364 84q197 105 197 291q0 272 -244 272q-249 0 -542 -241q-164 -135 -164 -224z" />
<glyph unicode=":" horiz-adv-x="825" d="M-16 25q0 86 98 315q34 82 190 82q148 0 148 -76q0 -29 -68 -168q-65 -134 -90 -168q-50 -71 -164 -71t-114 86zM231 725q0 37 41 158q30 95 60 159q34 82 186 82t152 -73q0 -27 -70 -170q-67 -143 -88 -170q-51 -72 -164 -72q-117 0 -117 86z" />
<glyph unicode=";" horiz-adv-x="886" d="M-178 -287q0 41 104 193l131 192l136 207q95 121 198 121q60 0 105 -31q53 -35 53 -92q0 -18 -2 -24q-7 -32 -211 -299l-166 -218q-136 -157 -213 -157q-54 0 -90 26q-45 29 -45 82zM256 739q0 85 98 320q34 82 189 82q151 0 151 -74q0 -27 -67 -170q-62 -122 -92 -172 q-49 -70 -164 -70t-115 84z" />
<glyph unicode="&#x3c;" horiz-adv-x="1880" d="M102 723q0 66 60 154q58 85 125 94q276 191 1147 770l243 160q61 34 109 34q63 0 114.5 -45.5t51.5 -105.5q0 -88 -176 -174q-103 -50 -134 -66q-595 -333 -1099 -743q84 -66 712 -594q89 -74 123 -101q72 -72 72 -133q0 -63 -57 -143q-64 -88 -123 -88q-39 0 -125 92 l-113 125q-133 150 -340 320q-221 182 -381 268q-34 15 -129 65q-80 47 -80 111z" />
<glyph unicode="=" horiz-adv-x="1724" d="M172 553q0 156 205 156h96q277 10 436 34q57 10 267 70q204 59 229 59q54 0 88 -61q29 -56 29 -111q0 -100 -129 -159q-98 -45 -273 -66q-72 -6 -227 -22q-454 -70 -576 -70q-64 0 -104.5 49.5t-40.5 120.5zM180 1020q0 116 96 143q44 15 189 15q358 0 715 104 q213 61 229 61q56 0 90 -57q29 -53 29 -110q0 -108 -129 -166q-103 -44 -269 -64l-233 -24q-456 -66 -571 -66q-66 0 -106 47t-40 117z" />
<glyph unicode="&#x3e;" horiz-adv-x="1894" d="M-20 -102q0 107 106 182l221 131q160 94 1047 600q-281 405 -697 737q-63 41 -184 146q-20 26 -20 55q0 68 86 127q74 51 149 51q81 0 148 -67l116 -123l369 -379q215 -222 356 -387q88 -15 88 -168q0 -107 -84 -160q-21 -8 -196 -88q-559 -255 -1235 -715 q-140 -98 -178 -98q-92 0 -92 156z" />
<glyph unicode="?" horiz-adv-x="1959" d="M59 57q0 10 11 47l47 140q23 75 78 106q43 27 131 27q149 0 149 -70q0 -20 -63 -137q-63 -119 -82 -133q-49 -49 -152 -49q-119 0 -119 69zM307 672q0 85 96 303q24 48 49 65t78 17h99q30 0 57 -2h41q260 0 483 67q322 102 322 310q0 108 -152 186q-123 63 -250 63 q-125 0 -290 -67q-95 -39 -248 -123q-122 -70 -148 -70q-59 0 -59 68q0 217 381 373q314 129 569 129q237 0 422 -117q219 -136 219 -356q0 -373 -506 -578q-353 -144 -825 -178q-57 -108 -74 -125q-40 -43 -139 -43q-125 0 -125 78z" />
<glyph unicode="@" horiz-adv-x="2273" d="M55 430q0 334 264 694q234 311 555 514q362 226 674 226q288 0 475 -178q189 -180 189 -463q0 -341 -264 -695q-229 -306 -555 -510q-360 -225 -674 -225q-289 0 -477 176q-187 175 -187 461zM428 539q0 -196 96 -324q109 -139 295 -139q169 0 373 104q274 138 440 369 q183 251 183 538q0 198 -99 324q-108 141 -299 141q-169 0 -370 -104q-273 -138 -441 -371q-178 -248 -178 -538zM553 420q0 172 250 428q207 213 463 213q48 0 120 -10q1 32 -18.5 47.5t-62.5 15.5q-63 0 -183 -24q-131 -23 -178 -23q-50 0 -83.5 38t-33.5 93q0 94 129 129 q213 62 424 62q135 0 191 -41q65 -47 65 -179q0 -81 -57 -350q-34 -178 -90 -280q-71 -126 -203 -215q-189 -121 -424 -121q-129 0 -209 45q-100 54 -100 172zM819 555q0 -39 53 -66q41 -20 91 -20q98 0 198 63q117 70 117 160q0 41 -22 76t-56 35q-68 0 -221 -90 q-160 -95 -160 -158z" />
<glyph unicode="A" d="M-158 45q0 72 84 168l133 145q222 252 480 646l432 677q84 134 229 134q82 0 109 -76q7 -50 14 -146q71 -744 223 -1202l43 -123q29 -85 29 -125q0 -75 -94 -139q-85 -61 -164 -61q-72 0 -107 108q-10 38 -26 172q-392 -88 -1026 -198q-126 -185 -203 -185q-73 0 -119 70 q-37 58 -37 135zM459 395q380 65 712 172q-36 248 -114 729q-164 -237 -598 -901z" />
<glyph unicode="B" horiz-adv-x="1802" d="M18 -4q0 109 86 477q24 100 121 483q-71 18 -71 123q0 96 61 178q43 58 137 140q216 195 391 286q226 119 471 119q223 0 363 -94q162 -107 162 -322q0 -366 -441 -616q121 -54 195 -137q88 -98 88 -217q0 -292 -514 -451q-263 -80 -661 -80q-242 0 -304 19 q-84 27 -84 92zM367 221q211 -12 368 -12q153 0 307 22q248 43 248 140q0 79 -205 131q-157 43 -272 43q-214 0 -418 -121zM481 811q568 21 776 188q179 141 179 256q0 98 -119 156q-100 47 -209 47q-218 0 -514 -231q-50 -164 -113 -416z" />
<glyph unicode="C" horiz-adv-x="1816" d="M-39 338q0 109 31 221q144 525 637 889q485 356 1034 356q149 0 149 -84q0 -14 -22 -127q-8 -33 -8 -184q0 -102 -123 -172q-92 -57 -152 -57q-82 0 -82 151q0 5 1 16t2 29.5t2 36.5q-480 -80 -797 -356q-363 -319 -363 -568q0 -125 109 -190q85 -49 223 -49 q149 0 379 88q78 30 371 168q183 88 227 88q68 0 68 -78q0 -98 -78 -164q-9 -9 -162 -100q-600 -356 -1001 -356q-211 0 -328 116t-117 326z" />
<glyph unicode="D" horiz-adv-x="1968" d="M-33 -35q0 82 111 533l135 553q-12 30 -12 69q0 172 348 393q175 114 309 170q254 109 473 109q262 0 430 -162q172 -159 172 -418q0 -491 -522 -854q-423 -293 -977 -395q-79 -10 -244 -43q-40 -9 -95 -22l-48 -11q-80 0 -80 78zM336 252q814 85 1106 512 q104 149 104 305q0 172 -116 279q-109 100 -287 100q-270 0 -588 -238q-164 -498 -219 -958z" />
<glyph unicode="E" horiz-adv-x="1812" d="M25 -27q0 103 55 338q40 156 84 340q-55 37 -55 105q0 60 37.5 121t91.5 86l124 491q22 80 33 105q23 40 76 77q30 18 131 47q266 77 344 97q160 39 361 39q101 0 161 -11q81 -19 127.5 -78.5t46.5 -125.5q0 -129 -192 -150q-324 -36 -412 -47q-165 -21 -409 -115 q-36 -101 -74 -237q503 131 952 131q80 0 111 -8q50 -11 98 -50q64 -52 64 -108q0 -11 -4 -27q-27 -80 -197 -98q-709 -81 -1114 -201q-55 -237 -82 -467q225 3 461 54l456 100q62 10 80 10q105 0 105 -76q0 -62 -62 -139q-56 -70 -123 -106q-205 -106 -530 -162 q-276 -49 -557 -49q-188 0 -188 114z" />
<glyph unicode="F" horiz-adv-x="1634" d="M-23 -25q0 39 46 236q70 305 102 430q-55 34 -55 107q0 65 38.5 129t92.5 84l98 393q6 33 39 157q23 68 90 113q40 27 133 51q290 83 346 97q156 38 359 38q109 0 161 -10q81 -18 129 -77t48 -126q0 -130 -195 -151l-414 -45q-166 -25 -409 -115l-68 -231 q460 123 864 123q91 0 164 -37q92 -47 92 -129q0 -104 -188 -125q-652 -77 -1024 -195q-17 -64 -43 -344q-21 -223 -61 -323q-20 -58 -101 -101q-70 -37 -139 -37q-105 0 -105 88z" />
<glyph unicode="G" horiz-adv-x="2035" d="M0 328q0 115 35 237q144 517 635 877q480 352 1028 352q147 0 147 -86q0 -21 -16 -115q-10 -55 -10 -172q0 -124 -125 -194q-92 -56 -146 -56q-65 0 -80 93q-5 29 -5 88q0 25 1 55q-606 -102 -983 -547q-182 -215 -182 -381q0 -122 94 -180q80 -53 209 -53q233 0 582 145 q99 43 233 115q189 106 189 149q0 37 -72 37q-323 0 -893 -125q-65 -12 -90 -12q-84 0 -84 76q0 72 84 162q73 73 156 108q101 46 360 76q215 22 371 22q524 0 524 -211q0 -195 -420 -473q-652 -434 -1081 -434q-222 0 -341.5 115.5t-119.5 331.5z" />
<glyph unicode="H" d="M27 -33q0 32 18 115q50 201 141 688q81 432 148 684q25 92 45 125q35 62 110 96q67 33 146 33q106 0 106 -84q0 -42 -30 -131q-95 -263 -152 -473q393 114 764 135q55 229 117 440q65 209 303 209q102 0 102 -78q0 -8 -4 -28q-84 -196 -192 -551q120 -59 120 -150 q0 -63 -71 -98q-52 -24 -129 -27q-100 -389 -121 -550q-7 -68 -21 -183q-22 -80 -96 -125q-65 -45 -153 -45q-105 0 -105 86q0 87 33 199q8 24 53 197q12 41 88 385q-411 -57 -778 -181q-63 -284 -84 -532q-3 -88 -25 -131q-24 -49 -102 -84q-65 -33 -131 -33 q-100 0 -100 92z" />
<glyph unicode="I" horiz-adv-x="1492" d="M-61 -2q0 32 10 70q38 139 194 139q15 0 69 -3t71 -3q44 0 114 4q79 393 273 1143q-204 -82 -252 -82q-109 0 -109 141q0 86 42 159.5t114 108.5q311 158 729 158q155 0 240 -31q133 -50 133 -180q0 -142 -195 -154q-274 -20 -366 -28q-219 -638 -283 -1186l192 51 q118 31 197 31q88 0 88 -60q0 -57 -57 -126q-61 -73 -111 -99q-156 -79 -426 -129q-246 -47 -446 -47q-108 0 -146 14q-75 26 -75 109z" />
<glyph unicode="J" horiz-adv-x="1925" d="M41 580q0 138 35 254q46 147 200 147q99 0 99 -139q0 -10 -4 -92t-4 -93q0 -190 107.5 -299.5t297.5 -109.5q174 0 334 100q166 102 244 254q67 134 135 391q67 256 67 404v51q-3 29 -28 29q-82 0 -240 -35t-237 -35q-70 0 -70 76q0 78 57 153q59 77 135 107 q160 63 521 63q144 0 196 -24q86 -38 86 -162q0 -214 -129 -571q-121 -338 -244 -537q-169 -277 -397 -428q-260 -172 -547 -172q-282 0 -452 194q-162 186 -162 474z" />
<glyph unicode="K" horiz-adv-x="1712" d="M-29 16q0 17 23 121q148 639 325 1356q19 81 48 133q74 133 266 133q106 0 106 -80q0 -45 -41 -151q-5 -12 -26.5 -63.5t-36.5 -90.5q-73 -189 -148 -459q639 477 1016 727q107 70 207 70q152 0 152 -88q0 -19 -4 -31q-19 -49 -138 -131q-44 -31 -575 -428 q-281 -208 -502 -381q333 -309 713 -469q65 -41 65 -80q0 -58 -116 -110q-102 -45 -172 -45q-57 0 -453 153q-201 77 -330 191q-19 -169 -26 -191q-53 -176 -250 -176q-103 0 -103 90z" />
<glyph unicode="L" horiz-adv-x="1611" d="M29 31q0 108 153 768q151 650 201 780q70 168 248 168q102 0 102 -80q0 -39 -39 -143q-241 -639 -309 -1235q205 3 391 35q132 22 264 55l263 61q57 11 81 11q105 0 105 -78q0 -70 -62 -144q-50 -61 -120 -100q-186 -98 -529 -160q-307 -53 -557 -53q-192 0 -192 115z " />
<glyph unicode="M" horiz-adv-x="2226" d="M-150 43q0 66 60 154l104 137q184 262 379 622l344 646q71 135 183 135q88 0 88 -170q0 -13 -4 -111q-1 -18 -3 -57t-2 -53q0 -328 52 -781q248 406 452 811q36 79 176 359q71 133 179 133q92 0 92 -199q0 -50 -15 -188v2l-4 -408q0 -421 37 -676l21 -116q12 -71 12 -121 q0 -76 -90 -160t-162 -84q-48 0 -74 45q-19 32 -28 518l-13 586q-174 -304 -323 -586l-168 -313q-133 -242 -174 -283q-57 -51 -99 -51q-58 0 -96 74q-26 56 -26 129q0 51 18 92q-12 214 -37 868l-543 -927l-86 -142q-64 -94 -120 -94q-63 0 -103 76q-27 58 -27 133z" />
<glyph unicode="N" horiz-adv-x="1849" d="M-74 -78q0 27 23 117l28 119q195 858 291 1216q33 127 66 178q53 75 160 101q58 10 92 10q78 0 104 -45l613 -1034q22 53 159 506l80 305q120 440 373 440q94 0 94 -74q0 -45 -61 -182q-339 -761 -441 -1399q-14 -101 -30 -137q-53 -102 -238 -102q-102 0 -102 57 q0 4 4 16l-633 1024q-168 -530 -215 -886l-21 -175q-21 -76 -118 -116q-73 -31 -127 -31q-101 0 -101 92z" />
<glyph unicode="O" horiz-adv-x="2197" d="M27 528q0 349 233 664q209 286 539 471q337 184 667 184q312 0 516 -174q218 -182 218 -491q0 -346 -236 -664q-210 -287 -539 -469q-334 -184 -665 -184q-314 0 -518 174q-215 182 -215 489zM424 631q0 -220 131 -357t348 -137q337 0 606 291q267 285 267 625 q0 217 -131 354q-133 139 -347 139q-338 0 -610 -291q-264 -285 -264 -624z" />
<glyph unicode="P" horiz-adv-x="1734" d="M-35 -45q0 95 111 532l139 549q-10 33 -10 68q0 109 110 225q61 67 199 168q154 112 281 176q269 133 485 133q223 0 373 -120q162 -128 162 -345q0 -425 -541 -702q-389 -201 -916 -274l-12 -177q-9 -111 -29 -161q-26 -75 -106 -117q-72 -35 -150 -35q-96 0 -96 80z M416 680q596 27 825 215q199 166 199 311q0 118 -123 189q-106 59 -232 59q-226 0 -526 -233q-78 -250 -143 -541z" />
<glyph unicode="Q" horiz-adv-x="2267" d="M45 522q0 346 231 666q203 286 539 473q329 186 664 186q312 0 520 -172q219 -183 219 -489q0 -263 -147 -524q-129 -226 -353 -422q142 -62 142 -129q0 -53 -64 -93q-52 -38 -110 -38q-52 0 -226 79q-332 -192 -682 -192q-318 0 -516 168q-217 178 -217 487zM442 633 q0 -221 129 -359q131 -137 349 -137q133 0 272 62q-387 237 -387 487q0 77 53 172q59 109 127 109q37 0 74 -49l203 -273q126 -164 231 -248q135 129 215 293q88 177 88 350q0 218 -125 361q-128 149 -344 149q-340 0 -612 -288q-273 -285 -273 -629z" />
<glyph unicode="R" horiz-adv-x="1785" d="M27 -29q0 59 63 332q43 190 170 698q-70 46 -70 144q0 84 107 182q506 475 971 475q224 0 389 -121q174 -131 174 -354q0 -348 -383 -602q-283 -186 -700 -289q162 -100 319 -157q43 -10 156 -48q61 -27 61 -73q0 -57 -61 -103q-62 -47 -121 -47q-129 0 -365 72 q-216 70 -346 139q0 -76 -20 -205q-21 -59 -95 -100q-64 -37 -137 -37q-112 0 -112 94zM473 690q583 21 811 211q201 171 201 318q0 116 -119 186q-99 57 -225 57q-228 0 -525 -233q-78 -245 -143 -539z" />
<glyph unicode="S" horiz-adv-x="1976" d="M-43 322q0 86 27 151q35 92 106 92q74 0 115 -92q54 -130 102 -174q106 -92 336 -92q206 0 397 84q200 89 312 254q51 71 51 108q0 16 -29 29q-138 61 -512 82q-291 14 -549 29q-172 12 -172 145q0 178 303 438q551 473 1172 473q147 0 147 -98q0 -200 -26 -291 q-17 -54 -109 -112q-89 -56 -149 -56q-90 0 -93 107l-2 69l-30 2q-20 1 -41 1q-174 0 -371 -91q-201 -92 -340 -250q35 5 160 5h39q140 0 512 -31q418 -35 497 -68q68 -27 68 -118q0 -101 -53 -193q-204 -357 -629 -602q-423 -244 -831 -244q-147 0 -228 51t-135 179 q-45 102 -45 213z" />
<glyph unicode="T" horiz-adv-x="1398" d="M166 1409q0 178 168 254q351 158 893 158q411 0 411 -224q0 -129 -219 -141q-127 -7 -422 -26q-222 -653 -282 -1199q-2 -5 -17 -178q-21 -78 -118 -123q-65 -32 -134 -32q-98 0 -98 82q0 50 82 397q127 542 240 985q-329 -109 -373 -109q-63 0 -97 44.5t-34 111.5z" />
<glyph unicode="U" horiz-adv-x="1800" d="M23 23q0 21 18 104q83 390 274 1186q29 120 84 284q74 164 275 164q114 0 114 -80q0 -40 -45 -145q-121 -293 -221 -670q-123 -455 -123 -535v-7v-11l2 4q96 3 424 123q263 98 432 174q110 499 162 695l62 227q46 125 137 182q76 43 160 43q118 0 118 -86q0 -44 -47 -159 l-67 -162q-209 -559 -275 -1051q-3 -19 -6 -47.5t-7.5 -72t-8.5 -77.5q-21 -84 -99 -135q-67 -43 -159 -43q-103 0 -103 84q0 22 47 221q-196 -89 -505 -188q-369 -117 -512 -117q-131 0 -131 95z" />
<glyph unicode="V" horiz-adv-x="1441" d="M240 1460q0 174 24 223q45 91 201 91q102 0 102 -146q0 -43 -8 -98l-10 -98q-14 -158 -14 -394q0 -293 30 -569l297 475l191 309q108 178 200 299q85 111 217 111q52 0 93 -21q47 -27 47 -71q0 -43 -88 -156q-13 -16 -52.5 -66t-68.5 -85q-349 -468 -604 -1024 q-11 -26 -109 -240q-57 -84 -209 -84q-78 0 -110 14q-56 21 -74 84q-10 39 -25 314q-30 624 -30 1132z" />
<glyph unicode="W" horiz-adv-x="2197" d="M233 1493q0 85 86 174q85 88 173 88q72 0 90 -133q5 -28 8 -182l-2 43q-2 -38 -2 -334q0 -243 14 -547q149 261 487 780q150 234 265 234q88 0 88 -172q0 -64 35 -397q18 -193 28 -377q113 193 572 968l73 121q57 78 107 78q67 0 102 -74q31 -60 31 -133q0 -64 -82 -180 q-223 -315 -428 -676q-85 -147 -381 -704q-71 -133 -178 -133q-77 0 -92 167q-3 34 -3 112q0 47 1 110q0 200 -15 295l-53 352q-351 -566 -602 -1034q-72 -134 -178 -134q-60 0 -78 62q-6 27 -6 106q0 19 4 109q2 53 2 106q4 218 4 387q0 444 -37 713q0 8 -20 105 q-13 67 -13 100z" />
<glyph unicode="X" horiz-adv-x="1579" d="M-51 10q0 19 2 25q8 37 647 796l-190 367q-136 269 -136 358q0 87 64 175q65 92 145 92q74 0 121 -154q33 -103 33 -106q91 -252 190 -461l271 323q168 199 284 310q76 73 170 73q68 0 121 -36q66 -41 66 -103q0 -39 -35 -86q-32 -28 -137 -133q-276 -270 -598 -629 q14 -27 94 -174q71 -119 106 -166q64 -78 123 -166q10 -23 10 -47q0 -79 -73 -170q-76 -98 -154 -98q-55 0 -188 250l-152 305q-202 -234 -325 -408q-24 -37 -146 -200q-49 -64 -149 -64q-63 0 -111 31q-53 38 -53 96z" />
<glyph unicode="Y" horiz-adv-x="1681" d="M127 16v23q3 19 479 600l-184 375l-107 209q-50 100 -94 213q-14 43 -14 77q0 69 72 166q75 97 143 97q39 0 74 -54l57 -159q117 -345 278 -658l498 580l225 254q70 76 175 76q65 0 124 -41q60 -42 60 -105q0 -21 -2 -27q-15 -43 -154 -176q-731 -712 -1130 -1263 q-58 -85 -138 -197q-92 -121 -190 -121q-69 0 -117 31q-55 34 -55 100z" />
<glyph unicode="Z" horiz-adv-x="1839" d="M-94 96q0 93 155 230q41 33 105 94q570 541 1063 997h-25q-298 0 -647 -71q-31 -7 -53 -7q-63 0 -101 39t-38 105q0 158 172 219q256 90 626 90q235 0 381 -33q268 -56 268 -192q0 -108 -217 -267q-84 -61 -135 -102q-591 -470 -1059 -962q127 -5 156 -5q218 0 811 58 q64 6 76 6q131 0 131 -84q0 -65 -74 -127q-62 -55 -131 -76q-320 -102 -946 -102q-254 0 -375 28q-143 34 -143 162z" />
<glyph unicode="[" horiz-adv-x="1376" d="M-98 -225q0 30 35 133q0 13 36 176q207 928 404 1638q41 156 84 228q73 131 182 131h174l174 2l-43 1q20 2 217 7q145 0 236 -16q117 -27 117 -97q0 -68 -54 -153q-58 -94 -125 -94q-70 0 -190 32q-121 33 -193 33q-59 0 -200 -16q-170 -486 -281 -895 q-37 -142 -100 -479q-69 -354 -101 -480q65 -8 134 -8q123 0 290 37q119 22 154 22q90 0 90 -133q0 -150 -94 -190q-62 -27 -471 -27h-78q-45 2 -104 2h-183q-110 0 -110 146z" />
<glyph unicode="\" horiz-adv-x="1556" d="M252 1686q0 65 90 112q74 39 147 39q82 0 129 -47q30 -39 68 -121q159 -365 537 -1358q15 -40 61 -149q41 -109 41 -144q0 -69 -88 -112q-72 -35 -147 -35q-97 0 -134 125q-16 69 -53 199q-168 566 -479 1134l-102 178q-70 128 -70 179z" />
<glyph unicode="]" horiz-adv-x="1425" d="M-111 -268q0 68 54 153q59 92 123 92q62 0 188 -30q133 -31 199 -31q65 0 182 12q48 181 153 480q113 323 158 483q110 396 203 891q-105 12 -170 12q-102 0 -268 -39q-120 -24 -156 -24q-88 0 -88 131q0 150 90 194q59 27 479 27h74q45 -2 107 -2h182q129 0 129 -148 q0 -77 -35 -217q-128 -485 -354 -1239l-127 -411q-26 -80 -54 -177l-12 -73q-22 -70 -67 -121q-60 -66 -117 -66h-172l-170 -2l36 -1q-18 -1 -212 -7q-158 -3 -236 16q-119 27 -119 97z" />
<glyph unicode="^" horiz-adv-x="866" d="M211 1532q3 24 51 72q204 207 354 432q25 32 76 32q79 0 88 -59q58 -75 209 -285l43 -57q18 -34 12 -68t-35 -64t-63 -30q-25 0 -40 18.5t-41 68.5q-2 3 -2.5 5t-2 4.5t-2.5 4.5q-77 139 -180 245q-145 -176 -244 -290l-43 -50q-51 -62 -110 -53q-82 15 -70 74z" />
<glyph unicode="_" horiz-adv-x="1945" d="M-111 -125q0 174 148 174q58 0 379 -29q231 -22 420 -22q121 0 415 35q169 18 195 18q64 0 102.5 -46.5t38.5 -117.5q0 -136 -119 -163q-12 -3 -165 -9q-322 -10 -701 -10q750 0 -2 -5h-1h-1h-1h-1h-1h-1h-1h-1h-1h-1h-1h-1h-1h-1h-1h-1h-1h-1h-1h-1h-1h-1h-1h-1h-1h-1 h-1h-1h-1h-1h-1h-1h-1h-1h-1h-1h-1h-1h-1h-1h-1h-1h-1h-1h-1h-1h-1h-1h-1h-1h-1h-1h-1h-1h-1h-1h-1h-1h-1h-1h-1h-1h-1h-1h-1h-1h-1h-1h-1h-1h-1h-1h-1h-1h-1h-1h-1h-1h-1h-1h-1h-1h-1h-1h-1h-1h-1h-1h-1h-1h-1h-1h-1h-1h-1h-1h-1h-1h-1h-1h-1h-1h-1h-1h-1h-1h-1h-1h-1h-1 h-1h-1h-1h-1h-1h-1h-1h-1h-1h-1h-1h-1h-1h-1h-1h-1h-1h-1h-1h-1h-1h-1h-1h-1h-1h-1h-1h-1h-1h-1h-1h-1h-1h-1h-1h-1h-1h-1h-1h-1h-1h-1h-1h-1h-1l-1 -1h-1h-1h-1h-1h-1h-1h-1h-1h-1h-1h-1h-1h-1h-1h-1h-1h-1h-1h-1h-1h-1h-1h-1h-1h-1h-1h-1h-1h-1h-1h-1h-1h-1h-1h-1h-1h-1 h-1h-1h-1h-1h-1h-1h-1h-1h-1h-1h-1h-1h-1h-1h-1h-1h-1h-1h-1h-1h-1h-1h-1h-1h-1h-1h-1h-1h-1h-1h-1h-1h-1h-1h-1h-1h-1h-1h-1h-1h-1h-1h-1h-1h-1h-1h-1h-1h-1h-1h-1h-2q-193 -3 -311 29q-154 47 -154 147z" />
<glyph unicode="`" horiz-adv-x="796" d="M223 1939q0 110 86 166q53 35 109 11l20 -11q35 -24 191 -309q141 -252 184 -350q25 -55 25 -96q0 -51 -38.5 -95.5t-86.5 -44.5q-72 0 -142 125q-44 76 -163 250q-106 156 -156 250q-29 56 -29 104z" />
<glyph unicode="a" d="M-158 45q0 72 84 168l133 145q222 252 480 646l432 677q84 134 229 134q82 0 109 -76q7 -50 14 -146q71 -744 223 -1202l43 -123q29 -85 29 -125q0 -75 -94 -139q-85 -61 -164 -61q-72 0 -107 108q-10 38 -26 172q-392 -88 -1026 -198q-126 -185 -203 -185q-73 0 -119 70 q-37 58 -37 135zM459 395q380 65 712 172q-36 248 -114 729q-164 -237 -598 -901z" />
<glyph unicode="b" horiz-adv-x="1802" d="M18 -4q0 109 86 477q24 100 121 483q-71 18 -71 123q0 96 61 178q43 58 137 140q216 195 391 286q226 119 471 119q223 0 363 -94q162 -107 162 -322q0 -366 -441 -616q121 -54 195 -137q88 -98 88 -217q0 -292 -514 -451q-263 -80 -661 -80q-242 0 -304 19 q-84 27 -84 92zM367 221q211 -12 368 -12q153 0 307 22q248 43 248 140q0 79 -205 131q-157 43 -272 43q-214 0 -418 -121zM481 811q568 21 776 188q179 141 179 256q0 98 -119 156q-100 47 -209 47q-218 0 -514 -231q-50 -164 -113 -416z" />
<glyph unicode="c" horiz-adv-x="1816" d="M-39 338q0 109 31 221q144 525 637 889q485 356 1034 356q149 0 149 -84q0 -14 -22 -127q-8 -33 -8 -184q0 -102 -123 -172q-92 -57 -152 -57q-82 0 -82 151q0 5 1 16t2 29.5t2 36.5q-480 -80 -797 -356q-363 -319 -363 -568q0 -125 109 -190q85 -49 223 -49 q149 0 379 88q78 30 371 168q183 88 227 88q68 0 68 -78q0 -98 -78 -164q-9 -9 -162 -100q-600 -356 -1001 -356q-211 0 -328 116t-117 326z" />
<glyph unicode="d" horiz-adv-x="1968" d="M-33 -35q0 82 111 533l135 553q-12 30 -12 69q0 172 348 393q175 114 309 170q254 109 473 109q262 0 430 -162q172 -159 172 -418q0 -491 -522 -854q-423 -293 -977 -395q-79 -10 -244 -43q-40 -9 -95 -22l-48 -11q-80 0 -80 78zM336 252q814 85 1106 512 q104 149 104 305q0 172 -116 279q-109 100 -287 100q-270 0 -588 -238q-164 -498 -219 -958z" />
<glyph unicode="e" horiz-adv-x="1812" d="M25 -27q0 103 55 338q40 156 84 340q-55 37 -55 105q0 60 37.5 121t91.5 86l124 491q22 80 33 105q23 40 76 77q30 18 131 47q266 77 344 97q160 39 361 39q101 0 161 -11q81 -19 127.5 -78.5t46.5 -125.5q0 -129 -192 -150q-324 -36 -412 -47q-165 -21 -409 -115 q-36 -101 -74 -237q503 131 952 131q80 0 111 -8q50 -11 98 -50q64 -52 64 -108q0 -11 -4 -27q-27 -80 -197 -98q-709 -81 -1114 -201q-55 -237 -82 -467q225 3 461 54l456 100q62 10 80 10q105 0 105 -76q0 -62 -62 -139q-56 -70 -123 -106q-205 -106 -530 -162 q-276 -49 -557 -49q-188 0 -188 114z" />
<glyph unicode="f" horiz-adv-x="1634" d="M-23 -25q0 39 46 236q70 305 102 430q-55 34 -55 107q0 65 38.5 129t92.5 84l98 393q6 33 39 157q23 68 90 113q40 27 133 51q290 83 346 97q156 38 359 38q109 0 161 -10q81 -18 129 -77t48 -126q0 -130 -195 -151l-414 -45q-166 -25 -409 -115l-68 -231 q460 123 864 123q91 0 164 -37q92 -47 92 -129q0 -104 -188 -125q-652 -77 -1024 -195q-17 -64 -43 -344q-21 -223 -61 -323q-20 -58 -101 -101q-70 -37 -139 -37q-105 0 -105 88z" />
<glyph unicode="g" horiz-adv-x="2035" d="M0 328q0 115 35 237q144 517 635 877q480 352 1028 352q147 0 147 -86q0 -21 -16 -115q-10 -55 -10 -172q0 -124 -125 -194q-92 -56 -146 -56q-65 0 -80 93q-5 29 -5 88q0 25 1 55q-606 -102 -983 -547q-182 -215 -182 -381q0 -122 94 -180q80 -53 209 -53q233 0 582 145 q99 43 233 115q189 106 189 149q0 37 -72 37q-323 0 -893 -125q-65 -12 -90 -12q-84 0 -84 76q0 72 84 162q73 73 156 108q101 46 360 76q215 22 371 22q524 0 524 -211q0 -195 -420 -473q-652 -434 -1081 -434q-222 0 -341.5 115.5t-119.5 331.5z" />
<glyph unicode="h" d="M27 -33q0 30 18 115q50 201 141 688q81 432 148 684q25 92 45 125q35 62 110 96q67 33 146 33q106 0 106 -84q0 -42 -30 -131q-95 -263 -152 -473q393 114 764 135q55 229 117 440q65 209 303 209q102 0 102 -78q0 -8 -4 -28q-84 -196 -192 -551q120 -59 120 -150 q0 -63 -71 -98q-52 -24 -129 -27q-100 -389 -121 -550q-7 -68 -21 -183q-22 -80 -96 -125q-65 -45 -153 -45q-105 0 -105 86q0 87 33 199q8 24 53 197q12 41 88 385q-411 -57 -778 -181q-63 -284 -84 -532q-3 -88 -25 -131q-24 -49 -102 -84q-65 -33 -131 -33 q-100 0 -100 92z" />
<glyph unicode="i" horiz-adv-x="751" d="M18 14q0 15 25 121q115 486 324 1342q23 101 45 143q70 137 268 137q111 0 111 -78q0 -43 -48 -161l-67 -164q-236 -633 -295 -1182q-12 -105 -27 -131q-22 -49 -100 -84q-70 -31 -129 -31q-107 0 -107 88z" />
<glyph unicode="j" horiz-adv-x="1925" d="M41 580q0 138 35 254q46 147 200 147q99 0 99 -139q0 -10 -4 -92t-4 -93q0 -190 107.5 -299.5t297.5 -109.5q174 0 334 100q166 102 244 254q67 134 135 391q67 256 67 404v51q-3 29 -28 29q-82 0 -240 -35t-237 -35q-70 0 -70 76q0 78 57 153q59 77 135 107 q160 63 521 63q144 0 196 -24q86 -38 86 -162q0 -214 -129 -571q-121 -338 -244 -537q-169 -277 -397 -428q-260 -172 -547 -172q-282 0 -452 194q-162 186 -162 474z" />
<glyph unicode="k" horiz-adv-x="1712" d="M-29 16q0 17 23 121q148 639 325 1356q19 81 48 133q74 133 266 133q106 0 106 -80q0 -45 -41 -151q-5 -12 -26.5 -63.5t-36.5 -90.5q-73 -189 -148 -459q639 477 1016 727q107 70 207 70q152 0 152 -88q0 -19 -4 -31q-19 -49 -138 -131q-44 -31 -575 -428 q-281 -208 -502 -381q333 -309 713 -469q65 -41 65 -80q0 -58 -116 -110q-102 -45 -172 -45q-57 0 -453 153q-201 77 -330 191q-19 -169 -26 -191q-53 -176 -250 -176q-103 0 -103 90z" />
<glyph unicode="l" horiz-adv-x="1611" d="M29 31q0 108 153 768q151 650 201 780q70 168 248 168q102 0 102 -80q0 -39 -39 -143q-241 -639 -309 -1235q205 3 391 35q132 22 264 55l263 61q57 11 81 11q105 0 105 -78q0 -70 -62 -144q-50 -61 -120 -100q-186 -98 -529 -160q-307 -53 -557 -53q-192 0 -192 115z " />
<glyph unicode="m" horiz-adv-x="2226" d="M-150 43q0 66 60 154l104 137q184 262 379 622l344 646q71 135 183 135q88 0 88 -170q0 -13 -4 -111q-1 -18 -3 -57t-2 -53q0 -328 52 -781q248 406 452 811q36 79 176 359q71 133 179 133q92 0 92 -199q0 -50 -15 -188v2l-4 -408q0 -421 37 -676l21 -116q12 -71 12 -121 q0 -76 -90 -160t-162 -84q-48 0 -74 45q-19 32 -28 518l-13 586q-174 -304 -323 -586l-168 -313q-133 -242 -174 -283q-57 -51 -99 -51q-58 0 -96 74q-26 56 -26 129q0 51 18 92q-12 214 -37 868l-543 -927l-86 -142q-64 -94 -120 -94q-63 0 -103 76q-27 58 -27 133z" />
<glyph unicode="n" horiz-adv-x="1849" d="M-74 -78q0 27 23 117l28 119q195 858 291 1216q33 127 66 178q53 75 160 101q58 10 92 10q78 0 104 -45l613 -1034q22 53 159 506l80 305q120 440 373 440q94 0 94 -74q0 -45 -61 -182q-339 -761 -441 -1399q-14 -101 -30 -137q-53 -102 -238 -102q-102 0 -102 57 q0 4 4 16l-633 1024q-168 -530 -215 -886l-21 -175q-21 -76 -118 -116q-73 -31 -127 -31q-101 0 -101 92z" />
<glyph unicode="o" horiz-adv-x="2197" d="M27 528q0 349 233 664q209 286 539 471q337 184 667 184q312 0 516 -174q218 -182 218 -491q0 -346 -236 -664q-210 -287 -539 -469q-334 -184 -665 -184q-314 0 -518 174q-215 182 -215 489zM424 631q0 -220 131 -357t348 -137q337 0 606 291q267 285 267 625 q0 217 -131 354q-133 139 -347 139q-338 0 -610 -291q-264 -285 -264 -624z" />
<glyph unicode="p" horiz-adv-x="1734" d="M-35 -45q0 95 111 532l139 549q-10 33 -10 68q0 109 110 225q61 67 199 168q154 112 281 176q269 133 485 133q223 0 373 -120q162 -128 162 -345q0 -425 -541 -702q-389 -201 -916 -274l-12 -177q-9 -111 -29 -161q-26 -75 -106 -117q-72 -35 -150 -35q-96 0 -96 80z M416 680q596 27 825 215q199 166 199 311q0 118 -123 189q-106 59 -232 59q-226 0 -526 -233q-78 -250 -143 -541z" />
<glyph unicode="q" horiz-adv-x="2267" d="M45 522q0 346 231 666q203 286 539 473q329 186 664 186q312 0 520 -172q219 -183 219 -489q0 -263 -147 -524q-129 -226 -353 -422q142 -62 142 -129q0 -53 -64 -93q-52 -38 -110 -38q-52 0 -226 79q-332 -192 -682 -192q-318 0 -516 168q-217 178 -217 487zM442 633 q0 -221 129 -359q131 -137 349 -137q133 0 272 62q-387 237 -387 487q0 77 53 172q59 109 127 109q37 0 74 -49l203 -273q126 -164 231 -248q135 129 215 293q88 177 88 350q0 218 -125 361q-128 149 -344 149q-340 0 -612 -288q-273 -285 -273 -629z" />
<glyph unicode="r" horiz-adv-x="1785" d="M27 -29q0 59 63 332q43 190 170 698q-70 46 -70 144q0 84 107 182q506 475 971 475q224 0 389 -121q174 -131 174 -354q0 -348 -383 -602q-283 -186 -700 -289q162 -100 319 -157q43 -10 156 -48q61 -27 61 -73q0 -57 -61 -103q-62 -47 -121 -47q-129 0 -365 72 q-216 70 -346 139q0 -76 -20 -205q-21 -59 -95 -100q-64 -37 -137 -37q-112 0 -112 94zM473 690q583 21 811 211q201 171 201 318q0 116 -119 186q-99 57 -225 57q-228 0 -525 -233q-78 -245 -143 -539z" />
<glyph unicode="s" horiz-adv-x="1976" d="M-43 322q0 86 27 151q35 92 106 92q74 0 115 -92q54 -130 102 -174q106 -92 336 -92q206 0 397 84q200 89 312 254q51 71 51 108q0 16 -29 29q-138 61 -512 82q-291 14 -549 29q-172 12 -172 145q0 178 303 438q551 473 1172 473q147 0 147 -98q0 -200 -26 -291 q-17 -54 -109 -112q-89 -56 -149 -56q-90 0 -93 107l-2 69l-30 2q-20 1 -41 1q-174 0 -371 -91q-201 -92 -340 -250q35 5 160 5h39q140 0 512 -31q418 -35 497 -68q68 -27 68 -118q0 -101 -53 -193q-204 -357 -629 -602q-423 -244 -831 -244q-147 0 -228 51t-135 179 q-45 102 -45 213z" />
<glyph unicode="t" horiz-adv-x="1398" d="M166 1409q0 178 168 254q351 158 893 158q411 0 411 -224q0 -129 -219 -141q-127 -7 -422 -26q-222 -653 -282 -1199q-2 -5 -17 -178q-21 -78 -118 -123q-65 -32 -134 -32q-98 0 -98 82q0 50 82 397q127 542 240 985q-329 -109 -373 -109q-63 0 -97 44.5t-34 111.5z" />
<glyph unicode="u" horiz-adv-x="1800" d="M23 23q0 21 18 104q83 390 274 1186q29 120 84 284q74 164 275 164q114 0 114 -80q0 -40 -45 -145q-121 -293 -221 -670q-123 -455 -123 -535v-7v-11l2 4q96 3 424 123q263 98 432 174q110 499 162 695l62 227q46 125 137 182q76 43 160 43q118 0 118 -86q0 -44 -47 -159 l-67 -162q-209 -559 -275 -1051q-3 -19 -6 -47.5t-7.5 -72t-8.5 -77.5q-21 -84 -99 -135q-67 -43 -159 -43q-103 0 -103 84q0 22 47 221q-196 -89 -505 -188q-369 -117 -512 -117q-131 0 -131 95z" />
<glyph unicode="v" horiz-adv-x="1441" d="M240 1460q0 174 24 223q45 91 201 91q102 0 102 -146q0 -43 -8 -98l-10 -98q-14 -158 -14 -394q0 -293 30 -569l297 475l191 309q108 178 200 299q85 111 217 111q52 0 93 -21q47 -27 47 -71q0 -43 -88 -156q-13 -16 -52.5 -66t-68.5 -85q-349 -468 -604 -1024 q-11 -26 -109 -240q-57 -84 -209 -84q-78 0 -110 14q-56 21 -74 84q-10 39 -25 314q-30 624 -30 1132z" />
<glyph unicode="w" horiz-adv-x="2197" d="M233 1493q0 85 86 174q85 88 173 88q72 0 90 -133q5 -28 8 -182l-2 43q-2 -38 -2 -334q0 -243 14 -547q149 261 487 780q150 234 265 234q88 0 88 -172q0 -64 35 -397q18 -193 28 -377q113 193 572 968l73 121q57 78 107 78q67 0 102 -74q31 -60 31 -133q0 -64 -82 -180 q-223 -315 -428 -676q-85 -147 -381 -704q-71 -133 -178 -133q-77 0 -92 167q-3 34 -3 112q0 47 1 110q0 200 -15 295l-53 352q-351 -566 -602 -1034q-72 -134 -178 -134q-60 0 -78 62q-6 27 -6 106q0 19 4 109q2 53 2 106q4 218 4 387q0 444 -37 713q0 8 -20 105 q-13 67 -13 100z" />
<glyph unicode="x" horiz-adv-x="1579" d="M-51 10q0 19 2 25q8 37 647 796l-190 367q-136 269 -136 358q0 87 64 175q65 92 145 92q74 0 121 -154q33 -103 33 -106q91 -252 190 -461l271 323q168 199 284 310q76 73 170 73q68 0 121 -36q66 -41 66 -103q0 -39 -35 -86q-32 -28 -137 -133q-276 -270 -598 -629 q14 -27 94 -174q71 -119 106 -166q64 -78 123 -166q10 -23 10 -47q0 -79 -73 -170q-76 -98 -154 -98q-55 0 -188 250l-152 305q-202 -234 -325 -408q-24 -37 -146 -200q-49 -64 -149 -64q-63 0 -111 31q-53 38 -53 96z" />
<glyph unicode="y" horiz-adv-x="1681" d="M127 16v23q3 19 479 600l-184 375l-107 209q-50 100 -94 213q-14 43 -14 77q0 69 72 166q75 97 143 97q39 0 74 -54l57 -159q117 -345 278 -658l498 580l225 254q70 76 175 76q65 0 124 -41q60 -42 60 -105q0 -21 -2 -27q-15 -43 -154 -176q-731 -712 -1130 -1263 q-58 -85 -138 -197q-92 -121 -190 -121q-69 0 -117 31q-55 34 -55 100z" />
<glyph unicode="z" horiz-adv-x="1839" d="M-94 96q0 93 155 230q41 33 105 94q570 541 1063 997h-25q-298 0 -647 -71q-31 -7 -53 -7q-63 0 -101 39t-38 105q0 158 172 219q256 90 626 90q235 0 381 -33q268 -56 268 -192q0 -108 -217 -267q-84 -61 -135 -102q-591 -470 -1059 -962q127 -5 156 -5q218 0 811 58 q64 6 76 6q131 0 131 -84q0 -65 -74 -127q-62 -55 -131 -76q-320 -102 -946 -102q-254 0 -375 28q-143 34 -143 162z" />
<glyph unicode="{" horiz-adv-x="2072" d="M109 780q0 91 71 162q75 75 166 84q35 5 293 14q393 13 612 13q234 0 275 -13q63 -21 63 -84q0 -77 -65 -157q-68 -86 -142 -86q-5 0 -149 16q-227 29 -338 29q-158 0 -469 -39q-205 -25 -229 -25q-88 0 -88 86zM662 -150q0 125 192 259l297 176q366 225 408 225 q53 0 83 -74q25 -58 25 -121q0 -17 -4 -45q-15 -47 -64 -71q-2 -1 -12.5 -5.5t-32 -14t-45.5 -19.5q-267 -108 -475 -277q-14 -10 -33 -25t-49 -39.5t-51 -41.5q-101 -78 -131 -78q-58 0 -84 51q-24 40 -24 100zM1034 1741q0 68 86 139q89 74 158 74q53 0 334 -189 q276 -184 327 -243q17 -20 17 -39q0 -65 -92 -148q-93 -84 -154 -84q-24 0 -47 23l-209 207q-74 69 -264 149q-49 22 -96 37q-60 35 -60 74z" />
<glyph unicode="|" horiz-adv-x="763" d="M-37 -236q0 54 27 148l43 147l389 1592q22 94 51 166q89 194 289 194q104 0 104 -90q0 -45 -69 -229q-316 -841 -435 -1565q-9 -105 -49 -295q-20 -65 -100 -117q-74 -51 -152 -51q-98 0 -98 100z" />
<glyph unicode="}" horiz-adv-x="2146" d="M166 170q0 62 90 143q91 82 156 82q25 0 49 -18q65 -77 209 -221q76 -61 309 -158l78 -35q30 -21 30 -53q0 -63 -92 -137q-88 -76 -155 -76q-48 0 -334 188q-283 186 -326 242q-14 17 -14 43zM453 1317q0 88 53 129q18 9 102 45q168 71 258 121q87 51 221 162 q216 180 265 180q56 0 86 -62q22 -55 22 -112q0 -87 -69 -144q-68 -57 -422 -274q-357 -223 -410 -223q-47 0 -82 65q-24 53 -24 113zM530 696q0 74 66 158q69 84 141 84q20 0 152 -18q234 -29 334 -29q180 0 469 35l231 28q90 0 90 -86q0 -90 -71 -161q-70 -67 -164 -82 q-71 -10 -310 -19q-310 -10 -565 -10q-265 0 -305 12q-68 21 -68 88z" />
<glyph unicode="~" horiz-adv-x="1503" d="M92 772q0 139 68 213q145 160 299 160q91 0 256 -82q168 -82 258 -82q65 0 205 96l139 99q84 0 84 -154q0 -46 -10 -88q-28 -95 -174 -189q-146 -96 -246 -96q-87 0 -266 84t-228 84q-52 0 -168 -84q-113 -82 -133 -82q-84 0 -84 121z" />
<glyph unicode="&#xa8;" horiz-adv-x="907" />
<glyph unicode="&#xa9;" horiz-adv-x="2228" d="M49 438q0 335 264 695q230 309 555 516q360 225 674 225q290 0 477 -178q189 -180 189 -465q0 -338 -264 -692q-231 -307 -555 -512q-359 -226 -674 -226q-289 0 -477 176q-189 177 -189 461zM426 547q0 -193 96 -324q108 -141 293 -141q167 0 375 108q278 142 440 365 q180 247 180 539q0 195 -96 323q-110 146 -299 146q-167 0 -373 -105q-276 -140 -438 -371q-178 -248 -178 -540zM520 526q0 208 357 574q254 260 487 260q124 0 205 -100q92 -112 92 -185q0 -61 -70 -104q-59 -41 -123 -41q-41 0 -100 59q-59 62 -104 62q-105 0 -254 -125 q-148 -127 -148 -228q0 -125 195 -125q84 0 235 89q149 88 226 88q59 0 59 -45q0 -28 -14 -50q-83 -145 -336 -258q-237 -102 -418 -102q-124 0 -201 53q-88 58 -88 178z" />
<glyph unicode="&#xad;" horiz-adv-x="1521" d="M88 727q0 118 90 145q41 13 184 13q248 0 463 35q54 8 267 69q205 60 227 60q53 0 88 -60q27 -47 27 -106q0 -107 -127 -166q-88 -45 -267 -66l-231 -20q-464 -68 -576 -68q-65 0 -105 47.5t-40 116.5z" />
<glyph unicode="&#xae;" horiz-adv-x="2226" d="M47 440q0 335 264 695q234 311 555 514q360 225 674 225q292 0 475 -174q191 -182 191 -467q0 -337 -264 -694q-227 -306 -556 -512q-359 -226 -673 -226q-289 0 -477 176q-189 177 -189 463zM422 555q0 -194 96 -328q109 -145 295 -145q167 0 375 108q274 142 438 367 q182 253 182 539q0 195 -98 323q-111 144 -299 144q-180 0 -407 -127q-205 -114 -338 -271q-244 -286 -244 -610zM575 295q0 123 50 303q5 24 84 297q-16 -8 -37 -8q-33 0 -55.5 36t-22.5 76q0 60 133 175q272 233 510 233q172 0 287 -74q137 -82 137 -246q0 -345 -537 -495 l207 -129q70 -43 70 -92q0 -76 -94 -76q-43 0 -78 14l-402 164q-8 -120 -26 -168q-38 -78 -144 -78q-82 0 -82 68zM877 743q175 12 327 68q217 79 217 215q0 75 -67 115q-53 33 -133 33q-114 0 -244 -74q-55 -163 -100 -357z" />
<glyph unicode="&#xc0;" d="M-158 45q0 72 84 168l133 145q222 252 480 646q95 152 426 669l-84 125q-112 165 -156 250q-29 56 -29 104q0 107 86 166q50 33 107 11l20 -11q33 -23 191 -311l106 -192q75 -3 103 -76q7 -50 14 -146q71 -744 223 -1202l43 -123q29 -85 29 -125q0 -75 -94 -139 q-85 -61 -164 -61q-72 0 -107 108q-10 38 -26 172q-392 -88 -1026 -198q-126 -185 -203 -185q-73 0 -119 70q-37 58 -37 135zM459 395q380 65 712 172q-36 248 -114 729q-164 -237 -598 -901z" />
<glyph unicode="&#xc1;" d="M-158 45q0 72 84 168l133 145q222 252 480 646l432 677q19 34 35 50l88 157q162 290 190 310q12 8 23 10q52 24 104 -10q44 -25 72 -87q14 -38 14 -77q0 -54 -27 -107q-64 -114 -155 -248q0 -3 3.5 -34t4.5 -52q71 -744 223 -1202l43 -123q29 -85 29 -125q0 -75 -94 -139 q-85 -61 -164 -61q-72 0 -107 108q-10 38 -26 172q-392 -88 -1026 -198q-126 -185 -203 -185q-73 0 -119 70q-37 58 -37 135zM459 395q380 65 712 172q-36 248 -114 729q-164 -237 -598 -901z" />
<glyph unicode="&#xc2;" d="M-158 45q0 72 84 168l133 145q222 252 480 646l432 677q84 134 229 134q82 0 109 -76q7 -50 14 -146q71 -744 223 -1202l43 -123q29 -85 29 -125q0 -75 -94 -139q-85 -61 -164 -61q-72 0 -107 108q-10 38 -26 172q-392 -88 -1026 -198q-126 -185 -203 -185q-73 0 -119 70 q-37 58 -37 135zM459 395q380 65 712 172q-36 248 -114 729q-164 -237 -598 -901zM713 1757q3 21 51 72q204 204 356 432q26 33 74 33q79 0 88 -58q67 -83 211 -286l41 -56q20 -33 14 -67q-6 -36 -35 -65t-63 -29q-14 0 -24.5 4.5t-22 20.5t-18 27.5t-23.5 45.5 q-77 139 -180 248q-225 -270 -244 -293l-43 -47q-53 -68 -111 -56q-80 15 -71 74z" />
<glyph unicode="&#xc3;" d="M-158 45q0 72 84 168l133 145q222 252 480 646l432 677q50 81 121 111q-101 49 -131 49q-37 0 -105 -51q-70 -49 -82 -49q-51 0 -51 74q0 84 41 131q90 96 184 96q57 0 156 -51q101 -49 158 -49q44 0 127 59l86 61q49 0 49 -94q0 -32 -6 -53q-14 -56 -107 -117 q-61 -42 -106 -51l4 -8q7 -50 14 -146q71 -744 223 -1202l43 -123q29 -85 29 -125q0 -75 -94 -139q-85 -61 -164 -61q-72 0 -107 108q-10 38 -26 172q-392 -88 -1026 -198q-126 -185 -203 -185q-73 0 -119 70q-37 58 -37 135zM459 395q380 65 712 172q-36 248 -114 729 q-164 -237 -598 -901z" />
<glyph unicode="&#xc4;" d="M-158 45q0 72 84 168l133 145q222 252 480 646l432 677q84 134 229 134q82 0 109 -76q7 -50 14 -146q71 -744 223 -1202l43 -123q29 -85 29 -125q0 -75 -94 -139q-85 -61 -164 -61q-72 0 -107 108q-10 38 -26 172q-392 -88 -1026 -198q-126 -185 -203 -185q-73 0 -119 70 q-37 58 -37 135zM459 395q380 65 712 172q-36 248 -114 729q-164 -237 -598 -901zM813 1870q0 60 76 237q24 64 143 64q113 0 113 -57q0 -26 -51 -125q-41 -84 -70 -131q-39 -54 -125 -54t-86 66zM1350 1862q0 62 73 239q27 64 146 64q110 0 110 -60q0 -21 -49 -125 q-59 -112 -69 -129q-38 -53 -125 -53q-86 0 -86 64z" />
<glyph unicode="&#xc5;" d="M-158 45q0 72 84 168l133 145q222 252 480 646l432 677q20 38 53 68q-55 43 -55 119q0 109 96 196q98 88 209 88q73 0 121.5 -43t48.5 -114q0 -143 -146 -236l11 -20q7 -50 14 -146q71 -744 223 -1202l43 -123q29 -85 29 -125q0 -75 -94 -139q-85 -61 -164 -61 q-72 0 -107 108q-10 38 -26 172q-392 -88 -1026 -198q-126 -185 -203 -185q-73 0 -119 70q-37 58 -37 135zM459 395q380 65 712 172q-36 248 -114 729q-164 -237 -598 -901zM1104 1888q0 -63 61 -63q55 0 97 45q43 46 43 98q0 66 -64 66q-50 0 -93.5 -47t-43.5 -99z" />
<glyph unicode="&#xc8;" horiz-adv-x="1812" d="M25 -27q0 103 55 338q40 156 84 340q-55 37 -55 105q0 60 37.5 121t91.5 86l124 491q22 80 33 105q23 40 76 77q30 18 131 47l186 56l-38 55q-97 138 -156 250q-29 56 -29 104q0 110 86 166q50 33 107 10l22 -10q31 -21 191 -309l108 -201q108 15 228 15q101 0 161 -11 q81 -19 127.5 -78.5t46.5 -125.5q0 -129 -192 -150q-324 -36 -412 -47q-165 -21 -409 -115q-36 -101 -74 -237q503 131 952 131q80 0 111 -8q50 -11 98 -50q64 -52 64 -108q0 -11 -4 -27q-27 -80 -197 -98q-709 -81 -1114 -201q-55 -237 -82 -467q225 3 461 54l456 100 q62 10 80 10q105 0 105 -76q0 -62 -62 -139q-56 -70 -123 -106q-205 -106 -530 -162q-276 -49 -557 -49q-188 0 -188 114z" />
<glyph unicode="&#xc9;" horiz-adv-x="1812" d="M25 -27q0 103 55 338q40 156 84 340q-55 37 -55 105q0 60 37.5 121t91.5 86l124 491q22 80 33 105q23 40 76 77q30 18 131 47l240 68l125 229q161 289 188 310q11 7 23 12q56 21 106 -12q46 -26 70 -86q16 -43 16 -80q0 -63 -57 -162q-37 -59 -96 -145q31 2 90 2 q101 0 161 -11q81 -19 127.5 -78.5t46.5 -125.5q0 -129 -192 -150q-324 -36 -412 -47q-165 -21 -409 -115q-36 -101 -74 -237q503 131 952 131q80 0 111 -8q50 -11 98 -50q64 -52 64 -108q0 -11 -4 -27q-27 -80 -197 -98q-709 -81 -1114 -201q-55 -237 -82 -467 q225 3 461 54l456 100q62 10 80 10q105 0 105 -76q0 -62 -62 -139q-56 -70 -123 -106q-205 -106 -530 -162q-276 -49 -557 -49q-188 0 -188 114z" />
<glyph unicode="&#xca;" horiz-adv-x="1812" d="M25 -27q0 103 55 338q40 156 84 340q-55 37 -55 105q0 60 37.5 121t91.5 86l124 491q22 80 33 105q23 40 76 77q35 21 111 41q-7 12 -4 33q3 23 53 70q206 212 354 434q26 33 76 33q79 0 88 -60q54 -67 211 -284q23 -30 53 -88q123 -9 184 -89q45 -60 45 -122 q0 -129 -192 -150q-324 -36 -412 -47q-165 -21 -409 -115q-36 -101 -74 -237q503 131 952 131q80 0 111 -8q50 -11 98 -50q64 -52 64 -108q0 -11 -4 -27q-27 -80 -197 -98q-709 -81 -1114 -201q-55 -237 -82 -467q225 3 461 54l456 100q62 10 80 10q105 0 105 -76 q0 -62 -62 -139q-56 -70 -123 -106q-205 -106 -530 -162q-276 -49 -557 -49q-188 0 -188 114zM807 1743l139 37q129 28 262 37q-73 121 -159 213q-132 -160 -242 -287z" />
<glyph unicode="&#xcb;" horiz-adv-x="1812" d="M25 -27q0 103 55 338q40 156 84 340q-55 37 -55 105q0 60 37.5 121t91.5 86l124 491q22 80 33 105q23 40 76 77q30 18 131 47q266 77 344 97q160 39 361 39q101 0 161 -11q81 -19 127.5 -78.5t46.5 -125.5q0 -129 -192 -150q-324 -36 -412 -47q-165 -21 -409 -115 q-36 -101 -74 -237q503 131 952 131q80 0 111 -8q50 -11 98 -50q64 -52 64 -108q0 -11 -4 -27q-27 -80 -197 -98q-709 -81 -1114 -201q-55 -237 -82 -467q225 3 461 54l456 100q62 10 80 10q105 0 105 -76q0 -62 -62 -139q-56 -70 -123 -106q-205 -106 -530 -162 q-276 -49 -557 -49q-188 0 -188 114zM780 1962q0 58 74 238q27 61 143 61q113 0 113 -55q0 -24 -49 -125q-48 -91 -72 -131q-35 -54 -123 -54q-86 0 -86 66zM1317 1954q0 59 74 239q24 64 143 64q113 0 113 -59q0 -24 -52 -125q-40 -82 -69 -129q-35 -54 -123 -54 q-86 0 -86 64z" />
<glyph unicode="&#xcc;" horiz-adv-x="1492" d="M-61 -2q0 32 10 70q38 139 194 139q15 0 69 -3t71 -3q44 0 114 4q79 393 273 1143q-204 -82 -252 -82q-109 0 -109 141q0 86 42 159.5t114 108.5q10 6 32 16t27 13q-93 137 -141 229q-32 56 -29 105q0 110 86 166q52 34 107 10l20 -10q30 -21 191 -310l53 -98 q176 37 383 37q155 0 240 -31q133 -50 133 -180q0 -142 -195 -154q-274 -20 -366 -28q-219 -638 -283 -1186l192 51q118 31 197 31q88 0 88 -60q0 -57 -57 -126q-61 -73 -111 -99q-156 -79 -426 -129q-246 -47 -446 -47q-108 0 -146 14q-75 26 -75 109z" />
<glyph unicode="&#xcd;" horiz-adv-x="1492" d="M-61 -2q0 32 10 70q38 139 194 139q15 0 69 -3t71 -3q44 0 114 4q79 393 273 1143q-204 -82 -252 -82q-109 0 -109 141q0 86 42 159.5t114 108.5q152 76 336 117l73 133q158 288 191 311q8 8 20 13q55 21 107 -13q46 -29 70 -86q16 -43 16 -79q3 -67 -109 -238h25 q155 0 240 -31q133 -50 133 -180q0 -142 -195 -154q-274 -20 -366 -28q-219 -638 -283 -1186l192 51q118 31 197 31q88 0 88 -60q0 -57 -57 -126q-61 -73 -111 -99q-156 -79 -426 -129q-246 -47 -446 -47q-108 0 -146 14q-75 26 -75 109z" />
<glyph unicode="&#xce;" horiz-adv-x="1492" d="M-61 -2q0 32 10 70q38 139 194 139q15 0 69 -3t71 -3q44 0 114 4q79 393 273 1143q-204 -82 -252 -82q-109 0 -109 141q0 86 42 159.5t114 108.5q43 24 78 37l20 25q209 212 357 434q28 31 73 31q79 0 88 -58q21 -29 100.5 -134t137.5 -183q62 -8 115 -25 q133 -50 133 -180q0 -142 -195 -154q-274 -20 -366 -28q-219 -638 -283 -1186l192 51q118 31 197 31q88 0 88 -60q0 -57 -57 -126q-61 -73 -111 -99q-156 -79 -426 -129q-246 -47 -446 -47q-108 0 -146 14q-75 26 -75 109zM825 1798q132 27 281 33q-64 95 -125 156z" />
<glyph unicode="&#xcf;" horiz-adv-x="1492" d="M-61 -2q0 32 10 70q38 139 194 139q15 0 69 -3t71 -3q44 0 114 4q79 393 273 1143q-204 -82 -252 -82q-109 0 -109 141q0 86 42 159.5t114 108.5q311 158 729 158q155 0 240 -31q133 -50 133 -180q0 -142 -195 -154q-274 -20 -366 -28q-219 -638 -283 -1186l192 51 q118 31 197 31q88 0 88 -60q0 -57 -57 -126q-61 -73 -111 -99q-156 -79 -426 -129q-246 -47 -446 -47q-108 0 -146 14q-75 26 -75 109zM610 1948q0 57 74 237q27 64 143 64q113 0 113 -58q0 -23 -51 -125q-41 -84 -70 -131q-35 -53 -123 -53q-86 0 -86 66zM1145 1939 q0 66 76 240q24 64 143 64q113 0 113 -60q0 -17 -54 -125q-49 -99 -67 -129q-38 -53 -123 -53q-88 0 -88 63z" />
<glyph unicode="&#xd1;" horiz-adv-x="1849" d="M-74 -78q0 27 23 117l28 119q195 858 291 1216q33 127 66 178q53 75 160 101q58 10 92 10q78 0 104 -45l613 -1034q22 53 159 506l80 305q120 440 373 440q94 0 94 -74q0 -45 -61 -182q-339 -761 -441 -1399q-14 -101 -30 -137q-53 -102 -238 -102q-102 0 -102 57 q0 4 4 16l-633 1024q-168 -530 -215 -886l-21 -175q-21 -76 -118 -116q-73 -31 -127 -31q-101 0 -101 92zM809 1792q0 84 41 131q90 96 184 96q57 0 156 -51q101 -49 158 -49q44 0 127 59l86 62q49 0 49 -94q0 -33 -6 -54q-14 -55 -107 -116q-88 -58 -149 -58q-59 0 -164 51 q-107 52 -137 52q-35 0 -105 -52q-68 -51 -82 -51q-51 0 -51 74z" />
<glyph unicode="&#xd2;" horiz-adv-x="2197" d="M27 528q0 349 233 664q209 286 539 471q271 149 532 176q-82 123 -135 223q-29 56 -29 103q0 109 86 168q50 33 107 10l22 -10q26 -21 191 -312q39 -69 106 -196q170 -40 303 -152q218 -185 218 -491q0 -346 -236 -664q-210 -287 -539 -469q-334 -184 -665 -184 q-314 0 -518 174q-215 182 -215 489zM424 631q0 -220 131 -357t348 -137q337 0 606 291q267 285 267 625q0 217 -131 354q-133 139 -347 139q-338 0 -610 -291q-264 -285 -264 -624z" />
<glyph unicode="&#xd3;" horiz-adv-x="2197" d="M27 528q0 336 225 652q148 209 364 366q5 19 19 51q46 103 184 351q164 290 191 311l22 10q57 23 107 -10q44 -28 69 -86q17 -46 17 -82q3 -58 -60 -162l-96 -147q201 65 397 65q312 0 516 -174q218 -182 218 -491q0 -346 -236 -664q-210 -287 -539 -469 q-334 -184 -665 -184q-314 0 -518 174q-215 182 -215 489zM424 631q0 -220 131 -357t348 -137q337 0 606 291q267 285 267 625q0 217 -131 354q-133 139 -347 139q-338 0 -610 -291q-264 -285 -264 -624z" />
<glyph unicode="&#xd4;" horiz-adv-x="2197" d="M27 528q0 377 274 719q249 307 621 477q17 23 41 45q201 207 356 435q22 32 74 32q79 0 88 -59q48 -59 211 -285q26 -34 53 -86q131 -46 237 -133q218 -185 218 -491q0 -346 -236 -664q-210 -287 -539 -469q-334 -184 -665 -184q-314 0 -518 174q-215 182 -215 489z M424 631q0 -220 131 -357t348 -137q337 0 606 291q267 285 267 625q0 217 -131 354q-133 139 -347 139q-338 0 -610 -291q-264 -285 -264 -624zM1214 1823q126 24 252 24q34 0 50 -2q-59 91 -136 174z" />
<glyph unicode="&#xd5;" horiz-adv-x="2197" d="M27 528q0 349 233 664q209 286 539 471q269 147 524 176l-14 6q-116 58 -154 58q-39 0 -115 -58q-76 -55 -88 -55q-57 0 -57 82q0 95 45 143q98 107 203 107q57 0 172 -56q113 -55 176 -55q43 0 137 66l94 67q56 0 56 -104q0 -37 -6 -58q-21 -70 -148 -147 q210 -35 358 -162q218 -185 218 -491q0 -346 -236 -664q-210 -287 -539 -469q-334 -184 -665 -184q-314 0 -518 174q-215 182 -215 489zM424 631q0 -220 131 -357t348 -137q337 0 606 291q267 285 267 625q0 217 -131 354q-133 139 -347 139q-338 0 -610 -291 q-264 -285 -264 -624z" />
<glyph unicode="&#xd6;" horiz-adv-x="2197" d="M27 528q0 349 233 664q209 286 539 471q337 184 667 184q312 0 516 -174q218 -182 218 -491q0 -346 -236 -664q-210 -287 -539 -469q-334 -184 -665 -184q-314 0 -518 174q-215 182 -215 489zM424 631q0 -220 131 -357t348 -137q337 0 606 291q267 285 267 625 q0 217 -131 354q-133 139 -347 139q-338 0 -610 -291q-264 -285 -264 -624zM1092 1929q0 63 73 240q27 61 146 61q110 0 110 -55q0 -23 -49 -127q-59 -112 -69 -129q-37 -55 -125 -55q-86 0 -86 65zM1628 1921q0 62 74 242q27 61 143 61q113 0 113 -57q0 -23 -49 -127 q-33 -62 -72 -127q-34 -55 -123 -55q-86 0 -86 63z" />
<glyph unicode="&#xd9;" horiz-adv-x="1800" d="M23 23q0 21 18 104q83 390 274 1186q29 120 84 284q74 164 275 164q114 0 114 -80q0 -40 -45 -145q-121 -293 -221 -670q-129 -476 -123 -542v-11l2 4q96 3 424 123q263 98 432 174q110 499 162 695l62 227q46 125 137 182q76 43 160 43q118 0 118 -86q0 -44 -47 -159 l-67 -162q-209 -559 -275 -1051q-3 -19 -6 -47.5t-7.5 -72t-8.5 -77.5q-21 -84 -99 -135q-67 -43 -159 -43q-103 0 -103 84q0 22 47 221q-196 -89 -505 -188q-369 -117 -512 -117q-131 0 -131 95zM723 2003q0 107 86 166q50 33 104 8q6 -1 15 -5l8 -3q31 -22 190 -311 q136 -243 187 -351q22 -55 22 -96q0 -51 -38.5 -95t-86.5 -44q-67 0 -141 127q-26 44 -164 250q-98 144 -155 249q-27 52 -27 105z" />
<glyph unicode="&#xda;" horiz-adv-x="1800" d="M23 23q0 21 18 104q83 390 274 1186q29 120 84 284q74 164 275 164q114 0 114 -80q0 -40 -45 -145q-121 -293 -221 -670q-129 -476 -123 -542v-11l2 4q96 3 424 123q263 98 432 174q110 499 162 695l62 227q46 125 137 182q76 43 160 43q118 0 118 -86q0 -44 -47 -159 l-67 -162q-209 -559 -275 -1051q-3 -19 -6 -47.5t-7.5 -72t-8.5 -77.5q-21 -84 -99 -135q-67 -43 -159 -43q-103 0 -103 84q0 22 47 221q-196 -89 -505 -188q-369 -117 -512 -117q-131 0 -131 95zM885 1442q0 41 22 96q48 101 187 350q162 290 190 310q12 8 23 10 q52 24 104 -10q86 -56 86 -166q0 -52 -27 -105q-70 -126 -155 -250q-125 -184 -164 -250q-72 -124 -141 -124q-77 0 -115 92q-10 23 -10 47z" />
<glyph unicode="&#xdb;" horiz-adv-x="1800" d="M23 23q0 21 18 104q83 390 274 1186q29 120 84 284q74 164 275 164q114 0 114 -80q0 -40 -45 -145q-121 -293 -221 -670q-129 -476 -123 -542v-11l2 4q96 3 424 123q263 98 432 174q110 499 162 695q5 21 47 176q29 111 70 164q-31 55 -33 61q-77 139 -180 248l-244 -293 l-41 -47q-56 -65 -112 -53q-81 15 -72 73q3 22 51 70q209 212 357 434q26 33 73 33q79 0 88 -59q66 -81 213 -285q25 -32 52 -82q46 12 90 12q118 0 118 -86q0 -44 -47 -159l-67 -162q-209 -559 -275 -1051q-3 -19 -6 -47.5t-7.5 -72t-8.5 -77.5q-21 -84 -99 -135 q-67 -43 -159 -43q-103 0 -103 84q0 22 47 221q-196 -89 -505 -188q-369 -117 -512 -117q-131 0 -131 95z" />
<glyph unicode="&#xdc;" horiz-adv-x="1800" d="M23 23q0 21 18 104q83 390 274 1186q29 120 84 284q74 164 275 164q114 0 114 -80q0 -40 -45 -145q-121 -293 -221 -670q-129 -476 -123 -542v-11l2 4q96 3 424 123q263 98 432 174q110 499 162 695l62 227q46 125 137 182q76 43 160 43q118 0 118 -86q0 -44 -47 -159 l-67 -162q-209 -559 -275 -1051q-3 -19 -6 -47.5t-7.5 -72t-8.5 -77.5q-21 -84 -99 -135q-67 -43 -159 -43q-103 0 -103 84q0 22 47 221q-196 -89 -505 -188q-369 -117 -512 -117q-131 0 -131 95zM813 1870q0 60 76 237q24 64 143 64q113 0 113 -57q0 -26 -51 -125 q-41 -84 -70 -131q-39 -54 -125 -54t-86 66zM1350 1862q0 62 73 239q27 64 146 64q110 0 110 -60q0 -21 -49 -125q-59 -112 -69 -129q-38 -53 -125 -53q-86 0 -86 64z" />
<glyph unicode="&#xdd;" horiz-adv-x="1681" d="M127 16v23q3 19 479 600l-184 375l-107 209q-50 100 -94 213q-14 43 -14 77q0 69 72 166q75 97 143 97q39 0 74 -54l57 -159q117 -345 278 -658l498 580l225 254q70 76 175 76q65 0 124 -41q60 -42 60 -105q0 -21 -2 -27q-15 -43 -154 -176q-731 -712 -1130 -1263 q-58 -85 -138 -197q-92 -121 -190 -121q-69 0 -117 31q-55 34 -55 100zM797 1436q0 41 22 96q48 101 187 350q157 286 190 309q14 9 23 11q51 24 104 -11q86 -56 86 -166q0 -51 -27 -104q-70 -126 -155 -250q-125 -184 -164 -250q-73 -125 -141 -125q-77 0 -115 93 q-10 23 -10 47z" />
<glyph unicode="&#xe0;" d="M-158 45q0 72 84 168l133 145q222 252 480 646q95 152 426 669l-84 125q-112 165 -156 250q-29 53 -29 102q-3 109 86 168q50 33 107 11l20 -11q33 -23 191 -311l106 -192q75 -3 103 -76q7 -50 14 -146q71 -744 223 -1202l43 -123q29 -85 29 -125q0 -75 -94 -139 q-85 -61 -164 -61q-72 0 -107 108q-10 38 -26 172q-392 -88 -1026 -198q-126 -185 -203 -185q-73 0 -119 70q-37 58 -37 135zM459 395q380 65 712 172q-36 248 -114 729q-164 -237 -598 -901z" />
<glyph unicode="&#xe1;" d="M-158 45q0 72 84 168l133 145q222 252 480 646l432 677q19 34 35 50l88 157q162 290 190 310q12 8 23 10q52 24 104 -10q44 -25 72 -87q14 -38 14 -79q0 -52 -27 -105q-64 -114 -155 -248q0 -3 3.5 -34t4.5 -52q71 -744 223 -1202l43 -123q29 -85 29 -125q0 -75 -94 -139 q-85 -61 -164 -61q-72 0 -107 108q-10 38 -26 172q-392 -88 -1026 -198q-126 -185 -203 -185q-73 0 -119 70q-37 58 -37 135zM459 395q380 65 712 172q-36 248 -114 729q-164 -237 -598 -901z" />
<glyph unicode="&#xe2;" d="M-158 45q0 72 84 168l133 145q222 252 480 646l432 677q84 134 229 134q82 0 109 -76q7 -50 14 -146q71 -744 223 -1202l43 -123q29 -85 29 -125q0 -75 -94 -139q-85 -61 -164 -61q-72 0 -107 108q-10 38 -26 172q-392 -88 -1026 -198q-126 -185 -203 -185q-73 0 -119 70 q-37 58 -37 135zM459 395q380 65 712 172q-36 248 -114 729q-164 -237 -598 -901zM713 1757q3 21 51 72q204 204 356 432q26 33 74 33q79 0 88 -58q67 -83 211 -286l41 -56q20 -33 14 -67q-6 -36 -35 -65t-63 -29q-14 0 -24.5 4.5t-22 20.5t-18 27.5t-23.5 45.5 q-77 139 -180 248q-225 -270 -244 -293l-43 -47q-53 -68 -111 -56q-80 15 -71 74z" />
<glyph unicode="&#xe3;" d="M-158 45q0 72 84 168l133 145q222 252 480 646l432 677q50 81 121 111q-101 49 -131 49q-37 0 -105 -51q-70 -49 -82 -49q-51 0 -51 74q0 84 41 131q90 96 184 96q57 0 156 -51q101 -49 158 -49q44 0 127 59l86 61q49 0 49 -94q0 -32 -6 -53q-14 -56 -107 -117 q-61 -42 -106 -51l4 -8q7 -50 14 -146q71 -744 223 -1202l43 -123q29 -85 29 -125q0 -75 -94 -139q-85 -61 -164 -61q-72 0 -107 108q-10 38 -26 172q-392 -88 -1026 -198q-126 -185 -203 -185q-73 0 -119 70q-37 58 -37 135zM459 395q380 65 712 172q-36 248 -114 729 q-164 -237 -598 -901z" />
<glyph unicode="&#xe4;" d="M-158 45q0 72 84 168l133 145q222 252 480 646l432 677q84 134 229 134q82 0 109 -76q7 -50 14 -146q71 -744 223 -1202l43 -123q29 -85 29 -125q0 -75 -94 -139q-85 -61 -164 -61q-72 0 -107 108q-10 38 -26 172q-392 -88 -1026 -198q-126 -185 -203 -185q-73 0 -119 70 q-37 58 -37 135zM459 395q380 65 712 172q-36 248 -114 729q-164 -237 -598 -901zM813 1870q0 60 76 237q24 64 143 64q113 0 113 -57q0 -26 -51 -125q-41 -84 -70 -131q-39 -54 -125 -54t-86 66zM1350 1862q0 62 73 239q27 64 146 64q110 0 110 -60q0 -21 -49 -125 q-59 -112 -69 -129q-38 -53 -125 -53q-86 0 -86 64z" />
<glyph unicode="&#xe5;" d="M-158 45q0 72 84 168l133 145q222 252 480 646l432 677q20 38 53 68q-55 43 -55 119q0 109 96 196q98 88 209 88q73 0 121.5 -43t48.5 -114q0 -143 -146 -236l11 -20q7 -50 14 -146q71 -744 223 -1202l43 -123q29 -85 29 -125q0 -75 -94 -139q-85 -61 -164 -61 q-72 0 -107 108q-10 38 -26 172q-392 -88 -1026 -198q-126 -185 -203 -185q-73 0 -119 70q-37 58 -37 135zM459 395q380 65 712 172q-36 248 -114 729q-164 -237 -598 -901zM1104 1888q0 -63 61 -63q55 0 97 45q43 46 43 98q0 66 -64 66q-50 0 -93.5 -47t-43.5 -99z" />
<glyph unicode="&#xe8;" horiz-adv-x="1812" d="M25 -27q0 103 55 338q40 156 84 340q-55 37 -55 105q0 60 37.5 121t91.5 86l124 491q22 80 33 105q23 40 76 77q30 18 131 47l186 56l-38 55q-97 138 -156 250q-29 53 -29 102q-3 109 86 168q50 33 107 10l22 -10q31 -21 191 -309l108 -201q108 15 228 15q101 0 161 -11 q81 -19 127.5 -78.5t46.5 -125.5q0 -129 -192 -150q-324 -36 -412 -47q-165 -21 -409 -115q-36 -101 -74 -237q503 131 952 131q80 0 111 -8q50 -11 98 -50q64 -52 64 -108q0 -11 -4 -27q-27 -80 -197 -98q-709 -81 -1114 -201q-55 -237 -82 -467q225 3 461 54l456 100 q62 10 80 10q105 0 105 -76q0 -62 -62 -139q-56 -70 -123 -106q-205 -106 -530 -162q-276 -49 -557 -49q-188 0 -188 114z" />
<glyph unicode="&#xe9;" horiz-adv-x="1812" d="M25 -27q0 103 55 338q40 156 84 340q-55 37 -55 105q0 60 37.5 121t91.5 86l124 491q22 80 33 105q23 40 76 77q30 18 131 47l240 68l125 229q161 289 188 310q11 7 23 12q56 21 106 -12q46 -26 70 -86q16 -43 16 -80q0 -63 -57 -162q-37 -59 -96 -145q31 2 90 2 q101 0 161 -11q81 -19 127.5 -78.5t46.5 -125.5q0 -129 -192 -150q-324 -36 -412 -47q-165 -21 -409 -115q-36 -101 -74 -237q503 131 952 131q80 0 111 -8q50 -11 98 -50q64 -52 64 -108q0 -11 -4 -27q-27 -80 -197 -98q-709 -81 -1114 -201q-55 -237 -82 -467 q225 3 461 54l456 100q62 10 80 10q105 0 105 -76q0 -62 -62 -139q-56 -70 -123 -106q-205 -106 -530 -162q-276 -49 -557 -49q-188 0 -188 114z" />
<glyph unicode="&#xea;" horiz-adv-x="1812" d="M25 -27q0 103 55 338q40 156 84 340q-55 37 -55 105q0 60 37.5 121t91.5 86l124 491q22 80 33 105q23 40 76 77q35 21 111 41q-7 12 -4 33q3 23 53 70q206 212 354 434q26 33 76 33q79 0 88 -60q54 -67 211 -284q23 -30 53 -88q123 -9 184 -89q45 -60 45 -122 q0 -129 -192 -150q-324 -36 -412 -47q-165 -21 -409 -115q-36 -101 -74 -237q503 131 952 131q80 0 111 -8q50 -11 98 -50q64 -52 64 -108q0 -11 -4 -27q-27 -80 -197 -98q-709 -81 -1114 -201q-55 -237 -82 -467q225 3 461 54l456 100q62 10 80 10q105 0 105 -76 q0 -62 -62 -139q-56 -70 -123 -106q-205 -106 -530 -162q-276 -49 -557 -49q-188 0 -188 114zM807 1743l139 37q129 28 262 37q-73 121 -159 213q-132 -160 -242 -287z" />
<glyph unicode="&#xeb;" horiz-adv-x="1812" d="M25 -27q0 103 55 338q40 156 84 340q-55 37 -55 105q0 60 37.5 121t91.5 86l124 491q22 80 33 105q23 40 76 77q30 18 131 47q266 77 344 97q160 39 361 39q101 0 161 -11q81 -19 127.5 -78.5t46.5 -125.5q0 -129 -192 -150q-324 -36 -412 -47q-165 -21 -409 -115 q-36 -101 -74 -237q503 131 952 131q80 0 111 -8q50 -11 98 -50q64 -52 64 -108q0 -11 -4 -27q-27 -80 -197 -98q-709 -81 -1114 -201q-55 -237 -82 -467q225 3 461 54l456 100q62 10 80 10q105 0 105 -76q0 -62 -62 -139q-56 -70 -123 -106q-205 -106 -530 -162 q-276 -49 -557 -49q-188 0 -188 114zM780 1962q0 58 74 238q27 61 143 61q113 0 113 -55q0 -24 -49 -125q-48 -91 -72 -131q-35 -54 -123 -54q-86 0 -86 66zM1317 1954q0 59 74 239q24 64 143 64q113 0 113 -59q0 -24 -52 -125q-40 -82 -69 -129q-35 -54 -123 -54 q-86 0 -86 64z" />
<glyph unicode="&#xec;" horiz-adv-x="751" d="M18 14q0 15 25 121q115 486 324 1342q23 101 45 143q27 55 86 90l-41 62q-107 153 -158 249q-27 53 -27 105q0 110 86 166q52 34 107 10l20 -10q30 -21 191 -310q132 -237 186 -350q25 -55 25 -96q0 -51 -38.5 -95t-88.5 -44q-35 0 -58 20q-250 -594 -321 -1245 q-12 -105 -27 -131q-22 -49 -100 -84q-70 -31 -129 -31q-107 0 -107 88z" />
<glyph unicode="&#xed;" horiz-adv-x="751" d="M18 14q0 15 25 121q115 486 324 1342q23 101 45 143q30 56 88 90l131 240q158 288 188 311l23 8q55 25 106 -8q86 -59 86 -168q0 -48 -28 -102q-44 -85 -156 -250l-64 -94q-13 -67 -51 -150l-59 -143q-236 -633 -295 -1182q-12 -105 -27 -131q-22 -49 -100 -84 q-70 -31 -129 -31q-107 0 -107 88z" />
<glyph unicode="&#xee;" horiz-adv-x="751" d="M18 14q0 15 25 121q115 486 324 1342q23 101 45 143q70 137 268 137q111 0 111 -78q0 -43 -48 -161l-67 -164q-236 -633 -295 -1182q-12 -105 -27 -131q-22 -49 -100 -84q-70 -31 -129 -31q-107 0 -107 88zM164 1677q2 17 51 72q204 204 356 432q28 31 74 31q79 0 88 -58 q83 -102 213 -286q12 -15 39 -56q20 -33 14 -65q-6 -37 -35 -66.5t-63 -29.5q-24 0 -41 20.5t-47 77.5q-79 142 -178 250l-246 -295l-41 -47q-52 -64 -112 -55q-81 15 -72 75z" />
<glyph unicode="&#xef;" horiz-adv-x="751" d="M18 14q0 15 25 121q115 486 324 1342q23 101 45 143q70 137 268 137q111 0 111 -78q0 -43 -48 -161l-67 -164q-236 -633 -295 -1182q-12 -105 -27 -131q-22 -49 -100 -84q-70 -31 -129 -31q-107 0 -107 88zM297 1849q0 60 74 240q24 61 143 61q113 0 113 -57 q0 -21 -52 -125q-45 -92 -69 -131q-38 -53 -123 -53q-86 0 -86 65zM831 1841q0 62 74 242q27 61 146 61q110 0 110 -57q0 -23 -49 -127q-31 -63 -70 -127q-37 -55 -124 -55t-87 63z" />
<glyph unicode="&#xf1;" horiz-adv-x="2048" />
<glyph unicode="&#xf2;" horiz-adv-x="2197" d="M27 528q0 349 233 664q209 286 539 471q271 149 532 176q-82 123 -135 223q-29 56 -29 103q0 109 86 168q50 33 107 10l22 -10q26 -21 191 -312q39 -69 106 -196q170 -40 303 -152q218 -185 218 -491q0 -346 -236 -664q-210 -287 -539 -469q-334 -184 -665 -184 q-314 0 -518 174q-215 182 -215 489zM424 631q0 -220 131 -357t348 -137q337 0 606 291q267 285 267 625q0 217 -131 354q-133 139 -347 139q-338 0 -610 -291q-264 -285 -264 -624z" />
<glyph unicode="&#xf3;" horiz-adv-x="2197" d="M27 528q0 336 225 652q148 209 364 366q5 19 19 51q46 103 184 351q164 290 191 311l22 10q57 23 107 -10q44 -28 69 -86q17 -46 17 -82q0 -57 -60 -162l-96 -147q201 65 397 65q312 0 516 -174q218 -182 218 -491q0 -346 -236 -664q-210 -287 -539 -469 q-334 -184 -665 -184q-314 0 -518 174q-215 182 -215 489zM424 631q0 -220 131 -357t348 -137q337 0 606 291q267 285 267 625q0 217 -131 354q-133 139 -347 139q-338 0 -610 -291q-264 -285 -264 -624z" />
<glyph unicode="&#xf4;" horiz-adv-x="2197" d="M27 528q0 377 274 719q249 307 621 477q17 23 41 45q201 207 356 435q22 32 74 32q79 0 88 -59q48 -59 211 -285q26 -34 53 -86q131 -46 237 -133q218 -185 218 -491q0 -346 -236 -664q-210 -287 -539 -469q-334 -184 -665 -184q-314 0 -518 174q-215 182 -215 489z M424 631q0 -220 131 -357t348 -137q337 0 606 291q267 285 267 625q0 217 -131 354q-133 139 -347 139q-338 0 -610 -291q-264 -285 -264 -624zM1214 1823q126 24 252 24q34 0 50 -2q-59 91 -136 174z" />
<glyph unicode="&#xf5;" horiz-adv-x="2197" d="M27 528q0 349 233 664q209 286 539 471q269 147 524 176l-14 6q-116 58 -154 58q-39 0 -115 -58q-76 -55 -88 -55q-57 0 -57 82q0 95 45 143q98 107 203 107q57 0 172 -56q113 -55 176 -55q43 0 137 66l94 67q56 0 56 -104q0 -37 -6 -58q-21 -70 -148 -147 q210 -35 358 -162q218 -185 218 -491q0 -346 -236 -664q-210 -287 -539 -469q-334 -184 -665 -184q-314 0 -518 174q-215 182 -215 489zM424 631q0 -220 131 -357t348 -137q337 0 606 291q267 285 267 625q0 217 -131 354q-133 139 -347 139q-338 0 -610 -291 q-264 -285 -264 -624z" />
<glyph unicode="&#xf6;" horiz-adv-x="2197" d="M27 528q0 349 233 664q209 286 539 471q337 184 667 184q312 0 516 -174q218 -182 218 -491q0 -346 -236 -664q-210 -287 -539 -469q-334 -184 -665 -184q-314 0 -518 174q-215 182 -215 489zM424 631q0 -220 131 -357t348 -137q337 0 606 291q267 285 267 625 q0 217 -131 354q-133 139 -347 139q-338 0 -610 -291q-264 -285 -264 -624zM1092 1929q0 63 73 240q27 61 146 61q110 0 110 -55q0 -23 -49 -127q-59 -112 -69 -129q-37 -55 -125 -55q-86 0 -86 65zM1628 1921q0 62 74 242q27 61 143 61q113 0 113 -57q0 -23 -49 -127 q-33 -62 -72 -127q-34 -55 -123 -55q-86 0 -86 63z" />
<glyph unicode="&#xf9;" horiz-adv-x="1800" d="M23 23q0 21 18 104q83 390 274 1186q29 120 84 284q74 164 275 164q114 0 114 -80q0 -40 -45 -145q-121 -293 -221 -670q-129 -476 -123 -542v-11l2 4q96 3 424 123q263 98 432 174q110 499 162 695l62 227q46 125 137 182q76 43 160 43q118 0 118 -86q0 -44 -47 -159 l-67 -162q-209 -559 -275 -1051q-3 -19 -6 -47.5t-7.5 -72t-8.5 -77.5q-21 -84 -99 -135q-67 -43 -159 -43q-103 0 -103 84q0 22 47 221q-196 -89 -505 -188q-369 -117 -512 -117q-131 0 -131 95zM723 2003q0 107 86 166q50 33 104 8q6 -1 15 -5l8 -3q31 -22 190 -311 q136 -243 187 -351q22 -55 22 -96q0 -51 -38.5 -95t-86.5 -44q-67 0 -141 127q-26 44 -164 250q-98 144 -155 249q-27 52 -27 105z" />
<glyph unicode="&#xfa;" horiz-adv-x="1800" d="M23 23q0 21 18 104q83 390 274 1186q29 120 84 284q74 164 275 164q114 0 114 -80q0 -40 -45 -145q-121 -293 -221 -670q-129 -476 -123 -542v-11l2 4q96 3 424 123q263 98 432 174q110 499 162 695l62 227q46 125 137 182q76 43 160 43q118 0 118 -86q0 -44 -47 -159 l-67 -162q-209 -559 -275 -1051q-3 -19 -6 -47.5t-7.5 -72t-8.5 -77.5q-21 -84 -99 -135q-67 -43 -159 -43q-103 0 -103 84q0 22 47 221q-196 -89 -505 -188q-369 -117 -512 -117q-131 0 -131 95zM885 1442q0 41 22 96q48 101 187 350q162 290 190 310q12 8 23 10 q52 24 104 -10q89 -56 86 -168q0 -50 -27 -103q-70 -126 -155 -250q-125 -184 -164 -250q-72 -124 -141 -124q-77 0 -115 92q-10 23 -10 47z" />
<glyph unicode="&#xfb;" horiz-adv-x="1800" d="M23 23q0 21 18 104q83 390 274 1186q29 120 84 284q74 164 275 164q114 0 114 -80q0 -40 -45 -145q-121 -293 -221 -670q-129 -476 -123 -542v-11l2 4q96 3 424 123q263 98 432 174q110 499 162 695q5 21 47 176q29 111 70 164q-31 55 -33 61q-77 139 -180 248l-244 -293 l-41 -47q-56 -65 -112 -53q-81 15 -72 73q3 22 51 70q209 212 357 434q26 33 73 33q79 0 88 -59q66 -81 213 -285q25 -32 52 -82q46 12 90 12q118 0 118 -86q0 -44 -47 -159l-67 -162q-209 -559 -275 -1051q-3 -19 -6 -47.5t-7.5 -72t-8.5 -77.5q-21 -84 -99 -135 q-67 -43 -159 -43q-103 0 -103 84q0 22 47 221q-196 -89 -505 -188q-369 -117 -512 -117q-131 0 -131 95z" />
<glyph unicode="&#xfc;" horiz-adv-x="1800" d="M23 23q0 21 18 104q83 390 274 1186q29 120 84 284q74 164 275 164q114 0 114 -80q0 -40 -45 -145q-121 -293 -221 -670q-129 -476 -123 -542v-11l2 4q96 3 424 123q263 98 432 174q110 499 162 695l62 227q46 125 137 182q76 43 160 43q118 0 118 -86q0 -44 -47 -159 l-67 -162q-209 -559 -275 -1051q-3 -19 -6 -47.5t-7.5 -72t-8.5 -77.5q-21 -84 -99 -135q-67 -43 -159 -43q-103 0 -103 84q0 22 47 221q-196 -89 -505 -188q-369 -117 -512 -117q-131 0 -131 95zM813 1870q0 60 76 237q24 64 143 64q113 0 113 -57q0 -26 -51 -125 q-41 -84 -70 -131q-39 -54 -125 -54t-86 66zM1350 1862q0 62 73 239q27 64 146 64q110 0 110 -60q0 -21 -49 -125q-59 -112 -69 -129q-38 -53 -125 -53q-86 0 -86 64z" />
<glyph unicode="&#xfd;" horiz-adv-x="1681" d="M127 16v23q3 19 479 600l-184 375l-107 209q-50 100 -94 213q-14 43 -14 77q0 69 72 166q75 97 143 97q39 0 74 -54l57 -159q117 -345 278 -658l498 580l225 254q70 76 175 76q65 0 124 -41q60 -42 60 -105q0 -21 -2 -27q-15 -43 -154 -176q-731 -712 -1130 -1263 q-58 -85 -138 -197q-92 -121 -190 -121q-69 0 -117 31q-55 34 -55 100zM772 1432q0 39 25 94q43 98 184 350q162 288 190 309q14 9 23 13q54 21 106 -13q86 -56 86 -166q0 -48 -28 -102q-48 -93 -156 -252q-125 -184 -164 -250q-70 -125 -141 -125q-77 0 -115 92 q-10 23 -10 50z" />
<glyph unicode="&#xff;" horiz-adv-x="1681" d="M127 16v23q3 19 479 600l-184 375l-107 209q-50 100 -94 213q-14 43 -14 77q0 69 72 166q75 97 143 97q39 0 74 -54l57 -159q117 -345 278 -658l498 580l225 254q70 76 175 76q65 0 124 -41q60 -42 60 -105q0 -21 -2 -27q-15 -43 -154 -176q-731 -712 -1130 -1263 q-58 -85 -138 -197q-92 -121 -190 -121q-69 0 -117 31q-55 34 -55 100zM647 1772q0 63 76 237q24 64 143 64q113 0 113 -58q0 -23 -51 -125q-41 -84 -70 -131q-38 -53 -125 -53q-86 0 -86 66zM1184 1763q0 65 73 242q27 61 146 61q110 0 110 -59q0 -21 -49 -125 q-59 -112 -69 -129q-38 -53 -125 -53q-86 0 -86 63z" />
<glyph unicode="&#x178;" horiz-adv-x="1681" d="M127 16v23q3 19 479 600l-184 375l-107 209q-50 100 -94 213q-14 43 -14 77q0 69 72 166q75 97 143 97q39 0 74 -54l57 -159q117 -345 278 -658l498 580l225 254q70 76 175 76q65 0 124 -41q60 -42 60 -105q0 -21 -2 -27q-15 -43 -154 -176q-731 -712 -1130 -1263 q-58 -85 -138 -197q-92 -121 -190 -121q-69 0 -117 31q-55 34 -55 100zM682 1767q0 61 74 238q26 63 143 63q113 0 113 -57q0 -21 -49 -125q-60 -115 -70 -131q-38 -53 -125 -53q-86 0 -86 65zM1219 1759q0 65 73 242q27 61 144 61q112 0 112 -57q0 -25 -51 -127 q-36 -73 -70 -129q-35 -53 -122 -53q-86 0 -86 63z" />
<glyph unicode="&#x2000;" horiz-adv-x="1176" />
<glyph unicode="&#x2001;" horiz-adv-x="2352" />
<glyph unicode="&#x2002;" horiz-adv-x="1176" />
<glyph unicode="&#x2003;" horiz-adv-x="2352" />
<glyph unicode="&#x2004;" horiz-adv-x="784" />
<glyph unicode="&#x2005;" horiz-adv-x="588" />
<glyph unicode="&#x2006;" horiz-adv-x="392" />
<glyph unicode="&#x2007;" horiz-adv-x="392" />
<glyph unicode="&#x2008;" horiz-adv-x="294" />
<glyph unicode="&#x2009;" horiz-adv-x="470" />
<glyph unicode="&#x200a;" horiz-adv-x="130" />
<glyph unicode="&#x2010;" horiz-adv-x="1521" d="M88 727q0 118 90 145q41 13 184 13q248 0 463 35q54 8 267 69q205 60 227 60q53 0 88 -60q27 -47 27 -106q0 -107 -127 -166q-88 -45 -267 -66l-231 -20q-464 -68 -576 -68q-65 0 -105 47.5t-40 116.5z" />
<glyph unicode="&#x2011;" horiz-adv-x="1521" d="M88 727q0 118 90 145q41 13 184 13q248 0 463 35q54 8 267 69q205 60 227 60q53 0 88 -60q27 -47 27 -106q0 -107 -127 -166q-88 -45 -267 -66l-231 -20q-464 -68 -576 -68q-65 0 -105 47.5t-40 116.5z" />
<glyph unicode="&#x2012;" horiz-adv-x="1521" d="M88 727q0 118 90 145q41 13 184 13q248 0 463 35q54 8 267 69q205 60 227 60q53 0 88 -60q27 -47 27 -106q0 -107 -127 -166q-88 -45 -267 -66l-231 -20q-464 -68 -576 -68q-65 0 -105 47.5t-40 116.5z" />
<glyph unicode="&#x2013;" horiz-adv-x="1199" d="M88 727q0 118 68 145q32 13 140 13q189 0 353 35q41 8 203 69q156 60 173 60q40 0 66 -60q21 -47 21 -106q0 -107 -97 -166q-67 -45 -203 -66l-175 -20q-353 -68 -439 -68q-49 0 -79.5 47.5t-30.5 116.5z" />
<glyph unicode="&#x2014;" horiz-adv-x="2223" d="M88 727q0 118 137 145q62 13 280 13q377 0 704 35q83 8 407 69q312 60 345 60q81 0 134 -60q41 -47 41 -106q0 -107 -193 -166q-134 -45 -406 -66l-352 -20q-706 -68 -876 -68q-99 0 -160 47.5t-61 116.5z" />
<glyph unicode="&#x2018;" horiz-adv-x="792" d="M332 1802q0 60 80 107q68 39 137 39q107 0 129 -97q1 -8 20 -168q6 -27 35 -206q25 -150 25 -195q0 -68 -53.5 -114t-126.5 -46q-77 0 -111 82q-34 83 -84 301q-51 221 -51 297z" />
<glyph unicode="&#x2019;" horiz-adv-x="823" d="M205 1233q0 49 69 141q52 69 166 246q99 154 166 244q64 82 166 82q55 0 105 -29q51 -34 51 -92q0 -19 -2 -27q-8 -36 -209 -299l-166 -219q-137 -158 -213 -158q-57 0 -95 29.5t-38 81.5z" />
<glyph unicode="&#x201c;" horiz-adv-x="1253" d="M354 1683q0 63 80 107q71 41 135 41q114 0 129 -98l23 -170l33 -207q24 -141 24 -197q0 -66 -53.5 -110.5t-124.5 -44.5q-79 0 -113 81q-31 85 -81 301q-52 226 -52 297zM791 1819q0 61 79 104q71 41 136 41q112 0 133 -98l18 -168l35 -207q27 -150 27 -195 q0 -66 -54 -112.5t-125 -46.5q-79 0 -114 84q-34 87 -84 301q-51 219 -51 297z" />
<glyph unicode="&#x201d;" horiz-adv-x="1212" d="M233 1243q0 52 70 146q52 68 166 247q118 186 135 207q94 119 201 119q64 0 108.5 -33t44.5 -90q0 -16 -2 -24q-7 -32 -211 -299q-193 -254 -245 -308q-65 -71 -133 -71q-56 0 -95 29t-39 77zM598 1114q0 37 107 195l131 192q123 195 135 207q95 121 196 121 q64 0 111 -34t47 -89q0 -17 -2 -27q-8 -34 -211 -297l-166 -221q-136 -157 -213 -157q-50 0 -92 28q-43 30 -43 82z" />
<glyph unicode="&#x2026;" horiz-adv-x="1826" d="M49 55q0 84 98 316q38 84 193 84q145 0 145 -76q0 -28 -67 -168q-63 -133 -88 -168q-50 -74 -166 -74q-115 0 -115 86zM588 57q0 83 98 318q34 82 193 82q145 0 145 -76q0 -29 -68 -168q-57 -117 -90 -170q-51 -72 -164 -72q-114 0 -114 86zM1126 59q0 81 99 318 q34 82 188 82q150 0 150 -76q0 -30 -70 -170q-63 -129 -88 -168q-52 -70 -166 -70q-113 0 -113 84z" />
<glyph unicode="&#x202f;" horiz-adv-x="470" />
<glyph unicode="&#x205f;" horiz-adv-x="588" />
<glyph unicode="&#x2122;" horiz-adv-x="2330" d="M369 1597q0 146 215 211q143 41 334 41q71 0 147 -28q88 -40 88 -107q0 -62 -125 -86q-29 -5 -174 -16q-122 -343 -164 -686q0 -38 -16 -129q-17 -43 -62.5 -71t-93.5 -28q-74 0 -74 62q0 100 74 391l109 412l-162 -47q-96 0 -96 81zM809 868q0 38 33 88q50 62 59 76 q238 314 430 666q47 84 121 84q59 0 68 -70q0 -236 55 -541q18 28 360 646q46 79 119 79q70 0 70 -143q0 -66 -2 -121q-2 -53 -2 -121q0 -103 6 -180q1 -12 26 -184q19 -123 19 -186q0 -56 -57 -107q-58 -49 -113 -49q-39 0 -57 37q-14 25 -23 245q-2 93 -6 277 q-141 -256 -201 -352q-170 -273 -235 -273q-77 0 -117 242q-14 80 -29 315q-56 -89 -252 -383q-8 -13 -22.5 -33.5t-39 -55.5t-44.5 -64q-38 -35 -70 -35q-45 0 -71 51q-25 48 -25 92z" />
<glyph unicode="&#x25fc;" horiz-adv-x="1822" d="M0 0v1823h1823v-1823h-1823z" />
</font>
</defs>
</svg>
